# Converted from FBX: Cylinder.085
# Vertices: 56

v -1.000000 -0.454236 0.909152
v -1.000000 -0.454236 0.682034
v -1.000000 0.454236 0.909152
v -1.000000 0.454236 0.682035
v -0.815579 -0.454236 0.909152
v -0.815579 -0.454236 0.682034
v -0.815579 0.454236 0.909152
v -0.815579 0.454236 0.682035
v -0.907790 -0.317965 0.727458
v -0.907790 -0.317965 0.863729
v -0.907790 0.317965 0.727458
v -0.907790 0.317965 0.863729
v 0.818306 -0.317965 0.727458
v 0.818306 -0.317965 0.863729
v 0.818306 0.317965 0.727458
v 0.818306 0.317965 0.863729
v -0.907790 0.133544 0.727458
v -0.907790 -0.133544 0.727458
v -0.907790 -0.133544 0.863729
v -0.907790 0.133544 0.863729
v 0.818306 -0.133544 0.727458
v 0.818306 0.133544 0.727458
v 0.818306 0.133544 0.863729
v 0.818306 -0.133544 0.863729
v 0.772882 -0.454236 -0.909154
v 1.000000 -0.454236 -0.909154
v 0.772882 0.454236 -0.909154
v 1.000000 0.454236 -0.909154
v 0.772882 -0.454236 -0.724733
v 1.000000 -0.454236 -0.724733
v 0.772882 0.454236 -0.724733
v 1.000000 0.454236 -0.724733
v 0.954576 -0.317965 -0.816944
v 0.818306 -0.317965 -0.816943
v 0.954576 0.317965 -0.816944
v 0.818306 0.317965 -0.816943
v 0.954576 -0.317965 0.818305
v 0.818306 -0.317965 0.818305
v 0.954576 0.317965 0.818305
v 0.818306 0.317965 0.818305
v 0.954576 0.133544 -0.816944
v 0.954576 -0.133544 -0.816944
v 0.818306 -0.133544 -0.816943
v 0.818306 0.133544 -0.816943
v 0.954576 -0.133544 0.818305
v 0.954576 0.133544 0.818305
v 0.818306 0.133544 0.818305
v 0.818306 -0.133544 0.818305
v 0.794230 -0.454236 0.909154
v 0.794230 -0.454236 0.682036
v 0.794230 0.454236 0.909154
v 0.794230 0.454236 0.682036
v 0.978651 -0.454236 0.909154
v 0.978651 -0.454236 0.682036
v 0.978651 0.454236 0.909154
v 0.978651 0.454236 0.682036

vn 0.000000 0.000000 -1.000000
vn 0.000000 0.000000 -1.000000
vn 0.000000 0.000000 -1.000000
vn 0.000000 0.000000 -1.000000
vn 0.000000 -0.000000 1.000000
vn 0.000000 -0.000000 1.000000
vn 0.000000 -0.000000 1.000000
vn 0.000000 -0.000000 1.000000
vn 1.000000 0.000000 -0.000000
vn 1.000000 0.000000 -0.000000
vn 1.000000 0.000000 -0.000000
vn 1.000000 0.000000 -0.000000
vn 0.000000 -1.000000 -0.000000
vn 0.000000 -1.000000 -0.000000
vn 0.000000 -1.000000 -0.000000
vn 0.000000 -1.000000 -0.000000
vn 0.000000 1.000000 -0.000000
vn 0.000000 1.000000 -0.000000
vn 0.000000 1.000000 -0.000000
vn 0.000000 1.000000 -0.000000
vn -1.000000 0.000000 -0.000000
vn -1.000000 0.000000 -0.000000
vn -1.000000 0.000000 -0.000000
vn -1.000000 0.000000 -0.000000
vn -1.000000 0.000000 -0.000000
vn -1.000000 0.000000 -0.000000
vn -1.000000 0.000000 -0.000000
vn -1.000000 0.000000 -0.000000
vn 0.000000 1.000000 -0.000000
vn 0.000000 1.000000 -0.000000
vn 0.000000 1.000000 -0.000000
vn 0.000000 1.000000 -0.000000
vn 1.000000 0.000000 -0.000000
vn 1.000000 0.000000 -0.000000
vn 1.000000 0.000000 -0.000000
vn 1.000000 0.000000 -0.000000
vn 0.000000 -1.000000 -0.000000
vn 0.000000 -1.000000 -0.000000
vn 0.000000 -1.000000 -0.000000
vn 0.000000 -1.000000 -0.000000
vn 0.000000 0.000000 -1.000000
vn 0.000000 0.000000 -1.000000
vn 0.000000 0.000000 -1.000000
vn 0.000000 0.000000 -1.000000
vn -0.000000 -0.000000 1.000000
vn -0.000000 -0.000000 1.000000
vn -0.000000 -0.000000 1.000000
vn -0.000000 -0.000000 1.000000
vn 0.000000 -0.000000 1.000000
vn 0.000000 -0.000000 1.000000
vn 0.000000 -0.000000 1.000000
vn 0.000000 -0.000000 1.000000
vn 0.000000 0.000000 -1.000000
vn 0.000000 0.000000 -1.000000
vn 0.000000 0.000000 -1.000000
vn 0.000000 0.000000 -1.000000
vn 1.000000 0.000000 -0.000000
vn 1.000000 0.000000 -0.000000
vn 1.000000 0.000000 -0.000000
vn 1.000000 0.000000 -0.000000
vn 0.000000 1.000000 -0.000000
vn 0.000000 1.000000 -0.000000
vn 0.000000 1.000000 -0.000000
vn 0.000000 1.000000 -0.000000
vn -1.000000 0.000000 0.000000
vn -1.000000 0.000000 0.000000
vn -1.000000 0.000000 0.000000
vn -1.000000 0.000000 0.000000
vn 0.000000 -1.000000 -0.000000
vn 0.000000 -1.000000 -0.000000
vn 0.000000 -1.000000 -0.000000
vn 0.000000 -1.000000 -0.000000
vn 1.000000 0.000000 -0.000000
vn 1.000000 0.000000 -0.000000
vn 1.000000 0.000000 -0.000000
vn 1.000000 0.000000 -0.000000
vn -1.000000 -0.000000 0.000000
vn -1.000000 -0.000000 0.000000
vn -1.000000 -0.000000 0.000000
vn -1.000000 -0.000000 0.000000
vn 0.000000 0.000000 1.000000
vn 0.000000 0.000000 1.000000
vn 0.000000 0.000000 1.000000
vn 0.000000 0.000000 1.000000
vn 0.000000 -1.000000 0.000000
vn 0.000000 -1.000000 0.000000
vn 0.000000 -1.000000 0.000000
vn 0.000000 -1.000000 0.000000
vn 0.000000 1.000000 -0.000000
vn 0.000000 1.000000 -0.000000
vn 0.000000 1.000000 -0.000000
vn 0.000000 1.000000 -0.000000
vn 0.000000 0.000000 -1.000000
vn 0.000000 0.000000 -1.000000
vn 0.000000 0.000000 -1.000000
vn 0.000000 0.000000 -1.000000
vn -0.000001 0.000000 -1.000000
vn -0.000001 0.000000 -1.000000
vn -0.000001 0.000000 -1.000000
vn -0.000001 0.000000 -1.000000
vn 0.000000 1.000000 -0.000000
vn 0.000000 1.000000 -0.000000
vn 0.000000 1.000000 -0.000000
vn 0.000000 1.000000 -0.000000
vn 0.000000 0.000000 1.000000
vn 0.000000 0.000000 1.000000
vn 0.000000 0.000000 1.000000
vn 0.000000 0.000000 1.000000
vn 0.000000 -1.000000 -0.000000
vn 0.000000 -1.000000 -0.000000
vn 0.000000 -1.000000 -0.000000
vn 0.000000 -1.000000 -0.000000
vn 1.000000 0.000000 -0.000000
vn 1.000000 0.000000 -0.000000
vn 1.000000 0.000000 -0.000000
vn 1.000000 0.000000 -0.000000
vn -1.000000 0.000000 0.000000
vn -1.000000 0.000000 0.000000
vn -1.000000 0.000000 0.000000
vn -1.000000 0.000000 0.000000
vn -1.000000 0.000000 0.000000
vn -1.000000 0.000000 0.000000
vn -1.000000 0.000000 0.000000
vn -1.000000 0.000000 0.000000
vn 1.000000 0.000000 -0.000000
vn 1.000000 0.000000 -0.000000
vn 1.000000 0.000000 -0.000000
vn 1.000000 0.000000 -0.000000
vn 0.000000 0.000000 1.000000
vn 0.000000 0.000000 1.000000
vn 0.000000 0.000000 1.000000
vn 0.000000 0.000000 1.000000
vn 0.000000 1.000000 -0.000000
vn 0.000000 1.000000 -0.000000
vn 0.000000 1.000000 -0.000000
vn 0.000000 1.000000 -0.000000
vn -0.000001 0.000000 -1.000000
vn -0.000001 0.000000 -1.000000
vn -0.000001 0.000000 -1.000000
vn -0.000001 0.000000 -1.000000
vn -0.000000 -1.000000 -0.000000
vn -0.000000 -1.000000 -0.000000
vn -0.000000 -1.000000 -0.000000
vn -0.000000 -1.000000 -0.000000
vn -0.000000 0.000000 -1.000000
vn -0.000000 0.000000 -1.000000
vn -0.000000 0.000000 -1.000000
vn -0.000000 0.000000 -1.000000
vn 0.000000 -0.000000 1.000000
vn 0.000000 -0.000000 1.000000
vn 0.000000 -0.000000 1.000000
vn 0.000000 -0.000000 1.000000
vn 1.000000 0.000000 -0.000000
vn 1.000000 0.000000 -0.000000
vn 1.000000 0.000000 -0.000000
vn 1.000000 0.000000 -0.000000
vn 0.000000 -1.000000 -0.000000
vn 0.000000 -1.000000 -0.000000
vn 0.000000 -1.000000 -0.000000
vn 0.000000 -1.000000 -0.000000
vn 0.000000 1.000000 -0.000000
vn 0.000000 1.000000 -0.000000
vn 0.000000 1.000000 -0.000000
vn 0.000000 1.000000 -0.000000
vn -1.000000 -0.000000 -0.000000
vn -1.000000 -0.000000 -0.000000
vn -1.000000 -0.000000 -0.000000
vn -1.000000 -0.000000 -0.000000

f 8//1 6//2 2//3 4//4
f 5//5 7//6 3//7 1//8
f 8//9 7//10 5//11 6//12
f 6//13 5//14 1//15 2//16
f 4//17 3//18 7//19 8//20
f 3//21 4//22 2//23 1//24
f 17//25 20//26 12//27 11//28
f 11//29 12//30 16//31 15//32
f 21//33 24//34 14//35 13//36
f 13//37 14//38 10//39 9//40
f 18//41 21//42 13//43 9//44
f 24//45 19//46 10//47 14//48
f 16//49 12//50 20//51 23//52
f 11//53 15//54 22//55 17//56
f 15//57 16//58 23//59 22//60
f 19//61 24//62 21//63 18//64
f 9//65 10//66 19//67 18//68
f 20//69 17//70 22//71 23//72
f 32//73 30//74 26//75 28//76
f 29//77 31//78 27//79 25//80
f 32//81 31//82 29//83 30//84
f 30//85 29//86 25//87 26//88
f 28//89 27//90 31//91 32//92
f 27//93 28//94 26//95 25//96
f 41//97 44//98 36//99 35//100
f 35//101 36//102 40//103 39//104
f 45//105 48//106 38//107 37//108
f 37//109 38//110 34//111 33//112
f 42//113 45//114 37//115 33//116
f 48//117 43//118 34//119 38//120
f 40//121 36//122 44//123 47//124
f 35//125 39//126 46//127 41//128
f 39//129 40//130 47//131 46//132
f 43//133 48//134 45//135 42//136
f 33//137 34//138 43//139 42//140
f 44//141 41//142 46//143 47//144
f 56//145 54//146 50//147 52//148
f 53//149 55//150 51//151 49//152
f 56//153 55//154 53//155 54//156
f 54//157 53//158 49//159 50//160
f 52//161 51//162 55//163 56//164
f 51//165 52//166 50//167 49//168
