# Converted from FBX: Cube.045
# Vertices: 24

v -0.500000 -0.500000 -0.085351
v 0.500000 -0.500000 -0.085351
v 0.500000 -0.500000 0.085351
v -0.500000 0.500000 -0.085351
v 0.500000 0.500000 -0.085351
v -0.500000 0.500000 0.085351
v 0.500000 0.500000 0.085351
v -1.000000 1.000000 0.250000
v -1.000000 -1.000000 0.250000
v 1.000000 -1.000000 0.250000
v 1.000000 1.000000 0.250000
v -1.000000 -1.000000 -0.250000
v -1.000000 1.000000 -0.250000
v 1.000000 1.000000 -0.250000
v 1.000000 -1.000000 -0.250000
v -0.500000 0.500000 0.250000
v -0.500000 -0.500000 0.250000
v 0.500000 -0.500000 0.250000
v 0.500000 0.500000 0.250000
v -0.500000 -0.500000 -0.250000
v -0.500000 0.500000 -0.250000
v 0.500000 0.500000 -0.250000
v 0.500000 -0.500000 -0.250000
v -0.500000 -0.500000 0.085351

vn -1.000000 0.000000 -0.000000
vn -1.000000 0.000000 -0.000000
vn -1.000000 0.000000 -0.000000
vn -1.000000 0.000000 -0.000000
vn 1.000000 0.000000 -0.000000
vn 1.000000 0.000000 -0.000000
vn 1.000000 0.000000 -0.000000
vn 1.000000 0.000000 -0.000000
vn 0.000000 1.000000 -0.000000
vn 0.000000 1.000000 -0.000000
vn 0.000000 1.000000 -0.000000
vn 0.000000 1.000000 -0.000000
vn 0.000000 -1.000000 -0.000000
vn 0.000000 -1.000000 -0.000000
vn 0.000000 -1.000000 -0.000000
vn 0.000000 -1.000000 -0.000000
vn 0.000000 0.000000 1.000000
vn 0.000000 0.000000 1.000000
vn 0.000000 0.000000 1.000000
vn 0.000000 0.000000 1.000000
vn 0.000000 -0.000000 1.000000
vn 0.000000 -0.000000 1.000000
vn 0.000000 -0.000000 1.000000
vn 0.000000 -0.000000 1.000000
vn 0.000000 0.000000 -1.000000
vn 0.000000 0.000000 -1.000000
vn 0.000000 0.000000 -1.000000
vn 0.000000 0.000000 -1.000000
vn 0.000000 0.000000 -1.000000
vn 0.000000 0.000000 -1.000000
vn 0.000000 0.000000 -1.000000
vn 0.000000 0.000000 -1.000000
vn 0.000000 0.000000 -1.000000
vn 0.000000 0.000000 -1.000000
vn 0.000000 0.000000 -1.000000
vn 0.000000 0.000000 -1.000000
vn 0.000000 -0.000000 -1.000000
vn 0.000000 -0.000000 -1.000000
vn 0.000000 -0.000000 -1.000000
vn 0.000000 -0.000000 -1.000000
vn 0.000000 0.000000 1.000000
vn 0.000000 0.000000 1.000000
vn 0.000000 0.000000 1.000000
vn 0.000000 0.000000 1.000000
vn 0.000000 0.000000 1.000000
vn 0.000000 0.000000 1.000000
vn 0.000000 0.000000 1.000000
vn 0.000000 0.000000 1.000000
vn 1.000000 0.000000 -0.000000
vn 1.000000 0.000000 -0.000000
vn 1.000000 0.000000 -0.000000
vn 1.000000 0.000000 -0.000000
vn -1.000000 -0.000000 -0.000000
vn -1.000000 -0.000000 -0.000000
vn -1.000000 -0.000000 -0.000000
vn -1.000000 -0.000000 -0.000000
vn 1.000000 0.000000 -0.000000
vn 1.000000 0.000000 -0.000000
vn 1.000000 0.000000 -0.000000
vn 1.000000 0.000000 -0.000000
vn -1.000000 -0.000000 -0.000000
vn -1.000000 -0.000000 -0.000000
vn -1.000000 -0.000000 -0.000000
vn -1.000000 -0.000000 -0.000000
vn -0.000000 1.000000 -0.000000
vn -0.000000 1.000000 -0.000000
vn -0.000000 1.000000 -0.000000
vn -0.000000 1.000000 -0.000000
vn 0.000000 -1.000000 -0.000000
vn 0.000000 -1.000000 -0.000000
vn 0.000000 -1.000000 -0.000000
vn 0.000000 -1.000000 -0.000000
vn 0.000000 -1.000000 -0.000000
vn 0.000000 -1.000000 -0.000000
vn 0.000000 -1.000000 -0.000000
vn 0.000000 -1.000000 -0.000000
vn -0.000000 1.000000 -0.000000
vn -0.000000 1.000000 -0.000000
vn -0.000000 1.000000 -0.000000
vn -0.000000 1.000000 -0.000000
vn 0.000000 -0.000000 -1.000000
vn 0.000000 -0.000000 -1.000000
vn 0.000000 -0.000000 -1.000000
vn 0.000000 -0.000000 -1.000000
vn 0.000000 0.000000 1.000000
vn 0.000000 0.000000 1.000000
vn 0.000000 0.000000 1.000000
vn 0.000000 0.000000 1.000000

f 9//1 8//2 13//3 12//4
f 11//5 10//6 15//7 14//8
f 8//9 11//10 14//11 13//12
f 12//13 15//14 10//15 9//16
f 17//17 16//18 8//19 9//20
f 19//21 18//22 10//23 11//24
f 21//25 20//26 12//27 13//28
f 23//29 22//30 14//31 15//32
f 20//33 23//34 15//35 12//36
f 22//37 21//38 13//39 14//40
f 16//41 19//42 11//43 8//44
f 18//45 17//46 9//47 10//48
f 24//49 6//50 16//51 17//52
f 7//53 3//54 18//55 19//56
f 4//57 1//58 20//59 21//60
f 2//61 5//62 22//63 23//64
f 1//65 2//66 23//67 20//68
f 5//69 4//70 21//71 22//72
f 6//73 7//74 19//75 16//76
f 3//77 24//78 17//79 18//80
f 1//81 4//82 5//83 2//84
f 6//85 24//86 3//87 7//88
