# Converted from FBX: Cube.085
# Vertices: 16

v -1.000000 -1.000000 1.000000
v -0.750000 1.000000 0.750000
v -1.000000 -1.000000 -1.000000
v -0.750000 1.000000 -0.750000
v 1.000000 -1.000000 1.000000
v 0.750000 1.000000 0.750000
v 1.000000 -1.000000 -1.000000
v 0.750000 1.000000 -0.750000
v -1.000000 1.000000 1.000000
v -1.000000 1.000000 -1.000000
v 1.000000 1.000000 -1.000000
v 1.000000 1.000000 1.000000
v -0.750000 0.000000 0.750000
v -0.750000 0.000000 -0.750000
v 0.750000 0.000000 -0.750000
v 0.750000 0.000000 0.750000

vn -1.000000 0.000000 -0.000000
vn -1.000000 0.000000 -0.000000
vn -1.000000 0.000000 -0.000000
vn -1.000000 0.000000 -0.000000
vn 0.000000 0.000000 -1.000000
vn 0.000000 0.000000 -1.000000
vn 0.000000 0.000000 -1.000000
vn 0.000000 0.000000 -1.000000
vn 1.000000 0.000000 -0.000000
vn 1.000000 0.000000 -0.000000
vn 1.000000 0.000000 -0.000000
vn 1.000000 0.000000 -0.000000
vn 0.000000 0.000000 1.000000
vn 0.000000 0.000000 1.000000
vn 0.000000 0.000000 1.000000
vn 0.000000 0.000000 1.000000
vn 0.000000 -1.000000 -0.000000
vn 0.000000 -1.000000 -0.000000
vn 0.000000 -1.000000 -0.000000
vn 0.000000 -1.000000 -0.000000
vn -1.000000 0.000000 -0.000000
vn -1.000000 0.000000 -0.000000
vn -1.000000 0.000000 -0.000000
vn -1.000000 0.000000 -0.000000
vn 0.000000 1.000000 -0.000000
vn 0.000000 1.000000 -0.000000
vn 0.000000 1.000000 -0.000000
vn 0.000000 1.000000 -0.000000
vn 0.000000 1.000000 -0.000000
vn 0.000000 1.000000 -0.000000
vn 0.000000 1.000000 -0.000000
vn 0.000000 1.000000 -0.000000
vn 0.000000 1.000000 -0.000000
vn 0.000000 1.000000 -0.000000
vn 0.000000 1.000000 -0.000000
vn 0.000000 1.000000 -0.000000
vn 0.000000 1.000000 -0.000000
vn 0.000000 1.000000 -0.000000
vn 0.000000 1.000000 -0.000000
vn 0.000000 1.000000 -0.000000
vn 0.000000 1.000000 -0.000000
vn 0.000000 1.000000 -0.000000
vn 0.000000 1.000000 -0.000000
vn 0.000000 1.000000 -0.000000
vn 1.000000 0.000000 -0.000000
vn 1.000000 0.000000 -0.000000
vn 1.000000 0.000000 -0.000000
vn 1.000000 0.000000 -0.000000
vn 0.000000 0.000000 -1.000000
vn 0.000000 0.000000 -1.000000
vn 0.000000 0.000000 -1.000000
vn 0.000000 0.000000 -1.000000
vn 0.000000 0.000000 1.000000
vn 0.000000 0.000000 1.000000
vn 0.000000 0.000000 1.000000
vn 0.000000 0.000000 1.000000

f 1//1 9//2 10//3 3//4
f 3//5 10//6 11//7 7//8
f 7//9 11//10 12//11 5//12
f 5//13 12//14 9//15 1//16
f 3//17 7//18 5//19 1//20
f 6//21 8//22 15//23 16//24
f 2//25 4//26 10//27 9//28
f 4//29 8//30 11//31 10//32
f 8//33 6//34 12//35 11//36
f 6//37 2//38 9//39 12//40
f 15//41 14//42 13//43 16//44
f 4//45 2//46 13//47 14//48
f 2//49 6//50 16//51 13//52
f 8//53 4//54 14//55 15//56
