# Converted from FBX: Cone.001
# Vertices: 33

v 0.000000 -1.000000 -1.000000
v 0.195090 -1.000000 -0.980785
v 0.382683 -1.000000 -0.923880
v 0.555570 -1.000000 -0.831470
v 0.707107 -1.000000 -0.707107
v 0.831470 -1.000000 -0.555570
v 0.923880 -1.000000 -0.382683
v 0.980785 -1.000000 -0.195090
v 1.000000 -1.000000 0.000000
v 0.980785 -1.000000 0.195090
v 0.923880 -1.000000 0.382683
v 0.831470 -1.000000 0.555570
v 0.707107 -1.000000 0.707107
v 0.555570 -1.000000 0.831470
v 0.382683 -1.000000 0.923880
v 0.195090 -1.000000 0.980785
v -0.000000 -1.000000 1.000000
v -0.195090 -1.000000 0.980785
v -0.382683 -1.000000 0.923880
v -0.555570 -1.000000 0.831470
v -0.707107 -1.000000 0.707107
v -0.831469 -1.000000 0.555570
v -0.923880 -1.000000 0.382684
v -0.980785 -1.000000 0.195090
v -1.000000 -1.000000 -0.000000
v -0.980785 -1.000000 -0.195090
v -0.923879 -1.000000 -0.382684
v -0.831470 -1.000000 -0.555570
v -0.707107 -1.000000 -0.707107
v -0.555570 -1.000000 -0.831470
v -0.382683 -1.000000 -0.923880
v -0.195090 -1.000000 -0.980785
v 0.000000 1.000000 -0.000000

vn 0.087754 0.445488 -0.890977
vn 0.087754 0.445488 -0.890977
vn 0.087754 0.445488 -0.890977
vn 0.259888 0.445488 -0.856737
vn 0.259888 0.445488 -0.856737
vn 0.259888 0.445488 -0.856737
vn 0.422036 0.445488 -0.789573
vn 0.422036 0.445488 -0.789573
vn 0.422036 0.445488 -0.789573
vn 0.567965 0.445488 -0.692067
vn 0.567965 0.445488 -0.692067
vn 0.567965 0.445488 -0.692067
vn 0.692067 0.445488 -0.567965
vn 0.692067 0.445488 -0.567965
vn 0.692067 0.445488 -0.567965
vn 0.789573 0.445488 -0.422036
vn 0.789573 0.445488 -0.422036
vn 0.789573 0.445488 -0.422036
vn 0.856737 0.445488 -0.259888
vn 0.856737 0.445488 -0.259888
vn 0.856737 0.445488 -0.259888
vn 0.890977 0.445488 -0.087754
vn 0.890977 0.445488 -0.087754
vn 0.890977 0.445488 -0.087754
vn 0.890977 0.445488 0.087754
vn 0.890977 0.445488 0.087754
vn 0.890977 0.445488 0.087754
vn 0.856737 0.445488 0.259888
vn 0.856737 0.445488 0.259888
vn 0.856737 0.445488 0.259888
vn 0.789573 0.445488 0.422036
vn 0.789573 0.445488 0.422036
vn 0.789573 0.445488 0.422036
vn 0.692067 0.445488 0.567965
vn 0.692067 0.445488 0.567965
vn 0.692067 0.445488 0.567965
vn 0.567965 0.445488 0.692067
vn 0.567965 0.445488 0.692067
vn 0.567965 0.445488 0.692067
vn 0.422036 0.445488 0.789573
vn 0.422036 0.445488 0.789573
vn 0.422036 0.445488 0.789573
vn 0.259888 0.445488 0.856737
vn 0.259888 0.445488 0.856737
vn 0.259888 0.445488 0.856737
vn 0.087753 0.445488 0.890977
vn 0.087753 0.445488 0.890977
vn 0.087753 0.445488 0.890977
vn -0.087753 0.445488 0.890977
vn -0.087753 0.445488 0.890977
vn -0.087753 0.445488 0.890977
vn -0.259888 0.445488 0.856737
vn -0.259888 0.445488 0.856737
vn -0.259888 0.445488 0.856737
vn -0.422036 0.445488 0.789573
vn -0.422036 0.445488 0.789573
vn -0.422036 0.445488 0.789573
vn -0.567965 0.445488 0.692067
vn -0.567965 0.445488 0.692067
vn -0.567965 0.445488 0.692067
vn -0.692067 0.445488 0.567965
vn -0.692067 0.445488 0.567965
vn -0.692067 0.445488 0.567965
vn -0.789573 0.445488 0.422036
vn -0.789573 0.445488 0.422036
vn -0.789573 0.445488 0.422036
vn -0.856737 0.445488 0.259888
vn -0.856737 0.445488 0.259888
vn -0.856737 0.445488 0.259888
vn -0.890977 0.445488 0.087754
vn -0.890977 0.445488 0.087754
vn -0.890977 0.445488 0.087754
vn -0.890977 0.445488 -0.087754
vn -0.890977 0.445488 -0.087754
vn -0.890977 0.445488 -0.087754
vn -0.856737 0.445488 -0.259888
vn -0.856737 0.445488 -0.259888
vn -0.856737 0.445488 -0.259888
vn -0.789573 0.445488 -0.422036
vn -0.789573 0.445488 -0.422036
vn -0.789573 0.445488 -0.422036
vn -0.692067 0.445488 -0.567964
vn -0.692067 0.445488 -0.567964
vn -0.692067 0.445488 -0.567964
vn -0.567965 0.445488 -0.692067
vn -0.567965 0.445488 -0.692067
vn -0.567965 0.445488 -0.692067
vn -0.422036 0.445488 -0.789573
vn -0.422036 0.445488 -0.789573
vn -0.422036 0.445488 -0.789573
vn 0.000000 -1.000000 -0.000000
vn 0.000000 -1.000000 -0.000000
vn 0.000000 -1.000000 -0.000000
vn 0.000000 -1.000000 -0.000000
vn 0.000000 -1.000000 -0.000000
vn 0.000000 -1.000000 -0.000000
vn 0.000000 -1.000000 -0.000000
vn 0.000000 -1.000000 -0.000000
vn 0.000000 -1.000000 -0.000000
vn 0.000000 -1.000000 -0.000000
vn 0.000000 -1.000000 -0.000000
vn 0.000000 -1.000000 -0.000000
vn 0.000000 -1.000000 -0.000000
vn 0.000000 -1.000000 -0.000000
vn 0.000000 -1.000000 -0.000000
vn 0.000000 -1.000000 -0.000000
vn 0.000000 -1.000000 -0.000000
vn 0.000000 -1.000000 -0.000000
vn 0.000000 -1.000000 -0.000000
vn 0.000000 -1.000000 -0.000000
vn 0.000000 -1.000000 -0.000000
vn 0.000000 -1.000000 -0.000000
vn 0.000000 -1.000000 -0.000000
vn 0.000000 -1.000000 -0.000000
vn 0.000000 -1.000000 -0.000000
vn 0.000000 -1.000000 -0.000000
vn 0.000000 -1.000000 -0.000000
vn 0.000000 -1.000000 -0.000000
vn 0.000000 -1.000000 -0.000000
vn 0.000000 -1.000000 -0.000000
vn 0.000000 -1.000000 -0.000000
vn 0.000000 -1.000000 -0.000000
vn -0.259888 0.445488 -0.856737
vn -0.259888 0.445488 -0.856737
vn -0.259888 0.445488 -0.856737
vn -0.087753 0.445488 -0.890977
vn -0.087753 0.445488 -0.890977
vn -0.087753 0.445488 -0.890977

f 1//1 33//2 2//3
f 2//4 33//5 3//6
f 3//7 33//8 4//9
f 4//10 33//11 5//12
f 5//13 33//14 6//15
f 6//16 33//17 7//18
f 7//19 33//20 8//21
f 8//22 33//23 9//24
f 9//25 33//26 10//27
f 10//28 33//29 11//30
f 11//31 33//32 12//33
f 12//34 33//35 13//36
f 13//37 33//38 14//39
f 14//40 33//41 15//42
f 15//43 33//44 16//45
f 16//46 33//47 17//48
f 17//49 33//50 18//51
f 18//52 33//53 19//54
f 19//55 33//56 20//57
f 20//58 33//59 21//60
f 21//61 33//62 22//63
f 22//64 33//65 23//66
f 23//67 33//68 24//69
f 24//70 33//71 25//72
f 25//73 33//74 26//75
f 26//76 33//77 27//78
f 27//79 33//80 28//81
f 28//82 33//83 29//84
f 29//85 33//86 30//87
f 30//88 33//89 31//90
f 1//91 2//92 3//93 4//94 5//95 6//96 7//97 8//98 9//99 10//100 11//101 12//102 13//103 14//104 15//105 16//106 17//107 18//108 19//109 20//110 21//111 22//112 23//113 24//114 25//115 26//116 27//117 28//118 29//119 30//120 31//121 32//122
f 31//123 33//124 32//125
f 32//126 33//127 1//128
