# Converted from FBX: Torus
# Vertices: 36

v 1.000000 0.000000 -0.000000
v 0.900000 0.173205 -0.000000
v 0.700000 0.173205 -0.000000
v 0.600000 0.000000 -0.000000
v 0.700000 -0.173205 -0.000000
v 0.900000 -0.173205 -0.000000
v 0.500000 0.000000 -0.866025
v 0.450000 0.173205 -0.779423
v 0.350000 0.173205 -0.606218
v 0.300000 0.000000 -0.519615
v 0.350000 -0.173205 -0.606218
v 0.450000 -0.173205 -0.779423
v -0.500000 0.000000 -0.866026
v -0.450000 0.173205 -0.779423
v -0.350000 0.173205 -0.606218
v -0.300000 0.000000 -0.519615
v -0.350000 -0.173205 -0.606218
v -0.450000 -0.173205 -0.779423
v -1.000000 0.000000 -0.000000
v -0.900000 0.173205 -0.000000
v -0.700000 0.173205 -0.000000
v -0.600000 0.000000 -0.000000
v -0.700000 -0.173205 -0.000000
v -0.900000 -0.173205 -0.000000
v -0.500000 0.000000 0.866026
v -0.450000 0.173205 0.779423
v -0.350000 0.173205 0.606218
v -0.300000 0.000000 0.519615
v -0.350000 -0.173205 0.606218
v -0.450000 -0.173205 0.779423
v 0.500000 0.000000 0.866025
v 0.450000 0.173205 0.779423
v 0.350000 0.173205 0.606218
v 0.300000 0.000000 0.519615
v 0.350000 -0.173205 0.606218
v 0.450000 -0.173205 0.779423

vn 0.774597 0.447214 -0.447214
vn 0.774597 0.447214 -0.447214
vn 0.774597 0.447214 -0.447214
vn 0.774597 0.447214 -0.447214
vn 0.000000 1.000000 -0.000000
vn 0.000000 1.000000 -0.000000
vn 0.000000 1.000000 -0.000000
vn 0.000000 1.000000 -0.000000
vn -0.774597 0.447214 0.447214
vn -0.774597 0.447214 0.447214
vn -0.774597 0.447214 0.447214
vn -0.774597 0.447214 0.447214
vn -0.774597 -0.447214 0.447214
vn -0.774597 -0.447214 0.447214
vn -0.774597 -0.447214 0.447214
vn -0.774597 -0.447214 0.447214
vn 0.000000 -1.000000 -0.000000
vn 0.000000 -1.000000 -0.000000
vn 0.000000 -1.000000 -0.000000
vn 0.000000 -1.000000 -0.000000
vn 0.774597 -0.447214 -0.447214
vn 0.774597 -0.447214 -0.447214
vn 0.774597 -0.447214 -0.447214
vn 0.774597 -0.447214 -0.447214
vn 0.000000 0.447214 -0.894427
vn 0.000000 0.447214 -0.894427
vn 0.000000 0.447214 -0.894427
vn 0.000000 0.447214 -0.894427
vn 0.000000 1.000000 -0.000000
vn 0.000000 1.000000 -0.000000
vn 0.000000 1.000000 -0.000000
vn 0.000000 1.000000 -0.000000
vn -0.000000 0.447214 0.894427
vn -0.000000 0.447214 0.894427
vn -0.000000 0.447214 0.894427
vn -0.000000 0.447214 0.894427
vn -0.000000 -0.447214 0.894427
vn -0.000000 -0.447214 0.894427
vn -0.000000 -0.447214 0.894427
vn -0.000000 -0.447214 0.894427
vn -0.000000 -1.000000 -0.000000
vn -0.000000 -1.000000 -0.000000
vn -0.000000 -1.000000 -0.000000
vn -0.000000 -1.000000 -0.000000
vn 0.000000 -0.447214 -0.894427
vn 0.000000 -0.447214 -0.894427
vn 0.000000 -0.447214 -0.894427
vn 0.000000 -0.447214 -0.894427
vn -0.774597 0.447214 -0.447214
vn -0.774597 0.447214 -0.447214
vn -0.774597 0.447214 -0.447214
vn -0.774597 0.447214 -0.447214
vn 0.000000 1.000000 -0.000000
vn 0.000000 1.000000 -0.000000
vn 0.000000 1.000000 -0.000000
vn 0.000000 1.000000 -0.000000
vn 0.774597 0.447214 0.447214
vn 0.774597 0.447214 0.447214
vn 0.774597 0.447214 0.447214
vn 0.774597 0.447214 0.447214
vn 0.774597 -0.447214 0.447214
vn 0.774597 -0.447214 0.447214
vn 0.774597 -0.447214 0.447214
vn 0.774597 -0.447214 0.447214
vn 0.000000 -1.000000 -0.000000
vn 0.000000 -1.000000 -0.000000
vn 0.000000 -1.000000 -0.000000
vn 0.000000 -1.000000 -0.000000
vn -0.774597 -0.447214 -0.447214
vn -0.774597 -0.447214 -0.447214
vn -0.774597 -0.447214 -0.447214
vn -0.774597 -0.447214 -0.447214
vn -0.774597 0.447214 0.447214
vn -0.774597 0.447214 0.447214
vn -0.774597 0.447214 0.447214
vn -0.774597 0.447214 0.447214
vn 0.000000 1.000000 -0.000000
vn 0.000000 1.000000 -0.000000
vn 0.000000 1.000000 -0.000000
vn 0.000000 1.000000 -0.000000
vn 0.774597 0.447214 -0.447214
vn 0.774597 0.447214 -0.447214
vn 0.774597 0.447214 -0.447214
vn 0.774597 0.447214 -0.447214
vn 0.774597 -0.447214 -0.447214
vn 0.774597 -0.447214 -0.447214
vn 0.774597 -0.447214 -0.447214
vn 0.774597 -0.447214 -0.447214
vn 0.000000 -1.000000 -0.000000
vn 0.000000 -1.000000 -0.000000
vn 0.000000 -1.000000 -0.000000
vn 0.000000 -1.000000 -0.000000
vn -0.774597 -0.447214 0.447214
vn -0.774597 -0.447214 0.447214
vn -0.774597 -0.447214 0.447214
vn -0.774597 -0.447214 0.447214
vn 0.000000 0.447214 0.894427
vn 0.000000 0.447214 0.894427
vn 0.000000 0.447214 0.894427
vn 0.000000 0.447214 0.894427
vn 0.000000 1.000000 -0.000000
vn 0.000000 1.000000 -0.000000
vn 0.000000 1.000000 -0.000000
vn 0.000000 1.000000 -0.000000
vn -0.000000 0.447214 -0.894427
vn -0.000000 0.447214 -0.894427
vn -0.000000 0.447214 -0.894427
vn -0.000000 0.447214 -0.894427
vn -0.000000 -0.447214 -0.894427
vn -0.000000 -0.447214 -0.894427
vn -0.000000 -0.447214 -0.894427
vn -0.000000 -0.447214 -0.894427
vn -0.000000 -1.000000 -0.000000
vn -0.000000 -1.000000 -0.000000
vn -0.000000 -1.000000 -0.000000
vn -0.000000 -1.000000 -0.000000
vn 0.000000 -0.447214 0.894427
vn 0.000000 -0.447214 0.894427
vn 0.000000 -0.447214 0.894427
vn 0.000000 -0.447214 0.894427
vn 0.774597 0.447214 0.447214
vn 0.774597 0.447214 0.447214
vn 0.774597 0.447214 0.447214
vn 0.774597 0.447214 0.447214
vn 0.000000 1.000000 -0.000000
vn 0.000000 1.000000 -0.000000
vn 0.000000 1.000000 -0.000000
vn 0.000000 1.000000 -0.000000
vn -0.774597 0.447214 -0.447214
vn -0.774597 0.447214 -0.447214
vn -0.774597 0.447214 -0.447214
vn -0.774597 0.447214 -0.447214
vn -0.774597 -0.447214 -0.447214
vn -0.774597 -0.447214 -0.447214
vn -0.774597 -0.447214 -0.447214
vn -0.774597 -0.447214 -0.447214
vn 0.000000 -1.000000 -0.000000
vn 0.000000 -1.000000 -0.000000
vn 0.000000 -1.000000 -0.000000
vn 0.000000 -1.000000 -0.000000
vn 0.774597 -0.447214 0.447214
vn 0.774597 -0.447214 0.447214
vn 0.774597 -0.447214 0.447214
vn 0.774597 -0.447214 0.447214

f 1//1 7//2 8//3 2//4
f 2//5 8//6 9//7 3//8
f 3//9 9//10 10//11 4//12
f 4//13 10//14 11//15 5//16
f 5//17 11//18 12//19 6//20
f 6//21 12//22 7//23 1//24
f 7//25 13//26 14//27 8//28
f 8//29 14//30 15//31 9//32
f 9//33 15//34 16//35 10//36
f 10//37 16//38 17//39 11//40
f 11//41 17//42 18//43 12//44
f 12//45 18//46 13//47 7//48
f 13//49 19//50 20//51 14//52
f 14//53 20//54 21//55 15//56
f 15//57 21//58 22//59 16//60
f 16//61 22//62 23//63 17//64
f 17//65 23//66 24//67 18//68
f 18//69 24//70 19//71 13//72
f 19//73 25//74 26//75 20//76
f 20//77 26//78 27//79 21//80
f 21//81 27//82 28//83 22//84
f 22//85 28//86 29//87 23//88
f 23//89 29//90 30//91 24//92
f 24//93 30//94 25//95 19//96
f 25//97 31//98 32//99 26//100
f 26//101 32//102 33//103 27//104
f 27//105 33//106 34//107 28//108
f 28//109 34//110 35//111 29//112
f 29//113 35//114 36//115 30//116
f 30//117 36//118 31//119 25//120
f 31//121 1//122 2//123 32//124
f 32//125 2//126 3//127 33//128
f 33//129 3//130 4//131 34//132
f 34//133 4//134 5//135 35//136
f 35//137 5//138 6//139 36//140
f 36//141 6//142 1//143 31//144
