# Converted from FBX: Cylinder.082
# Vertices: 108

v -1.000000 -0.500000 -1.000000
v -1.000000 -0.296999 -1.000000
v -0.245000 -0.373854 -0.936080
v -0.245000 0.373854 -0.936080
v -0.192103 -0.373854 -0.905540
v -0.192103 0.373854 -0.905540
v -0.192103 -0.373854 -0.844460
v -0.192103 0.373854 -0.844460
v -0.245000 -0.373854 -0.813920
v -0.245000 0.373854 -0.813920
v -0.297897 -0.373854 -0.844460
v -0.297897 0.373854 -0.844460
v -0.297897 -0.373854 -0.905540
v -0.297897 0.373854 -0.905540
v 0.255000 -0.373854 -0.936080
v 0.255000 0.373854 -0.936080
v 0.307897 -0.373854 -0.905540
v 0.307897 0.373854 -0.905540
v 0.307897 -0.373854 -0.844460
v 0.307897 0.373854 -0.844460
v 0.255000 -0.373854 -0.813920
v 0.255000 0.373854 -0.813920
v 0.202103 -0.373854 -0.844460
v 0.202103 0.373854 -0.844460
v 0.202103 -0.373854 -0.905540
v 0.202103 0.373854 -0.905540
v 0.755000 -0.373854 -0.936080
v 0.755000 0.373854 -0.936080
v 0.807897 -0.373854 -0.905540
v 0.807897 0.373854 -0.905540
v 0.807897 -0.373854 -0.844460
v 0.807897 0.373854 -0.844460
v 0.755000 -0.373854 -0.813920
v 0.755000 0.373854 -0.813920
v 0.702103 -0.373854 -0.844460
v 0.702103 0.373854 -0.844460
v 0.702103 -0.373854 -0.905540
v 0.702103 0.373854 -0.905540
v 1.000000 -0.500000 -1.000000
v 1.000000 -0.500000 -0.750000
v 1.000000 0.500000 -1.000000
v 1.000000 0.500000 -0.750000
v 1.000000 -0.296999 -1.000000
v 1.000000 0.296999 -1.000000
v 1.000000 0.296999 -0.750000
v 1.000000 -0.296999 -0.750000
v -0.750000 0.500000 -0.750000
v -0.750000 0.296999 -0.750000
v -0.750000 -0.500000 -0.745000
v -0.750000 -0.296999 -0.745000
v -0.813920 -0.373854 -0.870000
v -0.813920 0.373854 -0.870000
v -0.844460 -0.373854 -0.817103
v -0.844460 0.373854 -0.817103
v -0.905540 -0.373854 -0.817103
v -0.905540 0.373854 -0.817103
v -0.936080 -0.373854 -0.870000
v -0.936080 0.373854 -0.870000
v -0.905540 -0.373854 -0.922897
v -0.905540 0.373854 -0.922897
v -0.844460 -0.373854 -0.922897
v -0.844460 0.373854 -0.922897
v -0.813920 -0.373854 -0.245000
v -0.813920 0.373854 -0.245000
v -0.844460 -0.373854 -0.192103
v -0.844460 0.373854 -0.192103
v -0.905540 -0.373854 -0.192103
v -0.905540 0.373854 -0.192103
v -0.936080 -0.373854 -0.245000
v -0.936080 0.373854 -0.245000
v -0.905540 -0.373854 -0.297897
v -0.905540 0.373854 -0.297897
v -0.844460 -0.373854 -0.297897
v -0.844460 0.373854 -0.297897
v -0.813920 -0.373854 0.255000
v -0.813920 0.373854 0.255000
v -0.844460 -0.373854 0.307897
v -0.844460 0.373854 0.307897
v -0.905540 -0.373854 0.307897
v -0.905540 0.373854 0.307897
v -0.936080 -0.373854 0.255000
v -0.936080 0.373854 0.255000
v -0.905540 -0.373854 0.202103
v -0.905540 0.373854 0.202103
v -0.844460 -0.373854 0.202103
v -0.844460 0.373854 0.202103
v -0.813920 -0.373854 0.755000
v -0.813920 0.373854 0.755000
v -0.844460 -0.373854 0.807897
v -0.844460 0.373854 0.807897
v -0.905540 -0.373854 0.807897
v -0.905540 0.373854 0.807897
v -0.936080 -0.373854 0.755000
v -0.936080 0.373854 0.755000
v -0.905540 -0.373854 0.702103
v -0.905540 0.373854 0.702103
v -0.844460 -0.373854 0.702103
v -0.844460 0.373854 0.702103
v -0.750000 -0.500000 1.000000
v -1.000000 -0.500000 1.000000
v -0.750000 0.500000 1.000000
v -1.000000 0.500000 1.000000
v -0.750000 -0.296999 1.000000
v -0.750000 0.296999 1.000000
v -1.000000 0.296999 1.000000
v -1.000000 -0.296999 1.000000
v -1.000000 0.296999 -1.000000
v -1.000000 0.500000 -1.000000

vn 0.500000 0.000000 -0.866025
vn 0.500000 0.000000 -0.866025
vn 0.500000 0.000000 -0.866025
vn 0.500000 0.000000 -0.866025
vn 1.000000 0.000000 -0.000000
vn 1.000000 0.000000 -0.000000
vn 1.000000 0.000000 -0.000000
vn 1.000000 0.000000 -0.000000
vn 0.500001 0.000000 0.866025
vn 0.500001 0.000000 0.866025
vn 0.500001 0.000000 0.866025
vn 0.500001 0.000000 0.866025
vn -0.500000 0.000000 0.866025
vn -0.500000 0.000000 0.866025
vn -0.500000 0.000000 0.866025
vn -0.500000 0.000000 0.866025
vn -0.000000 1.000000 -0.000000
vn -0.000000 1.000000 -0.000000
vn -0.000000 1.000000 -0.000000
vn -0.000000 1.000000 -0.000000
vn -0.000000 1.000000 -0.000000
vn -0.000000 1.000000 -0.000000
vn -1.000000 0.000000 -0.000000
vn -1.000000 0.000000 -0.000000
vn -1.000000 0.000000 -0.000000
vn -1.000000 0.000000 -0.000000
vn -0.500000 0.000000 -0.866025
vn -0.500000 0.000000 -0.866025
vn -0.500000 0.000000 -0.866025
vn -0.500000 0.000000 -0.866025
vn 0.000000 -1.000000 -0.000000
vn 0.000000 -1.000000 -0.000000
vn 0.000000 -1.000000 -0.000000
vn 0.000000 -1.000000 -0.000000
vn 0.000000 -1.000000 -0.000000
vn 0.000000 -1.000000 -0.000000
vn 0.500000 0.000000 -0.866026
vn 0.500000 0.000000 -0.866026
vn 0.500000 0.000000 -0.866026
vn 0.500000 0.000000 -0.866026
vn 1.000000 0.000000 -0.000000
vn 1.000000 0.000000 -0.000000
vn 1.000000 0.000000 -0.000000
vn 1.000000 0.000000 -0.000000
vn 0.500000 0.000000 0.866025
vn 0.500000 0.000000 0.866025
vn 0.500000 0.000000 0.866025
vn 0.500000 0.000000 0.866025
vn -0.500001 0.000000 0.866025
vn -0.500001 0.000000 0.866025
vn -0.500001 0.000000 0.866025
vn -0.500001 0.000000 0.866025
vn -0.000000 1.000000 -0.000000
vn -0.000000 1.000000 -0.000000
vn -0.000000 1.000000 -0.000000
vn -0.000000 1.000000 -0.000000
vn -0.000000 1.000000 -0.000000
vn -0.000000 1.000000 -0.000000
vn -1.000000 0.000000 -0.000000
vn -1.000000 0.000000 -0.000000
vn -1.000000 0.000000 -0.000000
vn -1.000000 0.000000 -0.000000
vn -0.500001 0.000000 -0.866025
vn -0.500001 0.000000 -0.866025
vn -0.500001 0.000000 -0.866025
vn -0.500001 0.000000 -0.866025
vn 0.000000 -1.000000 -0.000000
vn 0.000000 -1.000000 -0.000000
vn 0.000000 -1.000000 -0.000000
vn 0.000000 -1.000000 -0.000000
vn 0.000000 -1.000000 -0.000000
vn 0.000000 -1.000000 -0.000000
vn 0.499999 0.000000 -0.866026
vn 0.499999 0.000000 -0.866026
vn 0.499999 0.000000 -0.866026
vn 0.499999 0.000000 -0.866026
vn 1.000000 0.000000 -0.000000
vn 1.000000 0.000000 -0.000000
vn 1.000000 0.000000 -0.000000
vn 1.000000 0.000000 -0.000000
vn 0.499999 0.000000 0.866026
vn 0.499999 0.000000 0.866026
vn 0.499999 0.000000 0.866026
vn 0.499999 0.000000 0.866026
vn -0.500001 0.000000 0.866025
vn -0.500001 0.000000 0.866025
vn -0.500001 0.000000 0.866025
vn -0.500001 0.000000 0.866025
vn -0.000000 1.000000 -0.000000
vn -0.000000 1.000000 -0.000000
vn -0.000000 1.000000 -0.000000
vn -0.000000 1.000000 -0.000000
vn -0.000000 1.000000 -0.000000
vn -0.000000 1.000000 -0.000000
vn -1.000000 0.000000 -0.000000
vn -1.000000 0.000000 -0.000000
vn -1.000000 0.000000 -0.000000
vn -1.000000 0.000000 -0.000000
vn -0.500001 0.000000 -0.866025
vn -0.500001 0.000000 -0.866025
vn -0.500001 0.000000 -0.866025
vn -0.500001 0.000000 -0.866025
vn 0.000000 -1.000000 -0.000000
vn 0.000000 -1.000000 -0.000000
vn 0.000000 -1.000000 -0.000000
vn 0.000000 -1.000000 -0.000000
vn 0.000000 -1.000000 -0.000000
vn 0.000000 -1.000000 -0.000000
vn 0.000000 1.000000 -0.000000
vn 0.000000 1.000000 -0.000000
vn 0.000000 1.000000 -0.000000
vn 0.000000 1.000000 -0.000000
vn 1.000000 0.000000 -0.000000
vn 1.000000 0.000000 -0.000000
vn 1.000000 0.000000 -0.000000
vn 1.000000 0.000000 -0.000000
vn 0.000000 0.000000 -1.000000
vn 0.000000 0.000000 -1.000000
vn 0.000000 0.000000 -1.000000
vn 0.000000 0.000000 -1.000000
vn 0.000000 0.000000 -1.000000
vn 0.000000 0.000000 -1.000000
vn 0.000000 0.000000 -1.000000
vn 0.000000 0.000000 -1.000000
vn 1.000000 0.000000 -0.000000
vn 1.000000 0.000000 -0.000000
vn 1.000000 0.000000 -0.000000
vn 1.000000 0.000000 -0.000000
vn -0.000000 1.000000 0.000000
vn -0.000000 1.000000 0.000000
vn -0.000000 1.000000 0.000000
vn -0.000000 1.000000 0.000000
vn 0.000000 -1.000000 -0.000000
vn 0.000000 -1.000000 -0.000000
vn 0.000000 -1.000000 -0.000000
vn 0.000000 -1.000000 -0.000000
vn 0.000000 -0.000000 1.000000
vn 0.000000 -0.000000 1.000000
vn 0.000000 -0.000000 1.000000
vn 0.000000 -0.000000 1.000000
vn 0.002857 -0.000000 0.999996
vn 0.002857 -0.000000 0.999996
vn 0.002857 -0.000000 0.999996
vn 0.002857 -0.000000 0.999996
vn 0.000000 -1.000000 -0.000000
vn 0.000000 -1.000000 -0.000000
vn 0.000000 -1.000000 -0.000000
vn 0.000000 -1.000000 -0.000000
vn 0.866026 0.000000 0.499999
vn 0.866026 0.000000 0.499999
vn 0.866026 0.000000 0.499999
vn 0.866026 0.000000 0.499999
vn 0.000000 0.000000 1.000000
vn 0.000000 0.000000 1.000000
vn 0.000000 0.000000 1.000000
vn 0.000000 0.000000 1.000000
vn -0.866026 0.000000 0.499999
vn -0.866026 0.000000 0.499999
vn -0.866026 0.000000 0.499999
vn -0.866026 0.000000 0.499999
vn -0.866025 0.000000 -0.500000
vn -0.866025 0.000000 -0.500000
vn -0.866025 0.000000 -0.500000
vn -0.866025 0.000000 -0.500000
vn 0.000000 1.000000 -0.000000
vn 0.000000 1.000000 -0.000000
vn 0.000000 1.000000 -0.000000
vn 0.000000 1.000000 -0.000000
vn 0.000000 1.000000 -0.000000
vn 0.000000 1.000000 -0.000000
vn 0.000000 0.000000 -1.000000
vn 0.000000 0.000000 -1.000000
vn 0.000000 0.000000 -1.000000
vn 0.000000 0.000000 -1.000000
vn 0.866025 0.000000 -0.500001
vn 0.866025 0.000000 -0.500001
vn 0.866025 0.000000 -0.500001
vn 0.866025 0.000000 -0.500001
vn 0.000000 -1.000000 -0.000000
vn 0.000000 -1.000000 -0.000000
vn 0.000000 -1.000000 -0.000000
vn 0.000000 -1.000000 -0.000000
vn 0.000000 -1.000000 -0.000000
vn 0.000000 -1.000000 -0.000000
vn 0.866026 0.000000 0.500000
vn 0.866026 0.000000 0.500000
vn 0.866026 0.000000 0.500000
vn 0.866026 0.000000 0.500000
vn 0.000000 0.000000 1.000000
vn 0.000000 0.000000 1.000000
vn 0.000000 0.000000 1.000000
vn 0.000000 0.000000 1.000000
vn -0.866025 0.000000 0.500000
vn -0.866025 0.000000 0.500000
vn -0.866025 0.000000 0.500000
vn -0.866025 0.000000 0.500000
vn -0.866025 0.000000 -0.500000
vn -0.866025 0.000000 -0.500000
vn -0.866025 0.000000 -0.500000
vn -0.866025 0.000000 -0.500000
vn 0.000000 1.000000 -0.000000
vn 0.000000 1.000000 -0.000000
vn 0.000000 1.000000 -0.000000
vn 0.000000 1.000000 -0.000000
vn 0.000000 1.000000 -0.000000
vn 0.000000 1.000000 -0.000000
vn 0.000000 0.000000 -1.000000
vn 0.000000 0.000000 -1.000000
vn 0.000000 0.000000 -1.000000
vn 0.000000 0.000000 -1.000000
vn 0.866025 0.000000 -0.500000
vn 0.866025 0.000000 -0.500000
vn 0.866025 0.000000 -0.500000
vn 0.866025 0.000000 -0.500000
vn 0.000000 -1.000000 -0.000000
vn 0.000000 -1.000000 -0.000000
vn 0.000000 -1.000000 -0.000000
vn 0.000000 -1.000000 -0.000000
vn 0.000000 -1.000000 -0.000000
vn 0.000000 -1.000000 -0.000000
vn 0.866026 0.000000 0.500000
vn 0.866026 0.000000 0.500000
vn 0.866026 0.000000 0.500000
vn 0.866026 0.000000 0.500000
vn 0.000000 0.000000 1.000000
vn 0.000000 0.000000 1.000000
vn 0.000000 0.000000 1.000000
vn 0.000000 0.000000 1.000000
vn -0.866026 0.000000 0.500000
vn -0.866026 0.000000 0.500000
vn -0.866026 0.000000 0.500000
vn -0.866026 0.000000 0.500000
vn -0.866025 0.000000 -0.500000
vn -0.866025 0.000000 -0.500000
vn -0.866025 0.000000 -0.500000
vn -0.866025 0.000000 -0.500000
vn 0.000000 1.000000 -0.000000
vn 0.000000 1.000000 -0.000000
vn 0.000000 1.000000 -0.000000
vn 0.000000 1.000000 -0.000000
vn 0.000000 1.000000 -0.000000
vn 0.000000 1.000000 -0.000000
vn 0.000000 0.000000 -1.000000
vn 0.000000 0.000000 -1.000000
vn 0.000000 0.000000 -1.000000
vn 0.000000 0.000000 -1.000000
vn 0.866025 0.000000 -0.500000
vn 0.866025 0.000000 -0.500000
vn 0.866025 0.000000 -0.500000
vn 0.866025 0.000000 -0.500000
vn 0.000000 -1.000000 -0.000000
vn 0.000000 -1.000000 -0.000000
vn 0.000000 -1.000000 -0.000000
vn 0.000000 -1.000000 -0.000000
vn 0.000000 -1.000000 -0.000000
vn 0.000000 -1.000000 -0.000000
vn 0.866026 0.000000 0.499999
vn 0.866026 0.000000 0.499999
vn 0.866026 0.000000 0.499999
vn 0.866026 0.000000 0.499999
vn 0.000000 0.000000 1.000000
vn 0.000000 0.000000 1.000000
vn 0.000000 0.000000 1.000000
vn 0.000000 0.000000 1.000000
vn -0.866026 0.000000 0.500000
vn -0.866026 0.000000 0.500000
vn -0.866026 0.000000 0.500000
vn -0.866026 0.000000 0.500000
vn -0.866025 0.000000 -0.500000
vn -0.866025 0.000000 -0.500000
vn -0.866025 0.000000 -0.500000
vn -0.866025 0.000000 -0.500000
vn 0.000000 1.000000 -0.000000
vn 0.000000 1.000000 -0.000000
vn 0.000000 1.000000 -0.000000
vn 0.000000 1.000000 -0.000000
vn 0.000000 1.000000 -0.000000
vn 0.000000 1.000000 -0.000000
vn 0.000000 0.000000 -1.000000
vn 0.000000 0.000000 -1.000000
vn 0.000000 0.000000 -1.000000
vn 0.000000 0.000000 -1.000000
vn 0.866025 0.000000 -0.500001
vn 0.866025 0.000000 -0.500001
vn 0.866025 0.000000 -0.500001
vn 0.866025 0.000000 -0.500001
vn 0.000000 -1.000000 -0.000000
vn 0.000000 -1.000000 -0.000000
vn 0.000000 -1.000000 -0.000000
vn 0.000000 -1.000000 -0.000000
vn 0.000000 -1.000000 -0.000000
vn 0.000000 -1.000000 -0.000000
vn 0.000000 1.000000 -0.000000
vn 0.000000 1.000000 -0.000000
vn 0.000000 1.000000 -0.000000
vn 0.000000 1.000000 -0.000000
vn 0.000000 0.000000 1.000000
vn 0.000000 0.000000 1.000000
vn 0.000000 0.000000 1.000000
vn 0.000000 0.000000 1.000000
vn 1.000000 0.000000 -0.000000
vn 1.000000 0.000000 -0.000000
vn 1.000000 0.000000 -0.000000
vn 1.000000 0.000000 -0.000000
vn 1.000000 0.000000 -0.000000
vn 1.000000 0.000000 -0.000000
vn 1.000000 0.000000 -0.000000
vn 1.000000 0.000000 -0.000000
vn 0.000000 0.000000 1.000000
vn 0.000000 0.000000 1.000000
vn 0.000000 0.000000 1.000000
vn 0.000000 0.000000 1.000000
vn -0.000000 1.000000 0.000000
vn -0.000000 1.000000 0.000000
vn -0.000000 1.000000 0.000000
vn -0.000000 1.000000 0.000000
vn 0.000000 -1.000000 -0.000000
vn 0.000000 -1.000000 -0.000000
vn 0.000000 -1.000000 -0.000000
vn 0.000000 -1.000000 -0.000000
vn -1.000000 -0.000000 0.000000
vn -1.000000 -0.000000 0.000000
vn -1.000000 -0.000000 0.000000
vn -1.000000 -0.000000 0.000000
vn -1.000000 0.000000 0.000000
vn -1.000000 0.000000 0.000000
vn -1.000000 0.000000 0.000000
vn -1.000000 0.000000 0.000000
vn 0.000000 -1.000000 -0.000000
vn 0.000000 -1.000000 -0.000000
vn 0.000000 -1.000000 -0.000000
vn 0.000000 -1.000000 -0.000000

f 3//1 4//2 6//3 5//4
f 5//5 6//6 8//7 7//8
f 7//9 8//10 10//11 9//12
f 9//13 10//14 12//15 11//16
f 6//17 4//18 14//19 12//20 10//21 8//22
f 11//23 12//24 14//25 13//26
f 13//27 14//28 4//29 3//30
f 3//31 5//32 7//33 9//34 11//35 13//36
f 15//37 16//38 18//39 17//40
f 17//41 18//42 20//43 19//44
f 19//45 20//46 22//47 21//48
f 21//49 22//50 24//51 23//52
f 18//53 16//54 26//55 24//56 22//57 20//58
f 23//59 24//60 26//61 25//62
f 25//63 26//64 16//65 15//66
f 15//67 17//68 19//69 21//70 23//71 25//72
f 27//73 28//74 30//75 29//76
f 29//77 30//78 32//79 31//80
f 31//81 32//82 34//83 33//84
f 33//85 34//86 36//87 35//88
f 30//89 28//90 38//91 36//92 34//93 32//94
f 35//95 36//96 38//97 37//98
f 37//99 38//100 28//101 27//102
f 27//103 29//104 31//105 33//106 35//107 37//108
f 108//109 47//110 42//111 41//112
f 43//113 46//114 40//115 39//116
f 2//117 43//118 39//119 1//120
f 108//121 41//122 44//123 107//124
f 41//125 42//126 45//127 44//128
f 50//129 46//130 43//131 2//132
f 48//133 107//134 44//135 45//136
f 42//137 47//138 48//139 45//140
f 46//141 50//142 49//143 40//144
f 39//145 40//146 49//147 1//148
f 51//149 52//150 54//151 53//152
f 53//153 54//154 56//155 55//156
f 55//157 56//158 58//159 57//160
f 57//161 58//162 60//163 59//164
f 54//165 52//166 62//167 60//168 58//169 56//170
f 59//171 60//172 62//173 61//174
f 61//175 62//176 52//177 51//178
f 51//179 53//180 55//181 57//182 59//183 61//184
f 63//185 64//186 66//187 65//188
f 65//189 66//190 68//191 67//192
f 67//193 68//194 70//195 69//196
f 69//197 70//198 72//199 71//200
f 66//201 64//202 74//203 72//204 70//205 68//206
f 71//207 72//208 74//209 73//210
f 73//211 74//212 64//213 63//214
f 63//215 65//216 67//217 69//218 71//219 73//220
f 75//221 76//222 78//223 77//224
f 77//225 78//226 80//227 79//228
f 79//229 80//230 82//231 81//232
f 81//233 82//234 84//235 83//236
f 78//237 76//238 86//239 84//240 82//241 80//242
f 83//243 84//244 86//245 85//246
f 85//247 86//248 76//249 75//250
f 75//251 77//252 79//253 81//254 83//255 85//256
f 87//257 88//258 90//259 89//260
f 89//261 90//262 92//263 91//264
f 91//265 92//266 94//267 93//268
f 93//269 94//270 96//271 95//272
f 90//273 88//274 98//275 96//276 94//277 92//278
f 95//279 96//280 98//281 97//282
f 97//283 98//284 88//285 87//286
f 87//287 89//288 91//289 93//290 95//291 97//292
f 47//293 108//294 102//295 101//296
f 103//297 106//298 100//299 99//300
f 50//301 103//302 99//303 49//304
f 47//305 101//306 104//307 48//308
f 101//309 102//310 105//311 104//312
f 2//313 106//314 103//315 50//316
f 107//317 48//318 104//319 105//320
f 102//321 108//322 107//323 105//324
f 106//325 2//326 1//327 100//328
f 99//329 100//330 1//331 49//332
