# Converted from FBX: Cube.084
# Vertices: 26

v -0.595588 0.404412 0.595588
v -0.595588 1.595588 0.595588
v -0.595588 0.404412 -0.595588
v -0.595588 1.595588 -0.595588
v 0.595588 0.404412 0.595588
v 0.595588 1.595588 0.595588
v 0.595588 0.404412 -0.595588
v 0.595588 1.595588 -0.595588
v -0.726103 0.273897 -0.000000
v -0.726103 1.000000 0.726103
v -0.726103 1.726103 0.000000
v -0.726103 1.000000 -0.726103
v 0.000000 0.273897 -0.726103
v -0.000000 1.726103 -0.726103
v 0.726103 1.000000 -0.726103
v 0.726103 0.273897 0.000000
v 0.726103 1.726103 0.000000
v 0.726103 1.000000 0.726103
v -0.000000 0.273897 0.726103
v -0.000000 1.726103 0.726103
v -1.000000 1.000000 0.000000
v 0.000000 1.000000 -1.000000
v 1.000000 1.000000 0.000000
v -0.000000 1.000000 1.000000
v 0.000000 0.000000 0.000000
v -0.000000 2.000000 0.000000

vn -0.901476 -0.306057 0.306057
vn -0.901476 -0.306057 0.306057
vn -0.901476 -0.306057 0.306057
vn -0.901476 -0.306057 0.306057
vn -0.901476 0.306057 0.306057
vn -0.901476 0.306057 0.306057
vn -0.901476 0.306057 0.306057
vn -0.901476 0.306057 0.306057
vn -0.901476 0.306057 -0.306057
vn -0.901476 0.306057 -0.306057
vn -0.901476 0.306057 -0.306057
vn -0.901476 0.306057 -0.306057
vn -0.901476 -0.306057 -0.306057
vn -0.901476 -0.306057 -0.306057
vn -0.901476 -0.306057 -0.306057
vn -0.901476 -0.306057 -0.306057
vn -0.306057 -0.306057 -0.901476
vn -0.306057 -0.306057 -0.901476
vn -0.306057 -0.306057 -0.901476
vn -0.306057 -0.306057 -0.901476
vn -0.306057 0.306057 -0.901476
vn -0.306057 0.306057 -0.901476
vn -0.306057 0.306057 -0.901476
vn -0.306057 0.306057 -0.901476
vn 0.306057 0.306057 -0.901476
vn 0.306057 0.306057 -0.901476
vn 0.306057 0.306057 -0.901476
vn 0.306057 0.306057 -0.901476
vn 0.306057 -0.306057 -0.901476
vn 0.306057 -0.306057 -0.901476
vn 0.306057 -0.306057 -0.901476
vn 0.306057 -0.306057 -0.901476
vn 0.901476 -0.306057 -0.306057
vn 0.901476 -0.306057 -0.306057
vn 0.901476 -0.306057 -0.306057
vn 0.901476 -0.306057 -0.306057
vn 0.901476 0.306057 -0.306057
vn 0.901476 0.306057 -0.306057
vn 0.901476 0.306057 -0.306057
vn 0.901476 0.306057 -0.306057
vn 0.901476 0.306057 0.306057
vn 0.901476 0.306057 0.306057
vn 0.901476 0.306057 0.306057
vn 0.901476 0.306057 0.306057
vn 0.901476 -0.306057 0.306057
vn 0.901476 -0.306057 0.306057
vn 0.901476 -0.306057 0.306057
vn 0.901476 -0.306057 0.306057
vn 0.306057 -0.306057 0.901476
vn 0.306057 -0.306057 0.901476
vn 0.306057 -0.306057 0.901476
vn 0.306057 -0.306057 0.901476
vn 0.306056 0.306057 0.901476
vn 0.306056 0.306057 0.901476
vn 0.306056 0.306057 0.901476
vn 0.306056 0.306057 0.901476
vn -0.306056 0.306057 0.901476
vn -0.306056 0.306057 0.901476
vn -0.306056 0.306057 0.901476
vn -0.306056 0.306057 0.901476
vn -0.306057 -0.306057 0.901476
vn -0.306057 -0.306057 0.901476
vn -0.306057 -0.306057 0.901476
vn -0.306057 -0.306057 0.901476
vn -0.306057 -0.901476 -0.306057
vn -0.306057 -0.901476 -0.306057
vn -0.306057 -0.901476 -0.306057
vn -0.306057 -0.901476 -0.306057
vn 0.306057 -0.901476 -0.306057
vn 0.306057 -0.901476 -0.306057
vn 0.306057 -0.901476 -0.306057
vn 0.306057 -0.901476 -0.306057
vn 0.306057 -0.901476 0.306057
vn 0.306057 -0.901476 0.306057
vn 0.306057 -0.901476 0.306057
vn 0.306057 -0.901476 0.306057
vn -0.306057 -0.901476 0.306057
vn -0.306057 -0.901476 0.306057
vn -0.306057 -0.901476 0.306057
vn -0.306057 -0.901476 0.306057
vn 0.306057 0.901476 -0.306057
vn 0.306057 0.901476 -0.306057
vn 0.306057 0.901476 -0.306057
vn 0.306057 0.901476 -0.306057
vn -0.306056 0.901476 -0.306057
vn -0.306056 0.901476 -0.306057
vn -0.306056 0.901476 -0.306057
vn -0.306056 0.901476 -0.306057
vn -0.306057 0.901476 0.306056
vn -0.306057 0.901476 0.306056
vn -0.306057 0.901476 0.306056
vn -0.306057 0.901476 0.306056
vn 0.306057 0.901476 0.306056
vn 0.306057 0.901476 0.306056
vn 0.306057 0.901476 0.306056
vn 0.306057 0.901476 0.306056

f 1//1 10//2 21//3 9//4
f 10//5 2//6 11//7 21//8
f 21//9 11//10 4//11 12//12
f 9//13 21//14 12//15 3//16
f 3//17 12//18 22//19 13//20
f 12//21 4//22 14//23 22//24
f 22//25 14//26 8//27 15//28
f 13//29 22//30 15//31 7//32
f 7//33 15//34 23//35 16//36
f 15//37 8//38 17//39 23//40
f 23//41 17//42 6//43 18//44
f 16//45 23//46 18//47 5//48
f 5//49 18//50 24//51 19//52
f 18//53 6//54 20//55 24//56
f 24//57 20//58 2//59 10//60
f 19//61 24//62 10//63 1//64
f 3//65 13//66 25//67 9//68
f 13//69 7//70 16//71 25//72
f 25//73 16//74 5//75 19//76
f 9//77 25//78 19//79 1//80
f 8//81 14//82 26//83 17//84
f 14//85 4//86 11//87 26//88
f 26//89 11//90 2//91 20//92
f 17//93 26//94 20//95 6//96
