# Converted from FBX: Plane.003
# Vertices: 15

v 1.000000 0.000000 1.000000
v -1.000000 0.000000 -1.000000
v 1.000000 0.000000 -1.000000
v -0.333333 0.000000 1.000000
v -0.333333 0.000000 -1.000000
v -1.000000 0.000000 -0.333333
v 1.000000 0.000000 -0.333333
v -0.333333 0.000000 -0.333333
v -1.000000 0.000000 0.333333
v 1.000000 0.000000 0.333333
v -0.333333 0.000000 0.333333
v 0.333333 0.000000 1.000000
v 0.333333 0.000000 -1.000000
v 0.333333 0.000000 -0.333333
v 0.333333 0.000000 0.333333

vn 0.000000 1.000000 -0.000000
vn 0.000000 1.000000 -0.000000
vn 0.000000 1.000000 -0.000000
vn 0.000000 1.000000 -0.000000
vn 0.000000 1.000000 -0.000000
vn 0.000000 1.000000 -0.000000
vn 0.000000 1.000000 -0.000000
vn 0.000000 1.000000 -0.000000
vn 0.000000 1.000000 -0.000000
vn 0.000000 1.000000 -0.000000
vn 0.000000 1.000000 -0.000000
vn 0.000000 1.000000 -0.000000
vn 0.000000 1.000000 -0.000000
vn 0.000000 1.000000 -0.000000
vn 0.000000 1.000000 -0.000000
vn 0.000000 1.000000 -0.000000
vn 0.000000 1.000000 -0.000000
vn 0.000000 1.000000 -0.000000
vn 0.000000 1.000000 -0.000000
vn 0.000000 1.000000 -0.000000
vn 0.000000 1.000000 -0.000000
vn 0.000000 1.000000 -0.000000
vn 0.000000 1.000000 -0.000000
vn 0.000000 1.000000 -0.000000
vn 0.000000 1.000000 -0.000000
vn 0.000000 1.000000 -0.000000
vn 0.000000 1.000000 -0.000000
vn 0.000000 1.000000 -0.000000
vn 0.000000 1.000000 -0.000000
vn 0.000000 1.000000 -0.000000
vn 0.000000 1.000000 -0.000000
vn 0.000000 1.000000 -0.000000

f 14//1 7//2 3//3 13//4
f 6//5 8//6 5//7 2//8
f 9//9 11//10 8//11 6//12
f 15//13 10//14 7//15 14//16
f 12//17 1//18 10//19 15//20
f 4//21 12//22 15//23 11//24
f 11//25 15//26 14//27 8//28
f 8//29 14//30 13//31 5//32
