# Converted from FBX: Cube.034
# Vertices: 56

v -1.000000 -1.000000 1.000000
v -1.000000 1.000000 1.000000
v -1.000000 -1.000000 -1.000000
v -1.000000 1.000000 -1.000000
v 1.000000 -1.000000 1.000000
v 1.000000 1.000000 1.000000
v 1.000000 -1.000000 -1.000000
v 1.000000 1.000000 -1.000000
v -1.000000 -0.685891 0.685891
v -1.000000 0.685891 0.685891
v -1.000000 0.685891 -0.685891
v -1.000000 -0.685891 -0.685891
v -0.685891 -0.685891 -1.000000
v -0.685891 0.685891 -1.000000
v 0.685891 0.685891 -1.000000
v 0.685891 -0.685891 -1.000000
v 1.000000 -0.685891 -0.685891
v 1.000000 0.685891 -0.685891
v 1.000000 0.685891 0.685891
v 1.000000 -0.685891 0.685891
v 0.685891 -0.685891 1.000000
v 0.685891 0.685891 1.000000
v -0.685891 0.685891 1.000000
v -0.685891 -0.685891 1.000000
v -0.685891 -1.000000 -0.685891
v 0.685891 -1.000000 -0.685891
v 0.685891 -1.000000 0.685891
v -0.685891 -1.000000 0.685891
v 0.685891 1.000000 -0.685891
v -0.685891 1.000000 -0.685891
v -0.685891 1.000000 0.685891
v 0.685891 1.000000 0.685891
v -0.849222 -0.582473 0.582473
v -0.849222 0.582473 0.582473
v -0.849222 -0.582473 -0.582473
v -0.849222 0.582473 -0.582473
v -0.582473 0.582473 -0.849222
v -0.582473 -0.582473 -0.849222
v 0.582473 -0.582473 -0.849222
v 0.582473 0.582473 -0.849222
v 0.849222 0.582473 -0.582473
v 0.849222 -0.582473 -0.582473
v 0.849222 -0.582473 0.582473
v 0.849222 0.582473 0.582473
v 0.582473 0.582473 0.849222
v 0.582473 -0.582473 0.849222
v -0.582473 -0.582473 0.849222
v -0.582473 0.582473 0.849222
v 0.582473 -0.849222 -0.582473
v -0.582473 -0.849222 -0.582473
v -0.582473 -0.849222 0.582473
v 0.582473 -0.849222 0.582473
v -0.582473 0.849222 -0.582473
v 0.582473 0.849222 -0.582473
v 0.582473 0.849222 0.582473
v -0.582473 0.849222 0.582473

vn 0.824661 -0.565627 -0.000000
vn 0.824661 -0.565627 -0.000000
vn 0.824661 -0.565627 -0.000000
vn 0.824661 -0.565627 -0.000000
vn 0.565627 -0.824661 -0.000000
vn 0.565627 -0.824661 -0.000000
vn 0.565627 -0.824661 -0.000000
vn 0.565627 -0.824661 -0.000000
vn -0.565627 0.000000 0.824661
vn -0.565627 0.000000 0.824661
vn -0.565627 0.000000 0.824661
vn -0.565627 0.000000 0.824661
vn 0.000000 0.565627 0.824661
vn 0.000000 0.565627 0.824661
vn 0.000000 0.565627 0.824661
vn 0.000000 0.565627 0.824661
vn 0.000000 0.824661 0.565627
vn 0.000000 0.824661 0.565627
vn 0.000000 0.824661 0.565627
vn 0.000000 0.824661 0.565627
vn 0.000000 -0.824661 -0.565628
vn 0.000000 -0.824661 -0.565628
vn 0.000000 -0.824661 -0.565628
vn 0.000000 -0.824661 -0.565628
vn -1.000000 0.000000 -0.000000
vn -1.000000 0.000000 -0.000000
vn -1.000000 0.000000 -0.000000
vn -1.000000 0.000000 -0.000000
vn -1.000000 0.000000 -0.000000
vn -1.000000 0.000000 -0.000000
vn -1.000000 0.000000 -0.000000
vn -1.000000 0.000000 -0.000000
vn -1.000000 0.000000 -0.000000
vn -1.000000 0.000000 -0.000000
vn -1.000000 0.000000 -0.000000
vn -1.000000 0.000000 -0.000000
vn -1.000000 0.000000 -0.000000
vn -1.000000 0.000000 -0.000000
vn -1.000000 0.000000 -0.000000
vn -1.000000 0.000000 -0.000000
vn 0.000000 0.000000 -1.000000
vn 0.000000 0.000000 -1.000000
vn 0.000000 0.000000 -1.000000
vn 0.000000 0.000000 -1.000000
vn 0.000000 0.000000 -1.000000
vn 0.000000 0.000000 -1.000000
vn 0.000000 0.000000 -1.000000
vn 0.000000 0.000000 -1.000000
vn 0.000000 0.000000 -1.000000
vn 0.000000 0.000000 -1.000000
vn 0.000000 0.000000 -1.000000
vn 0.000000 0.000000 -1.000000
vn 0.000000 0.000000 -1.000000
vn 0.000000 0.000000 -1.000000
vn 0.000000 0.000000 -1.000000
vn 0.000000 0.000000 -1.000000
vn 1.000000 0.000000 -0.000000
vn 1.000000 0.000000 -0.000000
vn 1.000000 0.000000 -0.000000
vn 1.000000 0.000000 -0.000000
vn 1.000000 0.000000 -0.000000
vn 1.000000 0.000000 -0.000000
vn 1.000000 0.000000 -0.000000
vn 1.000000 0.000000 -0.000000
vn 1.000000 0.000000 -0.000000
vn 1.000000 0.000000 -0.000000
vn 1.000000 0.000000 -0.000000
vn 1.000000 0.000000 -0.000000
vn 1.000000 0.000000 -0.000000
vn 1.000000 0.000000 -0.000000
vn 1.000000 0.000000 -0.000000
vn 1.000000 0.000000 -0.000000
vn 0.000000 0.000000 1.000000
vn 0.000000 0.000000 1.000000
vn 0.000000 0.000000 1.000000
vn 0.000000 0.000000 1.000000
vn 0.000000 0.000000 1.000000
vn 0.000000 0.000000 1.000000
vn 0.000000 0.000000 1.000000
vn 0.000000 0.000000 1.000000
vn 0.000000 0.000000 1.000000
vn 0.000000 0.000000 1.000000
vn 0.000000 0.000000 1.000000
vn 0.000000 0.000000 1.000000
vn 0.000000 0.000000 1.000000
vn 0.000000 0.000000 1.000000
vn 0.000000 0.000000 1.000000
vn 0.000000 0.000000 1.000000
vn 0.000000 -1.000000 -0.000000
vn 0.000000 -1.000000 -0.000000
vn 0.000000 -1.000000 -0.000000
vn 0.000000 -1.000000 -0.000000
vn 0.000000 -1.000000 -0.000000
vn 0.000000 -1.000000 -0.000000
vn 0.000000 -1.000000 -0.000000
vn 0.000000 -1.000000 -0.000000
vn 0.000000 -1.000000 -0.000000
vn 0.000000 -1.000000 -0.000000
vn 0.000000 -1.000000 -0.000000
vn 0.000000 -1.000000 -0.000000
vn 0.000000 -1.000000 -0.000000
vn 0.000000 -1.000000 -0.000000
vn 0.000000 -1.000000 -0.000000
vn 0.000000 -1.000000 -0.000000
vn 0.000000 1.000000 -0.000000
vn 0.000000 1.000000 -0.000000
vn 0.000000 1.000000 -0.000000
vn 0.000000 1.000000 -0.000000
vn 0.000000 1.000000 -0.000000
vn 0.000000 1.000000 -0.000000
vn 0.000000 1.000000 -0.000000
vn 0.000000 1.000000 -0.000000
vn 0.000000 1.000000 -0.000000
vn 0.000000 1.000000 -0.000000
vn 0.000000 1.000000 -0.000000
vn 0.000000 1.000000 -0.000000
vn 0.000000 1.000000 -0.000000
vn 0.000000 1.000000 -0.000000
vn 0.000000 1.000000 -0.000000
vn 0.000000 1.000000 -0.000000
vn -1.000000 0.000000 -0.000000
vn -1.000000 0.000000 -0.000000
vn -1.000000 0.000000 -0.000000
vn -1.000000 0.000000 -0.000000
vn 0.000000 0.000000 -1.000000
vn 0.000000 0.000000 -1.000000
vn 0.000000 0.000000 -1.000000
vn 0.000000 0.000000 -1.000000
vn 1.000000 0.000000 -0.000000
vn 1.000000 0.000000 -0.000000
vn 1.000000 0.000000 -0.000000
vn 1.000000 0.000000 -0.000000
vn 0.000000 0.000000 1.000000
vn 0.000000 0.000000 1.000000
vn 0.000000 0.000000 1.000000
vn 0.000000 0.000000 1.000000
vn 0.000000 -1.000000 -0.000000
vn 0.000000 -1.000000 -0.000000
vn 0.000000 -1.000000 -0.000000
vn 0.000000 -1.000000 -0.000000
vn 0.000000 1.000000 -0.000000
vn 0.000000 1.000000 -0.000000
vn 0.000000 1.000000 -0.000000
vn 0.000000 1.000000 -0.000000
vn -0.824661 0.000000 -0.565627
vn -0.824661 0.000000 -0.565627
vn -0.824661 0.000000 -0.565627
vn -0.824661 0.000000 -0.565627
vn 0.000000 -0.824661 0.565628
vn 0.000000 -0.824661 0.565628
vn 0.000000 -0.824661 0.565628
vn 0.000000 -0.824661 0.565628
vn -0.824661 0.565627 -0.000000
vn -0.824661 0.565627 -0.000000
vn -0.824661 0.565627 -0.000000
vn -0.824661 0.565627 -0.000000
vn 0.565627 0.000000 -0.824661
vn 0.565627 0.000000 -0.824661
vn 0.565627 0.000000 -0.824661
vn 0.565627 0.000000 -0.824661
vn -0.824661 -0.565627 -0.000000
vn -0.824661 -0.565627 -0.000000
vn -0.824661 -0.565627 -0.000000
vn -0.824661 -0.565627 -0.000000
vn 0.824661 0.000000 0.565627
vn 0.824661 0.000000 0.565627
vn 0.824661 0.000000 0.565627
vn 0.824661 0.000000 0.565627
vn 0.824661 0.565627 -0.000000
vn 0.824661 0.565627 -0.000000
vn 0.824661 0.565627 -0.000000
vn 0.824661 0.565627 -0.000000
vn 0.000000 -0.565627 -0.824661
vn 0.000000 -0.565627 -0.824661
vn 0.000000 -0.565627 -0.824661
vn 0.000000 -0.565627 -0.824661
vn 0.000000 0.565627 -0.824661
vn 0.000000 0.565627 -0.824661
vn 0.000000 0.565627 -0.824661
vn 0.000000 0.565627 -0.824661
vn -0.565627 0.000000 -0.824661
vn -0.565627 0.000000 -0.824661
vn -0.565627 0.000000 -0.824661
vn -0.565627 0.000000 -0.824661
vn 0.824661 0.000000 -0.565627
vn 0.824661 0.000000 -0.565627
vn 0.824661 0.000000 -0.565627
vn 0.824661 0.000000 -0.565627
vn -0.565627 0.824661 -0.000000
vn -0.565627 0.824661 -0.000000
vn -0.565627 0.824661 -0.000000
vn -0.565627 0.824661 -0.000000
vn 0.565627 0.000000 0.824661
vn 0.565627 0.000000 0.824661
vn 0.565627 0.000000 0.824661
vn 0.565627 0.000000 0.824661
vn 0.000000 0.824661 -0.565627
vn 0.000000 0.824661 -0.565627
vn 0.000000 0.824661 -0.565627
vn 0.000000 0.824661 -0.565627
vn -0.824661 0.000000 0.565627
vn -0.824661 0.000000 0.565627
vn -0.824661 0.000000 0.565627
vn -0.824661 0.000000 0.565627
vn -0.565627 -0.824661 -0.000000
vn -0.565627 -0.824661 -0.000000
vn -0.565627 -0.824661 -0.000000
vn -0.565627 -0.824661 -0.000000
vn 0.565627 0.824661 -0.000000
vn 0.565627 0.824661 -0.000000
vn 0.565627 0.824661 -0.000000
vn 0.565627 0.824661 -0.000000
vn 0.000000 -0.565627 0.824661
vn 0.000000 -0.565627 0.824661
vn 0.000000 -0.565627 0.824661
vn 0.000000 -0.565627 0.824661

f 28//1 25//2 50//3 51//4
f 18//5 19//6 44//7 41//8
f 11//9 12//10 35//11 36//12
f 29//13 30//14 53//15 54//16
f 24//17 21//18 46//19 47//20
f 14//21 15//22 40//23 37//24
f 1//25 2//26 10//27 9//28
f 2//29 4//30 11//31 10//32
f 4//33 3//34 12//35 11//36
f 3//37 1//38 9//39 12//40
f 3//41 4//42 14//43 13//44
f 4//45 8//46 15//47 14//48
f 8//49 7//50 16//51 15//52
f 7//53 3//54 13//55 16//56
f 7//57 8//58 18//59 17//60
f 8//61 6//62 19//63 18//64
f 6//65 5//66 20//67 19//68
f 5//69 7//70 17//71 20//72
f 5//73 6//74 22//75 21//76
f 6//77 2//78 23//79 22//80
f 2//81 1//82 24//83 23//84
f 1//85 5//86 21//87 24//88
f 3//89 7//90 26//91 25//92
f 7//93 5//94 27//95 26//96
f 5//97 1//98 28//99 27//100
f 1//101 3//102 25//103 28//104
f 8//105 4//106 30//107 29//108
f 4//109 2//110 31//111 30//112
f 2//113 6//114 32//115 31//116
f 6//117 8//118 29//119 32//120
f 33//121 34//122 36//123 35//124
f 38//125 37//126 40//127 39//128
f 42//129 41//130 44//131 43//132
f 46//133 45//134 48//135 47//136
f 50//137 49//138 52//139 51//140
f 54//141 53//142 56//143 55//144
f 15//145 16//146 39//147 40//148
f 22//149 23//150 48//151 45//152
f 32//153 29//154 54//155 55//156
f 19//157 20//158 43//159 44//160
f 26//161 27//162 52//163 49//164
f 23//165 24//166 47//167 48//168
f 30//169 31//170 56//171 53//172
f 27//173 28//174 51//175 52//176
f 31//177 32//178 55//179 56//180
f 9//181 10//182 34//183 33//184
f 13//185 14//186 37//187 38//188
f 12//189 9//190 33//191 35//192
f 17//193 18//194 41//195 42//196
f 16//197 13//198 38//199 39//200
f 21//201 22//202 45//203 46//204
f 10//205 11//206 36//207 34//208
f 20//209 17//210 42//211 43//212
f 25//213 26//214 49//215 50//216
