# Converted from FBX: Cone
# Vertices: 7

v 0.000000 -1.000000 -1.000000
v 0.866025 -1.000000 -0.500000
v 0.866025 -1.000000 0.500000
v -0.000000 -1.000000 1.000000
v -0.866025 -1.000000 0.500000
v -0.866025 -1.000000 -0.500000
v 0.000000 1.000000 -0.000000

vn 0.458831 0.397360 -0.794719
vn 0.458831 0.397360 -0.794719
vn 0.458831 0.397360 -0.794719
vn 0.917663 0.397360 0.000000
vn 0.917663 0.397360 0.000000
vn 0.917663 0.397360 0.000000
vn 0.458831 0.397360 0.794719
vn 0.458831 0.397360 0.794719
vn 0.458831 0.397360 0.794719
vn -0.458832 0.397360 0.794719
vn -0.458832 0.397360 0.794719
vn -0.458832 0.397360 0.794719
vn 0.000000 -1.000000 -0.000000
vn 0.000000 -1.000000 -0.000000
vn 0.000000 -1.000000 -0.000000
vn 0.000000 -1.000000 -0.000000
vn 0.000000 -1.000000 -0.000000
vn 0.000000 -1.000000 -0.000000
vn -0.917663 0.397360 -0.000000
vn -0.917663 0.397360 -0.000000
vn -0.917663 0.397360 -0.000000
vn -0.458832 0.397360 -0.794719
vn -0.458832 0.397360 -0.794719
vn -0.458832 0.397360 -0.794719

f 1//1 7//2 2//3
f 2//4 7//5 3//6
f 3//7 7//8 4//9
f 4//10 7//11 5//12
f 1//13 2//14 3//15 4//16 5//17 6//18
f 5//19 7//20 6//21
f 6//22 7//23 1//24
