# Converted from FBX: Cube.019
# Vertices: 16

v -0.333333 0.000000 -0.333333
v -0.333333 0.000000 0.333333
v -0.333333 1.666667 -0.333333
v -0.333333 1.666667 0.333333
v 0.333333 0.000000 -0.333333
v 0.333333 0.000000 0.333333
v 0.333333 1.666667 -0.333333
v 0.333333 1.666667 0.333333
v -0.666667 2.000000 -0.333333
v -0.666667 0.000000 -0.333333
v -0.666667 0.000000 0.333333
v -0.666667 2.000000 0.333333
v 0.666667 2.000000 -0.333333
v 0.666667 2.000000 0.333333
v 0.666667 0.000000 -0.333333
v 0.666667 0.000000 0.333333

vn -1.000000 0.000000 -0.000000
vn -1.000000 0.000000 -0.000000
vn -1.000000 0.000000 -0.000000
vn -1.000000 0.000000 -0.000000
vn 0.000000 1.000000 -0.000000
vn 0.000000 1.000000 -0.000000
vn 0.000000 1.000000 -0.000000
vn 0.000000 1.000000 -0.000000
vn 1.000000 0.000000 -0.000000
vn 1.000000 0.000000 -0.000000
vn 1.000000 0.000000 -0.000000
vn 1.000000 0.000000 -0.000000
vn -1.000000 0.000000 -0.000000
vn -1.000000 0.000000 -0.000000
vn -1.000000 0.000000 -0.000000
vn -1.000000 0.000000 -0.000000
vn 0.000000 0.000000 -1.000000
vn 0.000000 0.000000 -1.000000
vn 0.000000 0.000000 -1.000000
vn 0.000000 0.000000 -1.000000
vn -0.000000 -0.000000 1.000000
vn -0.000000 -0.000000 1.000000
vn -0.000000 -0.000000 1.000000
vn -0.000000 -0.000000 1.000000
vn 0.000000 0.000000 -1.000000
vn 0.000000 0.000000 -1.000000
vn 0.000000 0.000000 -1.000000
vn 0.000000 0.000000 -1.000000
vn 0.000000 0.000000 1.000000
vn 0.000000 0.000000 1.000000
vn 0.000000 0.000000 1.000000
vn 0.000000 0.000000 1.000000
vn -0.000000 0.000000 -1.000000
vn -0.000000 0.000000 -1.000000
vn -0.000000 0.000000 -1.000000
vn -0.000000 0.000000 -1.000000
vn 0.000000 -0.000000 1.000000
vn 0.000000 -0.000000 1.000000
vn 0.000000 -0.000000 1.000000
vn 0.000000 -0.000000 1.000000
vn -0.000000 -1.000000 -0.000000
vn -0.000000 -1.000000 -0.000000
vn -0.000000 -1.000000 -0.000000
vn -0.000000 -1.000000 -0.000000
vn 0.000000 -1.000000 -0.000000
vn 0.000000 -1.000000 -0.000000
vn 0.000000 -1.000000 -0.000000
vn 0.000000 -1.000000 -0.000000
vn 0.000000 -1.000000 -0.000000
vn 0.000000 -1.000000 -0.000000
vn 0.000000 -1.000000 -0.000000
vn 0.000000 -1.000000 -0.000000
vn 1.000000 0.000000 -0.000000
vn 1.000000 0.000000 -0.000000
vn 1.000000 0.000000 -0.000000
vn 1.000000 0.000000 -0.000000

f 10//1 11//2 12//3 9//4
f 9//5 12//6 14//7 13//8
f 13//9 14//10 16//11 15//12
f 6//13 8//14 7//15 5//16
f 3//17 1//18 10//19 9//20
f 2//21 4//22 12//23 11//24
f 7//25 3//26 9//27 13//28
f 4//29 8//30 14//31 12//32
f 5//33 7//34 13//35 15//36
f 8//37 6//38 16//39 14//40
f 11//41 10//42 1//43 2//44
f 15//45 16//46 6//47 5//48
f 8//49 4//50 3//51 7//52
f 4//53 2//54 1//55 3//56
