# Converted from FBX: Cylinder.080
# Vertices: 16

v -1.000000 -0.368421 -0.078947
v -1.000000 -0.368421 0.078947
v -1.000000 0.368421 -0.078947
v -1.000000 0.368421 0.078947
v 1.000000 -0.368421 -0.078947
v 1.000000 -0.368421 0.078947
v 1.000000 0.368421 -0.078947
v 1.000000 0.368421 0.078947
v -1.000000 0.154736 -0.078947
v -1.000000 -0.154736 -0.078947
v -1.000000 -0.154736 0.078947
v -1.000000 0.154736 0.078947
v 1.000000 -0.154736 -0.078947
v 1.000000 0.154736 -0.078947
v 1.000000 0.154736 0.078947
v 1.000000 -0.154736 0.078947

vn -1.000000 0.000000 -0.000000
vn -1.000000 0.000000 -0.000000
vn -1.000000 0.000000 -0.000000
vn -1.000000 0.000000 -0.000000
vn 0.000000 1.000000 -0.000000
vn 0.000000 1.000000 -0.000000
vn 0.000000 1.000000 -0.000000
vn 0.000000 1.000000 -0.000000
vn 1.000000 0.000000 -0.000000
vn 1.000000 0.000000 -0.000000
vn 1.000000 0.000000 -0.000000
vn 1.000000 0.000000 -0.000000
vn 0.000000 -1.000000 -0.000000
vn 0.000000 -1.000000 -0.000000
vn 0.000000 -1.000000 -0.000000
vn 0.000000 -1.000000 -0.000000
vn 0.000000 0.000000 -1.000000
vn 0.000000 0.000000 -1.000000
vn 0.000000 0.000000 -1.000000
vn 0.000000 0.000000 -1.000000
vn -0.000000 -0.000000 1.000000
vn -0.000000 -0.000000 1.000000
vn -0.000000 -0.000000 1.000000
vn -0.000000 -0.000000 1.000000
vn 0.000000 -0.000000 1.000000
vn 0.000000 -0.000000 1.000000
vn 0.000000 -0.000000 1.000000
vn 0.000000 -0.000000 1.000000
vn 0.000000 0.000000 -1.000000
vn 0.000000 0.000000 -1.000000
vn 0.000000 0.000000 -1.000000
vn 0.000000 0.000000 -1.000000
vn 1.000000 0.000000 -0.000000
vn 1.000000 0.000000 -0.000000
vn 1.000000 0.000000 -0.000000
vn 1.000000 0.000000 -0.000000
vn 0.000000 1.000000 0.000000
vn 0.000000 1.000000 0.000000
vn 0.000000 1.000000 0.000000
vn 0.000000 1.000000 0.000000
vn -1.000000 0.000000 -0.000000
vn -1.000000 0.000000 -0.000000
vn -1.000000 0.000000 -0.000000
vn -1.000000 0.000000 -0.000000
vn 0.000000 -1.000000 -0.000000
vn 0.000000 -1.000000 -0.000000
vn 0.000000 -1.000000 -0.000000
vn 0.000000 -1.000000 -0.000000

f 9//1 12//2 4//3 3//4
f 3//5 4//6 8//7 7//8
f 13//9 16//10 6//11 5//12
f 5//13 6//14 2//15 1//16
f 10//17 13//18 5//19 1//20
f 16//21 11//22 2//23 6//24
f 8//25 4//26 12//27 15//28
f 3//29 7//30 14//31 9//32
f 7//33 8//34 15//35 14//36
f 11//37 16//38 13//39 10//40
f 1//41 2//42 11//43 10//44
f 12//45 9//46 14//47 15//48
