# Converted from FBX: Cylinder.079
# Vertices: 8

v -0.203001 0.000000 0.250000
v -0.203001 0.000000 -0.250000
v -0.203001 2.000000 0.250000
v -0.203001 2.000000 -0.250000
v 0.203001 0.000000 0.250000
v 0.203001 0.000000 -0.250000
v 0.203001 2.000000 0.250000
v 0.203001 2.000000 -0.250000

vn 0.000000 0.000000 -1.000000
vn 0.000000 0.000000 -1.000000
vn 0.000000 0.000000 -1.000000
vn 0.000000 0.000000 -1.000000
vn 0.000000 -0.000000 1.000000
vn 0.000000 -0.000000 1.000000
vn 0.000000 -0.000000 1.000000
vn 0.000000 -0.000000 1.000000
vn 1.000000 0.000000 -0.000000
vn 1.000000 0.000000 -0.000000
vn 1.000000 0.000000 -0.000000
vn 1.000000 0.000000 -0.000000
vn 0.000000 -1.000000 -0.000000
vn 0.000000 -1.000000 -0.000000
vn 0.000000 -1.000000 -0.000000
vn 0.000000 -1.000000 -0.000000
vn 0.000000 1.000000 -0.000000
vn 0.000000 1.000000 -0.000000
vn 0.000000 1.000000 -0.000000
vn 0.000000 1.000000 -0.000000
vn -1.000000 -0.000000 -0.000000
vn -1.000000 -0.000000 -0.000000
vn -1.000000 -0.000000 -0.000000
vn -1.000000 -0.000000 -0.000000

f 8//1 6//2 2//3 4//4
f 5//5 7//6 3//7 1//8
f 8//9 7//10 5//11 6//12
f 6//13 5//14 1//15 2//16
f 4//17 3//18 7//19 8//20
f 3//21 4//22 2//23 1//24
