# Converted from FBX: Torus.001
# Vertices: 90

v 0.503518 0.087212 -0.563940
v 0.453166 0.174424 -0.563940
v 0.352463 0.174424 -0.563940
v 0.302111 0.087212 -0.563940
v 0.352463 0.000000 -0.563940
v 0.453166 0.000000 -0.563940
v 0.251759 0.087212 -1.000000
v 0.226583 0.174424 -0.956394
v 0.176231 0.174424 -0.869182
v 0.151055 0.087212 -0.825576
v 0.176231 0.000000 -0.869182
v 0.226583 0.000000 -0.956394
v -0.251759 0.087212 -1.000000
v -0.226583 0.174424 -0.956394
v -0.176231 0.174424 -0.869182
v -0.151055 0.087212 -0.825576
v -0.176231 0.000000 -0.869182
v -0.226583 0.000000 -0.956394
v -0.503518 0.087212 -0.563940
v -0.453166 0.174424 -0.563940
v -0.352463 0.174424 -0.563940
v -0.302111 0.087212 -0.563940
v -0.352463 0.000000 -0.563940
v -0.453166 0.000000 -0.563940
v -0.251759 0.087212 -0.127881
v -0.226583 0.174424 -0.171487
v -0.176231 0.174424 -0.258699
v -0.151055 0.087212 -0.302305
v -0.176231 0.000000 -0.258699
v -0.226583 0.000000 -0.171487
v 0.251759 0.087212 -0.127881
v 0.226583 0.174424 -0.171487
v 0.176231 0.174424 -0.258699
v 0.151055 0.087212 -0.302305
v 0.176231 0.000000 -0.258699
v 0.226583 0.000000 -0.171487
v -0.132585 0.087212 -0.127881
v 0.132585 0.087212 -0.127881
v -0.119326 0.174424 -0.171487
v 0.119326 0.174424 -0.171487
v -0.092809 0.174424 -0.258699
v 0.092809 0.174424 -0.258699
v -0.079551 0.087212 -0.302305
v 0.079551 0.087212 -0.302305
v -0.092809 0.000000 -0.258699
v 0.092809 0.000000 -0.258699
v -0.119326 0.000000 -0.171487
v 0.119326 0.000000 -0.171487
v -0.132585 0.087212 1.000000
v 0.132585 0.087212 1.000000
v -0.119326 0.174424 0.956394
v 0.119326 0.174424 0.956394
v -0.119326 0.000000 0.956394
v 0.119326 0.000000 0.956394
v 0.132585 0.087212 0.261976
v 0.132585 0.087212 0.487552
v 0.132585 0.087212 0.632565
v 0.132585 0.087212 0.858141
v 0.119326 0.000000 0.858141
v 0.119326 0.000000 0.632565
v 0.119326 0.000000 0.487552
v 0.119326 0.000000 0.261976
v -0.132585 0.087212 0.261976
v -0.132585 0.087212 0.487552
v -0.132585 0.087212 0.632565
v -0.132585 0.087212 0.858141
v -0.119326 0.174424 0.858141
v -0.119326 0.174424 0.632565
v -0.119326 0.174424 0.487552
v -0.119326 0.174424 0.261976
v -0.119326 0.000000 0.858141
v -0.119326 0.000000 0.632565
v -0.119326 0.000000 0.487552
v -0.119326 0.000000 0.261976
v 0.119326 0.174424 0.858141
v 0.119326 0.174424 0.632565
v 0.119326 0.174424 0.487552
v 0.119326 0.174424 0.261976
v -0.293711 0.087212 0.261976
v -0.293711 0.087212 0.487552
v -0.374274 0.087212 0.632565
v -0.374274 0.087212 0.858141
v -0.361015 0.174424 0.858141
v -0.361015 0.174424 0.632565
v -0.280452 0.174424 0.487552
v -0.280452 0.174424 0.261976
v -0.361015 0.000000 0.858141
v -0.361015 0.000000 0.632565
v -0.280452 0.000000 0.487552
v -0.280452 0.000000 0.261976

vn 0.774597 0.447214 -0.447214
vn 0.774597 0.447214 -0.447214
vn 0.774597 0.447214 -0.447214
vn 0.774597 0.447214 -0.447214
vn -0.000000 1.000000 -0.000000
vn -0.000000 1.000000 -0.000000
vn -0.000000 1.000000 -0.000000
vn -0.000000 1.000000 -0.000000
vn -0.774597 0.447214 0.447214
vn -0.774597 0.447214 0.447214
vn -0.774597 0.447214 0.447214
vn -0.774597 0.447214 0.447214
vn -0.774597 -0.447214 0.447214
vn -0.774597 -0.447214 0.447214
vn -0.774597 -0.447214 0.447214
vn -0.774597 -0.447214 0.447214
vn -0.000000 -1.000000 -0.000000
vn -0.000000 -1.000000 -0.000000
vn -0.000000 -1.000000 -0.000000
vn -0.000000 -1.000000 -0.000000
vn 0.774597 -0.447214 -0.447214
vn 0.774597 -0.447214 -0.447214
vn 0.774597 -0.447214 -0.447214
vn 0.774597 -0.447214 -0.447214
vn 0.000000 0.447214 -0.894427
vn 0.000000 0.447214 -0.894427
vn 0.000000 0.447214 -0.894427
vn 0.000000 0.447214 -0.894427
vn 0.000000 1.000000 -0.000000
vn 0.000000 1.000000 -0.000000
vn 0.000000 1.000000 -0.000000
vn 0.000000 1.000000 -0.000000
vn -0.000000 0.447213 0.894427
vn -0.000000 0.447213 0.894427
vn -0.000000 0.447213 0.894427
vn -0.000000 0.447213 0.894427
vn -0.000000 -0.447213 0.894427
vn -0.000000 -0.447213 0.894427
vn -0.000000 -0.447213 0.894427
vn -0.000000 -0.447213 0.894427
vn 0.000000 -1.000000 -0.000000
vn 0.000000 -1.000000 -0.000000
vn 0.000000 -1.000000 -0.000000
vn 0.000000 -1.000000 -0.000000
vn 0.000000 -0.447214 -0.894427
vn 0.000000 -0.447214 -0.894427
vn 0.000000 -0.447214 -0.894427
vn 0.000000 -0.447214 -0.894427
vn -0.774597 0.447214 -0.447214
vn -0.774597 0.447214 -0.447214
vn -0.774597 0.447214 -0.447214
vn -0.774597 0.447214 -0.447214
vn 0.000000 1.000000 -0.000000
vn 0.000000 1.000000 -0.000000
vn 0.000000 1.000000 -0.000000
vn 0.000000 1.000000 -0.000000
vn 0.774597 0.447214 0.447214
vn 0.774597 0.447214 0.447214
vn 0.774597 0.447214 0.447214
vn 0.774597 0.447214 0.447214
vn 0.774597 -0.447214 0.447214
vn 0.774597 -0.447214 0.447214
vn 0.774597 -0.447214 0.447214
vn 0.774597 -0.447214 0.447214
vn 0.000000 -1.000000 -0.000000
vn 0.000000 -1.000000 -0.000000
vn 0.000000 -1.000000 -0.000000
vn 0.000000 -1.000000 -0.000000
vn -0.774597 -0.447214 -0.447214
vn -0.774597 -0.447214 -0.447214
vn -0.774597 -0.447214 -0.447214
vn -0.774597 -0.447214 -0.447214
vn -0.774597 0.447214 0.447214
vn -0.774597 0.447214 0.447214
vn -0.774597 0.447214 0.447214
vn -0.774597 0.447214 0.447214
vn 0.000000 1.000000 -0.000000
vn 0.000000 1.000000 -0.000000
vn 0.000000 1.000000 -0.000000
vn 0.000000 1.000000 -0.000000
vn 0.774597 0.447214 -0.447214
vn 0.774597 0.447214 -0.447214
vn 0.774597 0.447214 -0.447214
vn 0.774597 0.447214 -0.447214
vn 0.774597 -0.447214 -0.447214
vn 0.774597 -0.447214 -0.447214
vn 0.774597 -0.447214 -0.447214
vn 0.774597 -0.447214 -0.447214
vn 0.000000 -1.000000 -0.000000
vn 0.000000 -1.000000 -0.000000
vn 0.000000 -1.000000 -0.000000
vn 0.000000 -1.000000 -0.000000
vn -0.774597 -0.447214 0.447214
vn -0.774597 -0.447214 0.447214
vn -0.774597 -0.447214 0.447214
vn -0.774597 -0.447214 0.447214
vn 0.000000 0.447214 0.894427
vn 0.000000 0.447214 0.894427
vn 0.000000 0.447214 0.894427
vn 0.000000 0.447214 0.894427
vn 0.000000 1.000000 -0.000000
vn 0.000000 1.000000 -0.000000
vn 0.000000 1.000000 -0.000000
vn 0.000000 1.000000 -0.000000
vn 0.000000 0.447213 -0.894427
vn 0.000000 0.447213 -0.894427
vn 0.000000 0.447213 -0.894427
vn 0.000000 0.447213 -0.894427
vn 0.000000 -0.447214 -0.894427
vn 0.000000 -0.447214 -0.894427
vn 0.000000 -0.447214 -0.894427
vn 0.000000 -0.447214 -0.894427
vn 0.000000 -1.000000 -0.000000
vn 0.000000 -1.000000 -0.000000
vn 0.000000 -1.000000 -0.000000
vn 0.000000 -1.000000 -0.000000
vn 0.000000 -0.447214 0.894427
vn 0.000000 -0.447214 0.894427
vn 0.000000 -0.447214 0.894427
vn 0.000000 -0.447214 0.894427
vn 0.774597 0.447214 0.447214
vn 0.774597 0.447214 0.447214
vn 0.774597 0.447214 0.447214
vn 0.774597 0.447214 0.447214
vn -0.000000 1.000000 -0.000000
vn -0.000000 1.000000 -0.000000
vn -0.000000 1.000000 -0.000000
vn -0.000000 1.000000 -0.000000
vn -0.774597 0.447214 -0.447214
vn -0.774597 0.447214 -0.447214
vn -0.774597 0.447214 -0.447214
vn -0.774597 0.447214 -0.447214
vn -0.774597 -0.447214 -0.447214
vn -0.774597 -0.447214 -0.447214
vn -0.774597 -0.447214 -0.447214
vn -0.774597 -0.447214 -0.447214
vn -0.000000 -1.000000 -0.000000
vn -0.000000 -1.000000 -0.000000
vn -0.000000 -1.000000 -0.000000
vn -0.000000 -1.000000 -0.000000
vn 0.774597 -0.447214 0.447214
vn 0.774597 -0.447214 0.447214
vn 0.774597 -0.447214 0.447214
vn 0.774597 -0.447214 0.447214
vn 0.000000 -0.447214 0.894427
vn 0.000000 -0.447214 0.894427
vn 0.000000 -0.447214 0.894427
vn 0.000000 -0.447214 0.894427
vn -0.988640 0.150299 -0.000000
vn -0.988640 0.150299 -0.000000
vn -0.988640 0.150299 -0.000000
vn -0.988640 0.150299 -0.000000
vn 0.000000 -1.000000 -0.000000
vn 0.000000 -1.000000 -0.000000
vn 0.000000 -1.000000 -0.000000
vn 0.000000 -1.000000 -0.000000
vn 0.000000 -1.000000 -0.000000
vn 0.000000 -1.000000 -0.000000
vn 0.000000 -1.000000 -0.000000
vn 0.000000 -1.000000 -0.000000
vn 0.000000 -0.447214 -0.894427
vn 0.000000 -0.447214 -0.894427
vn 0.000000 -0.447214 -0.894427
vn 0.000000 -0.447214 -0.894427
vn -0.000000 -0.447213 -0.894427
vn -0.000000 -0.447213 -0.894427
vn -0.000000 -0.447213 -0.894427
vn -0.000000 -0.447213 -0.894427
vn 0.000000 0.447214 -0.894427
vn 0.000000 0.447214 -0.894427
vn 0.000000 0.447214 -0.894427
vn 0.000000 0.447214 -0.894427
vn -0.000000 0.447213 -0.894427
vn -0.000000 0.447213 -0.894427
vn -0.000000 0.447213 -0.894427
vn -0.000000 0.447213 -0.894427
vn 0.000000 1.000000 -0.000000
vn 0.000000 1.000000 -0.000000
vn 0.000000 1.000000 -0.000000
vn 0.000000 1.000000 -0.000000
vn 0.000000 1.000000 -0.000000
vn 0.000000 1.000000 -0.000000
vn 0.000000 1.000000 -0.000000
vn 0.000000 1.000000 -0.000000
vn 0.000000 0.447214 0.894427
vn 0.000000 0.447214 0.894427
vn 0.000000 0.447214 0.894427
vn 0.000000 0.447214 0.894427
vn 0.988641 -0.150299 -0.000000
vn 0.988641 -0.150299 -0.000000
vn 0.988641 -0.150299 -0.000000
vn 0.988641 -0.150299 -0.000000
vn 0.000000 -0.447212 0.894428
vn 0.000000 -0.447212 0.894428
vn 0.000000 -0.447212 0.894428
vn 0.000000 -0.447212 0.894428
vn 0.000000 0.447212 0.894428
vn 0.000000 0.447212 0.894428
vn 0.000000 0.447212 0.894428
vn 0.000000 0.447212 0.894428
vn 0.000000 -1.000000 -0.000000
vn 0.000000 -1.000000 -0.000000
vn 0.000000 -1.000000 -0.000000
vn 0.000000 -1.000000 -0.000000
vn 0.000000 1.000000 -0.000000
vn 0.000000 1.000000 -0.000000
vn 0.000000 1.000000 -0.000000
vn 0.000000 1.000000 -0.000000
vn 0.988641 0.150299 -0.000000
vn 0.988641 0.150299 -0.000000
vn 0.988641 0.150299 -0.000000
vn 0.988641 0.150299 -0.000000
vn -0.988640 -0.150299 -0.000000
vn -0.988640 -0.150299 -0.000000
vn -0.988640 -0.150299 -0.000000
vn -0.988640 -0.150299 -0.000000
vn -0.988641 -0.150299 -0.000000
vn -0.988641 -0.150299 -0.000000
vn -0.988641 -0.150299 -0.000000
vn -0.988641 -0.150299 -0.000000
vn 0.000000 0.000001 1.000000
vn 0.000000 0.000001 1.000000
vn 0.000000 0.000001 1.000000
vn 0.000000 0.000001 1.000000
vn -0.988641 -0.150299 -0.000000
vn -0.988641 -0.150299 -0.000000
vn -0.988641 -0.150299 -0.000000
vn -0.988641 -0.150299 -0.000000
vn 0.000000 0.000000 -1.000000
vn 0.000000 0.000000 -1.000000
vn 0.000000 0.000000 -1.000000
vn 0.000000 0.000000 -1.000000
vn 0.988641 0.150299 -0.000000
vn 0.988641 0.150299 -0.000000
vn 0.988641 0.150299 -0.000000
vn 0.988641 0.150299 -0.000000
vn 0.988641 0.150299 -0.000000
vn 0.988641 0.150299 -0.000000
vn 0.988641 0.150299 -0.000000
vn 0.988641 0.150299 -0.000000
vn 0.988641 0.150299 -0.000000
vn 0.988641 0.150299 -0.000000
vn 0.988641 0.150299 -0.000000
vn 0.988641 0.150299 -0.000000
vn 0.988641 0.150299 -0.000000
vn 0.988641 0.150299 -0.000000
vn 0.988641 0.150299 -0.000000
vn 0.988641 0.150299 -0.000000
vn 0.000000 1.000000 -0.000000
vn 0.000000 1.000000 -0.000000
vn 0.000000 1.000000 -0.000000
vn 0.000000 1.000000 -0.000000
vn 0.000000 1.000000 -0.000000
vn 0.000000 1.000000 -0.000000
vn 0.000000 1.000000 -0.000000
vn 0.000000 1.000000 -0.000000
vn 0.000000 1.000000 -0.000000
vn 0.000000 1.000000 -0.000000
vn 0.000000 1.000000 -0.000000
vn 0.000000 1.000000 -0.000000
vn 0.000000 1.000000 -0.000000
vn 0.000000 1.000000 -0.000000
vn 0.000000 1.000000 -0.000000
vn 0.000000 1.000000 -0.000000
vn 0.000000 -1.000000 -0.000000
vn 0.000000 -1.000000 -0.000000
vn 0.000000 -1.000000 -0.000000
vn 0.000000 -1.000000 -0.000000
vn 0.000000 -1.000000 -0.000000
vn 0.000000 -1.000000 -0.000000
vn 0.000000 -1.000000 -0.000000
vn 0.000000 -1.000000 -0.000000
vn 0.000000 -1.000000 -0.000000
vn 0.000000 -1.000000 -0.000000
vn 0.000000 -1.000000 -0.000000
vn 0.000000 -1.000000 -0.000000
vn 0.000000 -1.000000 -0.000000
vn 0.000000 -1.000000 -0.000000
vn 0.000000 -1.000000 -0.000000
vn 0.000000 -1.000000 -0.000000
vn 0.988641 -0.150299 -0.000000
vn 0.988641 -0.150299 -0.000000
vn 0.988641 -0.150299 -0.000000
vn 0.988641 -0.150299 -0.000000
vn 0.988641 -0.150299 -0.000000
vn 0.988641 -0.150299 -0.000000
vn 0.988641 -0.150299 -0.000000
vn 0.988641 -0.150299 -0.000000
vn 0.988641 -0.150299 -0.000000
vn 0.988641 -0.150299 -0.000000
vn 0.988641 -0.150299 -0.000000
vn 0.988641 -0.150299 -0.000000
vn 0.988641 -0.150299 -0.000000
vn 0.988641 -0.150299 -0.000000
vn 0.988641 -0.150299 -0.000000
vn 0.988641 -0.150299 -0.000000
vn -0.988641 0.150299 -0.000000
vn -0.988641 0.150299 -0.000000
vn -0.988641 0.150299 -0.000000
vn -0.988641 0.150299 -0.000000
vn 0.000000 1.000000 -0.000000
vn 0.000000 1.000000 -0.000000
vn 0.000000 1.000000 -0.000000
vn 0.000000 1.000000 -0.000000
vn -0.988641 0.150299 -0.000000
vn -0.988641 0.150299 -0.000000
vn -0.988641 0.150299 -0.000000
vn -0.988641 0.150299 -0.000000
vn 0.000000 -0.000001 1.000000
vn 0.000000 -0.000001 1.000000
vn 0.000000 -0.000001 1.000000
vn 0.000000 -0.000001 1.000000
vn -0.988641 -0.150299 -0.000000
vn -0.988641 -0.150299 -0.000000
vn -0.988641 -0.150299 -0.000000
vn -0.988641 -0.150299 -0.000000
vn -0.988641 -0.150299 -0.000000
vn -0.988641 -0.150299 -0.000000
vn -0.988641 -0.150299 -0.000000
vn -0.988641 -0.150299 -0.000000
vn -0.988641 0.150299 -0.000000
vn -0.988641 0.150299 -0.000000
vn -0.988641 0.150299 -0.000000
vn -0.988641 0.150299 -0.000000
vn -0.988641 0.150299 -0.000000
vn -0.988641 0.150299 -0.000000
vn -0.988641 0.150299 -0.000000
vn -0.988641 0.150299 -0.000000
vn 0.000000 -1.000000 -0.000000
vn 0.000000 -1.000000 -0.000000
vn 0.000000 -1.000000 -0.000000
vn 0.000000 -1.000000 -0.000000
vn 0.000000 -0.000000 -1.000000
vn 0.000000 -0.000000 -1.000000
vn 0.000000 -0.000000 -1.000000
vn 0.000000 -0.000000 -1.000000
vn 0.000000 0.000000 1.000000
vn 0.000000 0.000000 1.000000
vn 0.000000 0.000000 1.000000
vn 0.000000 0.000000 1.000000
vn 0.000000 -0.000000 1.000000
vn 0.000000 -0.000000 1.000000
vn 0.000000 -0.000000 1.000000
vn 0.000000 -0.000000 1.000000
vn 0.000000 1.000000 -0.000000
vn 0.000000 1.000000 -0.000000
vn 0.000000 1.000000 -0.000000
vn 0.000000 1.000000 -0.000000
vn 0.000000 -0.000000 -1.000000
vn 0.000000 -0.000000 -1.000000
vn 0.000000 -0.000000 -1.000000
vn 0.000000 -0.000000 -1.000000
vn 0.000000 -1.000000 -0.000000
vn 0.000000 -1.000000 -0.000000
vn 0.000000 -1.000000 -0.000000
vn 0.000000 -1.000000 -0.000000
vn 0.000000 0.000000 -1.000000
vn 0.000000 0.000000 -1.000000
vn 0.000000 0.000000 -1.000000
vn 0.000000 0.000000 -1.000000

f 1//1 7//2 8//3 2//4
f 2//5 8//6 9//7 3//8
f 3//9 9//10 10//11 4//12
f 4//13 10//14 11//15 5//16
f 5//17 11//18 12//19 6//20
f 6//21 12//22 7//23 1//24
f 7//25 13//26 14//27 8//28
f 8//29 14//30 15//31 9//32
f 9//33 15//34 16//35 10//36
f 10//37 16//38 17//39 11//40
f 11//41 17//42 18//43 12//44
f 12//45 18//46 13//47 7//48
f 13//49 19//50 20//51 14//52
f 14//53 20//54 21//55 15//56
f 15//57 21//58 22//59 16//60
f 16//61 22//62 23//63 17//64
f 17//65 23//66 24//67 18//68
f 18//69 24//70 19//71 13//72
f 19//73 25//74 26//75 20//76
f 20//77 26//78 27//79 21//80
f 21//81 27//82 28//83 22//84
f 22//85 28//86 29//87 23//88
f 23//89 29//90 30//91 24//92
f 24//93 30//94 25//95 19//96
f 38//97 31//98 32//99 40//100
f 40//101 32//102 33//103 42//104
f 42//105 33//106 34//107 44//108
f 44//109 34//110 35//111 46//112
f 46//113 35//114 36//115 48//116
f 48//117 36//118 31//119 38//120
f 31//121 1//122 2//123 32//124
f 32//125 2//126 3//127 33//128
f 33//129 3//130 4//131 34//132
f 34//133 4//134 5//135 35//136
f 35//137 5//138 6//139 36//140
f 36//141 6//142 1//143 31//144
f 30//145 47//146 37//147 25//148
f 67//149 66//150 49//151 51//152
f 29//153 45//154 47//155 30//156
f 45//157 46//158 48//159 47//160
f 28//161 43//162 45//163 29//164
f 43//165 44//166 46//167 45//168
f 27//169 41//170 43//171 28//172
f 41//173 42//174 44//175 43//176
f 26//177 39//178 41//179 27//180
f 39//181 40//182 42//183 41//184
f 25//185 37//186 39//187 26//188
f 59//189 58//190 50//191 54//192
f 53//193 54//194 50//195 49//196
f 49//197 50//198 52//199 51//200
f 71//201 59//202 54//203 53//204
f 75//205 67//206 51//207 52//208
f 58//209 75//210 52//211 50//212
f 66//213 71//214 53//215 49//216
f 37//217 47//218 74//219 63//220
f 71//221 66//222 82//223 87//224
f 64//225 73//226 72//227 65//228
f 70//229 63//230 79//231 86//232
f 38//233 40//234 78//235 55//236
f 55//237 78//238 77//239 56//240
f 56//241 77//242 76//243 57//244
f 57//245 76//246 75//247 58//248
f 40//249 39//250 70//251 78//252
f 78//253 70//254 69//255 77//256
f 77//257 69//258 68//259 76//260
f 76//261 68//262 67//263 75//264
f 47//265 48//266 62//267 74//268
f 74//269 62//270 61//271 73//272
f 73//273 61//274 60//275 72//276
f 72//277 60//278 59//279 71//280
f 48//281 38//282 55//283 62//284
f 62//285 55//286 56//287 61//288
f 61//289 56//290 57//291 60//292
f 60//293 57//294 58//295 59//296
f 39//297 37//298 63//299 70//300
f 67//301 68//302 84//303 83//304
f 69//305 64//306 65//307 68//308
f 66//309 67//310 83//311 82//312
f 79//313 90//314 89//315 80//316
f 81//317 88//318 87//319 82//320
f 86//321 79//322 80//323 85//324
f 84//325 81//326 82//327 83//328
f 72//329 71//330 87//331 88//332
f 63//333 74//334 90//335 79//336
f 64//337 69//338 85//339 80//340
f 73//341 64//342 80//343 89//344
f 69//345 70//346 86//347 85//348
f 68//349 65//350 81//351 84//352
f 74//353 73//354 89//355 90//356
f 65//357 72//358 88//359 81//360
