# Converted from FBX: Cube.084
# Vertices: 98

v -0.595588 0.404412 0.595588
v -0.595588 1.595588 0.595588
v -0.595588 0.404412 -0.595588
v -0.595588 1.595588 -0.595588
v 0.595588 0.404412 0.595588
v 0.595588 1.595588 0.595588
v 0.595588 0.404412 -0.595588
v 0.595588 1.595588 -0.595588
v -0.682464 0.317536 -0.353362
v -0.726103 0.273897 -0.000000
v -0.682464 0.317536 0.353362
v -0.682464 0.646638 0.682464
v -0.726103 1.000000 0.726103
v -0.682464 1.353362 0.682464
v -0.682464 1.682464 0.353362
v -0.726103 1.726103 0.000000
v -0.682464 1.682464 -0.353362
v -0.682464 1.353362 -0.682464
v -0.726103 1.000000 -0.726103
v -0.682464 0.646638 -0.682464
v 0.353362 0.317536 -0.682464
v 0.000000 0.273897 -0.726103
v -0.353362 0.317536 -0.682464
v -0.353362 1.682464 -0.682464
v -0.000000 1.726103 -0.726103
v 0.353362 1.682464 -0.682464
v 0.682464 1.353362 -0.682464
v 0.726103 1.000000 -0.726103
v 0.682464 0.646638 -0.682464
v 0.682464 0.317536 0.353362
v 0.726103 0.273897 0.000000
v 0.682464 0.317536 -0.353362
v 0.682464 1.682464 -0.353362
v 0.726103 1.726103 0.000000
v 0.682464 1.682464 0.353362
v 0.682464 1.353362 0.682464
v 0.726103 1.000000 0.726103
v 0.682464 0.646638 0.682464
v -0.353362 0.317536 0.682464
v -0.000000 0.273897 0.726103
v 0.353362 0.317536 0.682464
v 0.353362 1.682464 0.682464
v -0.000000 1.726103 0.726103
v -0.353362 1.682464 0.682464
v -0.868356 0.623401 0.376599
v -0.931296 1.000000 0.396829
v -0.868356 1.376599 0.376599
v -0.931296 0.603171 -0.000000
v -1.000000 1.000000 0.000000
v -0.931296 1.396829 0.000000
v -0.868356 0.623401 -0.376599
v -0.931296 1.000000 -0.396829
v -0.868356 1.376599 -0.376599
v -0.376599 0.623401 -0.868356
v -0.396829 1.000000 -0.931296
v -0.376599 1.376599 -0.868356
v 0.000000 0.603171 -0.931296
v 0.000000 1.000000 -1.000000
v -0.000000 1.396829 -0.931296
v 0.376599 0.623401 -0.868356
v 0.396829 1.000000 -0.931296
v 0.376599 1.376599 -0.868356
v 0.868356 0.623401 -0.376599
v 0.931296 1.000000 -0.396829
v 0.868356 1.376599 -0.376599
v 0.931296 0.603171 0.000000
v 1.000000 1.000000 0.000000
v 0.931296 1.396829 -0.000000
v 0.868356 0.623401 0.376599
v 0.931296 1.000000 0.396829
v 0.868356 1.376599 0.376599
v 0.376599 0.623401 0.868356
v 0.396829 1.000000 0.931296
v 0.376599 1.376599 0.868356
v -0.000000 0.603171 0.931296
v -0.000000 1.000000 1.000000
v 0.000000 1.396829 0.931296
v -0.376599 0.623401 0.868356
v -0.396829 1.000000 0.931296
v -0.376599 1.376599 0.868356
v -0.376599 0.131644 -0.376599
v -0.000000 0.068704 -0.396829
v 0.376599 0.131644 -0.376599
v -0.396829 0.068704 0.000000
v 0.000000 0.000000 0.000000
v 0.396829 0.068704 -0.000000
v -0.376599 0.131644 0.376599
v 0.000000 0.068704 0.396829
v 0.376599 0.131644 0.376599
v 0.376599 1.868355 -0.376599
v 0.000000 1.931296 -0.396829
v -0.376599 1.868356 -0.376599
v 0.396829 1.931296 0.000000
v -0.000000 2.000000 0.000000
v -0.396829 1.931296 -0.000000
v 0.376599 1.868356 0.376599
v -0.000000 1.931296 0.396829
v -0.376599 1.868355 0.376599

vn -0.970784 -0.169674 0.169674
vn -0.970784 -0.169674 0.169674
vn -0.970784 -0.169674 0.169674
vn -0.970784 -0.169674 0.169674
vn -0.970784 0.169674 0.169674
vn -0.970784 0.169674 0.169674
vn -0.970784 0.169674 0.169674
vn -0.970784 0.169674 0.169674
vn -0.970784 -0.169674 -0.169674
vn -0.970784 -0.169674 -0.169674
vn -0.970784 -0.169674 -0.169674
vn -0.970784 -0.169674 -0.169674
vn -0.970784 0.169674 -0.169674
vn -0.970784 0.169674 -0.169674
vn -0.970784 0.169674 -0.169674
vn -0.970784 0.169674 -0.169674
vn -0.750433 -0.467360 0.467360
vn -0.750433 -0.467360 0.467360
vn -0.750433 -0.467360 0.467360
vn -0.750433 -0.467360 0.467360
vn -0.836698 -0.167778 0.521332
vn -0.836698 -0.167778 0.521332
vn -0.836698 -0.167778 0.521332
vn -0.836698 -0.167778 0.521332
vn -0.836698 0.167778 0.521332
vn -0.836698 0.167778 0.521332
vn -0.836698 0.167778 0.521332
vn -0.836698 0.167778 0.521332
vn -0.750433 0.467360 0.467360
vn -0.750433 0.467360 0.467360
vn -0.750433 0.467360 0.467360
vn -0.750433 0.467360 0.467360
vn -0.836698 0.521332 0.167778
vn -0.836698 0.521332 0.167778
vn -0.836698 0.521332 0.167778
vn -0.836698 0.521332 0.167778
vn -0.836698 0.521332 -0.167778
vn -0.836698 0.521332 -0.167778
vn -0.836698 0.521332 -0.167778
vn -0.836698 0.521332 -0.167778
vn -0.750433 0.467360 -0.467360
vn -0.750433 0.467360 -0.467360
vn -0.750433 0.467360 -0.467360
vn -0.750433 0.467360 -0.467360
vn -0.836698 0.167779 -0.521332
vn -0.836698 0.167779 -0.521332
vn -0.836698 0.167779 -0.521332
vn -0.836698 0.167779 -0.521332
vn -0.836698 -0.167778 -0.521332
vn -0.836698 -0.167778 -0.521332
vn -0.836698 -0.167778 -0.521332
vn -0.836698 -0.167778 -0.521332
vn -0.750433 -0.467360 -0.467360
vn -0.750433 -0.467360 -0.467360
vn -0.750433 -0.467360 -0.467360
vn -0.750433 -0.467360 -0.467360
vn -0.836698 -0.521332 -0.167778
vn -0.836698 -0.521332 -0.167778
vn -0.836698 -0.521332 -0.167778
vn -0.836698 -0.521332 -0.167778
vn -0.836698 -0.521332 0.167778
vn -0.836698 -0.521332 0.167778
vn -0.836698 -0.521332 0.167778
vn -0.836698 -0.521332 0.167778
vn -0.169674 -0.169674 -0.970784
vn -0.169674 -0.169674 -0.970784
vn -0.169674 -0.169674 -0.970784
vn -0.169674 -0.169674 -0.970784
vn -0.169674 0.169674 -0.970784
vn -0.169674 0.169674 -0.970784
vn -0.169674 0.169674 -0.970784
vn -0.169674 0.169674 -0.970784
vn 0.169674 -0.169674 -0.970784
vn 0.169674 -0.169674 -0.970784
vn 0.169674 -0.169674 -0.970784
vn 0.169674 -0.169674 -0.970784
vn 0.169674 0.169674 -0.970784
vn 0.169674 0.169674 -0.970784
vn 0.169674 0.169674 -0.970784
vn 0.169674 0.169674 -0.970784
vn -0.467360 -0.467360 -0.750433
vn -0.467360 -0.467360 -0.750433
vn -0.467360 -0.467360 -0.750433
vn -0.467360 -0.467360 -0.750433
vn -0.521332 -0.167779 -0.836698
vn -0.521332 -0.167779 -0.836698
vn -0.521332 -0.167779 -0.836698
vn -0.521332 -0.167779 -0.836698
vn -0.521332 0.167778 -0.836698
vn -0.521332 0.167778 -0.836698
vn -0.521332 0.167778 -0.836698
vn -0.521332 0.167778 -0.836698
vn -0.467361 0.467359 -0.750433
vn -0.467361 0.467359 -0.750433
vn -0.467361 0.467359 -0.750433
vn -0.467361 0.467359 -0.750433
vn -0.167778 0.521332 -0.836698
vn -0.167778 0.521332 -0.836698
vn -0.167778 0.521332 -0.836698
vn -0.167778 0.521332 -0.836698
vn 0.167778 0.521332 -0.836698
vn 0.167778 0.521332 -0.836698
vn 0.167778 0.521332 -0.836698
vn 0.167778 0.521332 -0.836698
vn 0.467359 0.467360 -0.750433
vn 0.467359 0.467360 -0.750433
vn 0.467359 0.467360 -0.750433
vn 0.467359 0.467360 -0.750433
vn 0.521332 0.167778 -0.836698
vn 0.521332 0.167778 -0.836698
vn 0.521332 0.167778 -0.836698
vn 0.521332 0.167778 -0.836698
vn 0.521332 -0.167778 -0.836698
vn 0.521332 -0.167778 -0.836698
vn 0.521332 -0.167778 -0.836698
vn 0.521332 -0.167778 -0.836698
vn 0.467360 -0.467360 -0.750433
vn 0.467360 -0.467360 -0.750433
vn 0.467360 -0.467360 -0.750433
vn 0.467360 -0.467360 -0.750433
vn 0.167778 -0.521332 -0.836698
vn 0.167778 -0.521332 -0.836698
vn 0.167778 -0.521332 -0.836698
vn 0.167778 -0.521332 -0.836698
vn -0.167778 -0.521332 -0.836698
vn -0.167778 -0.521332 -0.836698
vn -0.167778 -0.521332 -0.836698
vn -0.167778 -0.521332 -0.836698
vn 0.970784 -0.169675 -0.169674
vn 0.970784 -0.169675 -0.169674
vn 0.970784 -0.169675 -0.169674
vn 0.970784 -0.169675 -0.169674
vn 0.970784 0.169674 -0.169674
vn 0.970784 0.169674 -0.169674
vn 0.970784 0.169674 -0.169674
vn 0.970784 0.169674 -0.169674
vn 0.970784 -0.169674 0.169674
vn 0.970784 -0.169674 0.169674
vn 0.970784 -0.169674 0.169674
vn 0.970784 -0.169674 0.169674
vn 0.970784 0.169674 0.169674
vn 0.970784 0.169674 0.169674
vn 0.970784 0.169674 0.169674
vn 0.970784 0.169674 0.169674
vn 0.750433 -0.467360 -0.467360
vn 0.750433 -0.467360 -0.467360
vn 0.750433 -0.467360 -0.467360
vn 0.750433 -0.467360 -0.467360
vn 0.836698 -0.167778 -0.521332
vn 0.836698 -0.167778 -0.521332
vn 0.836698 -0.167778 -0.521332
vn 0.836698 -0.167778 -0.521332
vn 0.836698 0.167778 -0.521332
vn 0.836698 0.167778 -0.521332
vn 0.836698 0.167778 -0.521332
vn 0.836698 0.167778 -0.521332
vn 0.750433 0.467360 -0.467360
vn 0.750433 0.467360 -0.467360
vn 0.750433 0.467360 -0.467360
vn 0.750433 0.467360 -0.467360
vn 0.836698 0.521332 -0.167778
vn 0.836698 0.521332 -0.167778
vn 0.836698 0.521332 -0.167778
vn 0.836698 0.521332 -0.167778
vn 0.836698 0.521332 0.167778
vn 0.836698 0.521332 0.167778
vn 0.836698 0.521332 0.167778
vn 0.836698 0.521332 0.167778
vn 0.750433 0.467360 0.467360
vn 0.750433 0.467360 0.467360
vn 0.750433 0.467360 0.467360
vn 0.750433 0.467360 0.467360
vn 0.836698 0.167779 0.521332
vn 0.836698 0.167779 0.521332
vn 0.836698 0.167779 0.521332
vn 0.836698 0.167779 0.521332
vn 0.836698 -0.167778 0.521332
vn 0.836698 -0.167778 0.521332
vn 0.836698 -0.167778 0.521332
vn 0.836698 -0.167778 0.521332
vn 0.750433 -0.467359 0.467360
vn 0.750433 -0.467359 0.467360
vn 0.750433 -0.467359 0.467360
vn 0.750433 -0.467359 0.467360
vn 0.836698 -0.521332 0.167778
vn 0.836698 -0.521332 0.167778
vn 0.836698 -0.521332 0.167778
vn 0.836698 -0.521332 0.167778
vn 0.836698 -0.521332 -0.167778
vn 0.836698 -0.521332 -0.167778
vn 0.836698 -0.521332 -0.167778
vn 0.836698 -0.521332 -0.167778
vn 0.169674 -0.169674 0.970784
vn 0.169674 -0.169674 0.970784
vn 0.169674 -0.169674 0.970784
vn 0.169674 -0.169674 0.970784
vn 0.169674 0.169674 0.970784
vn 0.169674 0.169674 0.970784
vn 0.169674 0.169674 0.970784
vn 0.169674 0.169674 0.970784
vn -0.169674 -0.169674 0.970784
vn -0.169674 -0.169674 0.970784
vn -0.169674 -0.169674 0.970784
vn -0.169674 -0.169674 0.970784
vn -0.169674 0.169674 0.970784
vn -0.169674 0.169674 0.970784
vn -0.169674 0.169674 0.970784
vn -0.169674 0.169674 0.970784
vn 0.467360 -0.467360 0.750433
vn 0.467360 -0.467360 0.750433
vn 0.467360 -0.467360 0.750433
vn 0.467360 -0.467360 0.750433
vn 0.521332 -0.167778 0.836698
vn 0.521332 -0.167778 0.836698
vn 0.521332 -0.167778 0.836698
vn 0.521332 -0.167778 0.836698
vn 0.521332 0.167778 0.836698
vn 0.521332 0.167778 0.836698
vn 0.521332 0.167778 0.836698
vn 0.521332 0.167778 0.836698
vn 0.467361 0.467359 0.750433
vn 0.467361 0.467359 0.750433
vn 0.467361 0.467359 0.750433
vn 0.467361 0.467359 0.750433
vn 0.167778 0.521332 0.836698
vn 0.167778 0.521332 0.836698
vn 0.167778 0.521332 0.836698
vn 0.167778 0.521332 0.836698
vn -0.167778 0.521332 0.836698
vn -0.167778 0.521332 0.836698
vn -0.167778 0.521332 0.836698
vn -0.167778 0.521332 0.836698
vn -0.467359 0.467360 0.750433
vn -0.467359 0.467360 0.750433
vn -0.467359 0.467360 0.750433
vn -0.467359 0.467360 0.750433
vn -0.521332 0.167778 0.836698
vn -0.521332 0.167778 0.836698
vn -0.521332 0.167778 0.836698
vn -0.521332 0.167778 0.836698
vn -0.521332 -0.167778 0.836698
vn -0.521332 -0.167778 0.836698
vn -0.521332 -0.167778 0.836698
vn -0.521332 -0.167778 0.836698
vn -0.467360 -0.467360 0.750433
vn -0.467360 -0.467360 0.750433
vn -0.467360 -0.467360 0.750433
vn -0.467360 -0.467360 0.750433
vn -0.167778 -0.521332 0.836698
vn -0.167778 -0.521332 0.836698
vn -0.167778 -0.521332 0.836698
vn -0.167778 -0.521332 0.836698
vn 0.167778 -0.521332 0.836698
vn 0.167778 -0.521332 0.836698
vn 0.167778 -0.521332 0.836698
vn 0.167778 -0.521332 0.836698
vn -0.169674 -0.970784 -0.169674
vn -0.169674 -0.970784 -0.169674
vn -0.169674 -0.970784 -0.169674
vn -0.169674 -0.970784 -0.169674
vn 0.169674 -0.970784 -0.169674
vn 0.169674 -0.970784 -0.169674
vn 0.169674 -0.970784 -0.169674
vn 0.169674 -0.970784 -0.169674
vn -0.169674 -0.970784 0.169674
vn -0.169674 -0.970784 0.169674
vn -0.169674 -0.970784 0.169674
vn -0.169674 -0.970784 0.169674
vn 0.169674 -0.970784 0.169674
vn 0.169674 -0.970784 0.169674
vn 0.169674 -0.970784 0.169674
vn 0.169674 -0.970784 0.169674
vn -0.467360 -0.750433 -0.467360
vn -0.467360 -0.750433 -0.467360
vn -0.467360 -0.750433 -0.467360
vn -0.467360 -0.750433 -0.467360
vn -0.167778 -0.836698 -0.521332
vn -0.167778 -0.836698 -0.521332
vn -0.167778 -0.836698 -0.521332
vn -0.167778 -0.836698 -0.521332
vn 0.167778 -0.836698 -0.521332
vn 0.167778 -0.836698 -0.521332
vn 0.167778 -0.836698 -0.521332
vn 0.167778 -0.836698 -0.521332
vn 0.467360 -0.750433 -0.467360
vn 0.467360 -0.750433 -0.467360
vn 0.467360 -0.750433 -0.467360
vn 0.467360 -0.750433 -0.467360
vn 0.521332 -0.836698 -0.167778
vn 0.521332 -0.836698 -0.167778
vn 0.521332 -0.836698 -0.167778
vn 0.521332 -0.836698 -0.167778
vn 0.521332 -0.836698 0.167778
vn 0.521332 -0.836698 0.167778
vn 0.521332 -0.836698 0.167778
vn 0.521332 -0.836698 0.167778
vn 0.467360 -0.750433 0.467360
vn 0.467360 -0.750433 0.467360
vn 0.467360 -0.750433 0.467360
vn 0.467360 -0.750433 0.467360
vn 0.167778 -0.836698 0.521332
vn 0.167778 -0.836698 0.521332
vn 0.167778 -0.836698 0.521332
vn 0.167778 -0.836698 0.521332
vn -0.167778 -0.836698 0.521332
vn -0.167778 -0.836698 0.521332
vn -0.167778 -0.836698 0.521332
vn -0.167778 -0.836698 0.521332
vn -0.467360 -0.750433 0.467360
vn -0.467360 -0.750433 0.467360
vn -0.467360 -0.750433 0.467360
vn -0.467360 -0.750433 0.467360
vn -0.521332 -0.836698 0.167778
vn -0.521332 -0.836698 0.167778
vn -0.521332 -0.836698 0.167778
vn -0.521332 -0.836698 0.167778
vn -0.521332 -0.836698 -0.167778
vn -0.521332 -0.836698 -0.167778
vn -0.521332 -0.836698 -0.167778
vn -0.521332 -0.836698 -0.167778
vn 0.169674 0.970784 -0.169674
vn 0.169674 0.970784 -0.169674
vn 0.169674 0.970784 -0.169674
vn 0.169674 0.970784 -0.169674
vn -0.169674 0.970784 -0.169674
vn -0.169674 0.970784 -0.169674
vn -0.169674 0.970784 -0.169674
vn -0.169674 0.970784 -0.169674
vn 0.169675 0.970784 0.169674
vn 0.169675 0.970784 0.169674
vn 0.169675 0.970784 0.169674
vn 0.169675 0.970784 0.169674
vn -0.169675 0.970784 0.169674
vn -0.169675 0.970784 0.169674
vn -0.169675 0.970784 0.169674
vn -0.169675 0.970784 0.169674
vn 0.467359 0.750433 -0.467360
vn 0.467359 0.750433 -0.467360
vn 0.467359 0.750433 -0.467360
vn 0.467359 0.750433 -0.467360
vn 0.167779 0.836698 -0.521332
vn 0.167779 0.836698 -0.521332
vn 0.167779 0.836698 -0.521332
vn 0.167779 0.836698 -0.521332
vn -0.167778 0.836698 -0.521332
vn -0.167778 0.836698 -0.521332
vn -0.167778 0.836698 -0.521332
vn -0.167778 0.836698 -0.521332
vn -0.467360 0.750433 -0.467360
vn -0.467360 0.750433 -0.467360
vn -0.467360 0.750433 -0.467360
vn -0.467360 0.750433 -0.467360
vn -0.521332 0.836698 -0.167778
vn -0.521332 0.836698 -0.167778
vn -0.521332 0.836698 -0.167778
vn -0.521332 0.836698 -0.167778
vn -0.521332 0.836698 0.167778
vn -0.521332 0.836698 0.167778
vn -0.521332 0.836698 0.167778
vn -0.521332 0.836698 0.167778
vn -0.467359 0.750433 0.467360
vn -0.467359 0.750433 0.467360
vn -0.467359 0.750433 0.467360
vn -0.467359 0.750433 0.467360
vn -0.167779 0.836698 0.521332
vn -0.167779 0.836698 0.521332
vn -0.167779 0.836698 0.521332
vn -0.167779 0.836698 0.521332
vn 0.167778 0.836698 0.521332
vn 0.167778 0.836698 0.521332
vn 0.167778 0.836698 0.521332
vn 0.167778 0.836698 0.521332
vn 0.467361 0.750433 0.467359
vn 0.467361 0.750433 0.467359
vn 0.467361 0.750433 0.467359
vn 0.467361 0.750433 0.467359
vn 0.521332 0.836698 0.167778
vn 0.521332 0.836698 0.167778
vn 0.521332 0.836698 0.167778
vn 0.521332 0.836698 0.167778
vn 0.521331 0.836698 -0.167778
vn 0.521331 0.836698 -0.167778
vn 0.521331 0.836698 -0.167778
vn 0.521331 0.836698 -0.167778

f 45//1 46//2 49//3 48//4
f 46//5 47//6 50//7 49//8
f 48//9 49//10 52//11 51//12
f 49//13 50//14 53//15 52//16
f 1//17 12//18 45//19 11//20
f 12//21 13//22 46//23 45//24
f 13//25 14//26 47//27 46//28
f 14//29 2//30 15//31 47//32
f 47//33 15//34 16//35 50//36
f 50//37 16//38 17//39 53//40
f 53//41 17//42 4//43 18//44
f 52//45 53//46 18//47 19//48
f 51//49 52//50 19//51 20//52
f 9//53 51//54 20//55 3//56
f 10//57 48//58 51//59 9//60
f 11//61 45//62 48//63 10//64
f 54//65 55//66 58//67 57//68
f 55//69 56//70 59//71 58//72
f 57//73 58//74 61//75 60//76
f 58//77 59//78 62//79 61//80
f 3//81 20//82 54//83 23//84
f 20//85 19//86 55//87 54//88
f 19//89 18//90 56//91 55//92
f 18//93 4//94 24//95 56//96
f 56//97 24//98 25//99 59//100
f 59//101 25//102 26//103 62//104
f 62//105 26//106 8//107 27//108
f 61//109 62//110 27//111 28//112
f 60//113 61//114 28//115 29//116
f 21//117 60//118 29//119 7//120
f 22//121 57//122 60//123 21//124
f 23//125 54//126 57//127 22//128
f 63//129 64//130 67//131 66//132
f 64//133 65//134 68//135 67//136
f 66//137 67//138 70//139 69//140
f 67//141 68//142 71//143 70//144
f 7//145 29//146 63//147 32//148
f 29//149 28//150 64//151 63//152
f 28//153 27//154 65//155 64//156
f 27//157 8//158 33//159 65//160
f 65//161 33//162 34//163 68//164
f 68//165 34//166 35//167 71//168
f 71//169 35//170 6//171 36//172
f 70//173 71//174 36//175 37//176
f 69//177 70//178 37//179 38//180
f 30//181 69//182 38//183 5//184
f 31//185 66//186 69//187 30//188
f 32//189 63//190 66//191 31//192
f 72//193 73//194 76//195 75//196
f 73//197 74//198 77//199 76//200
f 75//201 76//202 79//203 78//204
f 76//205 77//206 80//207 79//208
f 5//209 38//210 72//211 41//212
f 38//213 37//214 73//215 72//216
f 37//217 36//218 74//219 73//220
f 36//221 6//222 42//223 74//224
f 74//225 42//226 43//227 77//228
f 77//229 43//230 44//231 80//232
f 80//233 44//234 2//235 14//236
f 79//237 80//238 14//239 13//240
f 78//241 79//242 13//243 12//244
f 39//245 78//246 12//247 1//248
f 40//249 75//250 78//251 39//252
f 41//253 72//254 75//255 40//256
f 81//257 82//258 85//259 84//260
f 82//261 83//262 86//263 85//264
f 84//265 85//266 88//267 87//268
f 85//269 86//270 89//271 88//272
f 3//273 23//274 81//275 9//276
f 23//277 22//278 82//279 81//280
f 22//281 21//282 83//283 82//284
f 21//285 7//286 32//287 83//288
f 83//289 32//290 31//291 86//292
f 86//293 31//294 30//295 89//296
f 89//297 30//298 5//299 41//300
f 88//301 89//302 41//303 40//304
f 87//305 88//306 40//307 39//308
f 11//309 87//310 39//311 1//312
f 10//313 84//314 87//315 11//316
f 9//317 81//318 84//319 10//320
f 90//321 91//322 94//323 93//324
f 91//325 92//326 95//327 94//328
f 93//329 94//330 97//331 96//332
f 94//333 95//334 98//335 97//336
f 8//337 26//338 90//339 33//340
f 26//341 25//342 91//343 90//344
f 25//345 24//346 92//347 91//348
f 24//349 4//350 17//351 92//352
f 92//353 17//354 16//355 95//356
f 95//357 16//358 15//359 98//360
f 98//361 15//362 2//363 44//364
f 97//365 98//366 44//367 43//368
f 96//369 97//370 43//371 42//372
f 35//373 96//374 42//375 6//376
f 34//377 93//378 96//379 35//380
f 33//381 90//382 93//383 34//384
