# Converted from FBX: Cube.497
# Vertices: 20

v -0.320437 -1.000000 0.320436
v -0.320437 -1.000000 0.124524
v -0.124525 -1.000000 0.320436
v -0.124525 -1.000000 0.124524
v -0.222481 1.000000 0.222480
v 0.124525 -1.000000 0.320436
v 0.124525 -1.000000 0.124524
v 0.320437 -1.000000 0.320436
v 0.320437 -1.000000 0.124524
v 0.222481 1.000000 0.222480
v -0.320437 -1.000000 -0.124524
v -0.320437 -1.000000 -0.320436
v -0.124525 -1.000000 -0.124524
v -0.124525 -1.000000 -0.320436
v -0.222481 1.000000 -0.222480
v 0.124525 -1.000000 -0.124524
v 0.124525 -1.000000 -0.320436
v 0.320437 -1.000000 -0.124524
v 0.320437 -1.000000 -0.320436
v 0.222481 1.000000 -0.222480

vn -0.998803 0.048919 -0.000000
vn -0.998803 0.048919 -0.000000
vn -0.998803 0.048919 -0.000000
vn 0.000000 0.048919 -0.998803
vn 0.000000 0.048919 -0.998803
vn 0.000000 0.048919 -0.998803
vn 0.998803 0.048919 -0.000000
vn 0.998803 0.048919 -0.000000
vn 0.998803 0.048919 -0.000000
vn 0.000000 0.048919 0.998803
vn 0.000000 0.048919 0.998803
vn 0.000000 0.048919 0.998803
vn 0.000000 -1.000000 -0.000000
vn 0.000000 -1.000000 -0.000000
vn 0.000000 -1.000000 -0.000000
vn 0.000000 -1.000000 -0.000000
vn -0.998803 0.048919 -0.000000
vn -0.998803 0.048919 -0.000000
vn -0.998803 0.048919 -0.000000
vn 0.000000 0.048919 -0.998803
vn 0.000000 0.048919 -0.998803
vn 0.000000 0.048919 -0.998803
vn 0.998803 0.048919 -0.000000
vn 0.998803 0.048919 -0.000000
vn 0.998803 0.048919 -0.000000
vn 0.000000 0.048919 0.998803
vn 0.000000 0.048919 0.998803
vn 0.000000 0.048919 0.998803
vn 0.000000 -1.000000 -0.000000
vn 0.000000 -1.000000 -0.000000
vn 0.000000 -1.000000 -0.000000
vn 0.000000 -1.000000 -0.000000
vn -0.998803 0.048919 -0.000000
vn -0.998803 0.048919 -0.000000
vn -0.998803 0.048919 -0.000000
vn 0.000000 0.048919 -0.998803
vn 0.000000 0.048919 -0.998803
vn 0.000000 0.048919 -0.998803
vn 0.998803 0.048919 -0.000000
vn 0.998803 0.048919 -0.000000
vn 0.998803 0.048919 -0.000000
vn 0.000000 0.048919 0.998803
vn 0.000000 0.048919 0.998803
vn 0.000000 0.048919 0.998803
vn 0.000000 -1.000000 -0.000000
vn 0.000000 -1.000000 -0.000000
vn 0.000000 -1.000000 -0.000000
vn 0.000000 -1.000000 -0.000000
vn -0.998803 0.048919 -0.000000
vn -0.998803 0.048919 -0.000000
vn -0.998803 0.048919 -0.000000
vn 0.000000 0.048919 -0.998803
vn 0.000000 0.048919 -0.998803
vn 0.000000 0.048919 -0.998803
vn 0.998803 0.048919 -0.000000
vn 0.998803 0.048919 -0.000000
vn 0.998803 0.048919 -0.000000
vn 0.000000 0.048919 0.998803
vn 0.000000 0.048919 0.998803
vn 0.000000 0.048919 0.998803
vn 0.000000 -1.000000 -0.000000
vn 0.000000 -1.000000 -0.000000
vn 0.000000 -1.000000 -0.000000
vn 0.000000 -1.000000 -0.000000

f 1//1 5//2 2//3
f 2//4 5//5 4//6
f 4//7 5//8 3//9
f 3//10 5//11 1//12
f 2//13 4//14 3//15 1//16
f 6//17 10//18 7//19
f 7//20 10//21 9//22
f 9//23 10//24 8//25
f 8//26 10//27 6//28
f 7//29 9//30 8//31 6//32
f 11//33 15//34 12//35
f 12//36 15//37 14//38
f 14//39 15//40 13//41
f 13//42 15//43 11//44
f 12//45 14//46 13//47 11//48
f 16//49 20//50 17//51
f 17//52 20//53 19//54
f 19//55 20//56 18//57
f 18//58 20//59 16//60
f 17//61 19//62 18//63 16//64
