# Converted from FBX: Cube.003
# Vertices: 24

v -1.000000 0.000000 1.000000
v -0.602320 0.509502 0.602320
v -1.000000 0.000000 -1.000000
v -0.602320 0.509502 -0.602320
v 1.000000 0.000000 1.000000
v 0.602320 0.509502 0.602320
v 1.000000 0.000000 -1.000000
v 0.602320 0.509502 -0.602320
v -0.234639 0.249043 0.171446
v -0.234639 1.720831 0.564121
v -0.234639 0.252166 -0.292072
v -0.234639 1.837594 0.107859
v 0.234639 0.249043 0.171446
v 0.234639 1.720831 0.564121
v 0.234639 0.252166 -0.292072
v 0.234639 1.837594 0.107859
v -1.000000 0.509502 1.000000
v -1.000000 0.509502 -1.000000
v 1.000000 0.509502 -1.000000
v 1.000000 0.509502 1.000000
v -0.602320 0.636878 0.602320
v -0.602320 0.636878 -0.602320
v 0.602320 0.636878 -0.602320
v 0.602320 0.636878 0.602320

vn -1.000000 0.000000 -0.000000
vn -1.000000 0.000000 -0.000000
vn -1.000000 0.000000 -0.000000
vn -1.000000 0.000000 -0.000000
vn 0.000000 0.000000 -1.000000
vn 0.000000 0.000000 -1.000000
vn 0.000000 0.000000 -1.000000
vn 0.000000 0.000000 -1.000000
vn 1.000000 0.000000 -0.000000
vn 1.000000 0.000000 -0.000000
vn 1.000000 0.000000 -0.000000
vn 1.000000 0.000000 -0.000000
vn 0.000000 0.000000 1.000000
vn 0.000000 0.000000 1.000000
vn 0.000000 0.000000 1.000000
vn 0.000000 0.000000 1.000000
vn 0.000000 -1.000000 -0.000000
vn 0.000000 -1.000000 -0.000000
vn 0.000000 -1.000000 -0.000000
vn 0.000000 -1.000000 -0.000000
vn 0.000000 0.000000 1.000000
vn 0.000000 0.000000 1.000000
vn 0.000000 0.000000 1.000000
vn 0.000000 0.000000 1.000000
vn -1.000000 0.000000 -0.000000
vn -1.000000 0.000000 -0.000000
vn -1.000000 0.000000 -0.000000
vn -1.000000 0.000000 -0.000000
vn 0.000000 0.244593 -0.969626
vn 0.000000 0.244593 -0.969626
vn 0.000000 0.244593 -0.969626
vn 0.000000 0.244593 -0.969626
vn 1.000000 0.000000 -0.000000
vn 1.000000 0.000000 -0.000000
vn 1.000000 0.000000 -0.000000
vn 1.000000 0.000000 -0.000000
vn 0.000000 -0.257784 0.966203
vn 0.000000 -0.257784 0.966203
vn 0.000000 -0.257784 0.966203
vn 0.000000 -0.257784 0.966203
vn 0.000000 -0.999977 -0.006737
vn 0.000000 -0.999977 -0.006737
vn 0.000000 -0.999977 -0.006737
vn 0.000000 -0.999977 -0.006737
vn 0.000000 0.968780 0.247923
vn 0.000000 0.968780 0.247923
vn 0.000000 0.968780 0.247923
vn 0.000000 0.968780 0.247923
vn 0.000000 1.000000 -0.000000
vn 0.000000 1.000000 -0.000000
vn 0.000000 1.000000 -0.000000
vn 0.000000 1.000000 -0.000000
vn 0.000000 1.000000 -0.000000
vn 0.000000 1.000000 -0.000000
vn 0.000000 1.000000 -0.000000
vn 0.000000 1.000000 -0.000000
vn -0.000000 1.000000 -0.000000
vn -0.000000 1.000000 -0.000000
vn -0.000000 1.000000 -0.000000
vn -0.000000 1.000000 -0.000000
vn 0.000000 1.000000 -0.000000
vn 0.000000 1.000000 -0.000000
vn 0.000000 1.000000 -0.000000
vn 0.000000 1.000000 -0.000000
vn 0.000000 1.000000 -0.000000
vn 0.000000 1.000000 -0.000000
vn 0.000000 1.000000 -0.000000
vn 0.000000 1.000000 -0.000000
vn 0.000000 0.000000 -1.000000
vn 0.000000 0.000000 -1.000000
vn 0.000000 0.000000 -1.000000
vn 0.000000 0.000000 -1.000000
vn 1.000000 0.000000 -0.000000
vn 1.000000 0.000000 -0.000000
vn 1.000000 0.000000 -0.000000
vn 1.000000 0.000000 -0.000000
vn -1.000000 0.000000 -0.000000
vn -1.000000 0.000000 -0.000000
vn -1.000000 0.000000 -0.000000
vn -1.000000 0.000000 -0.000000

f 1//1 17//2 18//3 3//4
f 3//5 18//6 19//7 7//8
f 7//9 19//10 20//11 5//12
f 5//13 20//14 17//15 1//16
f 3//17 7//18 5//19 1//20
f 2//21 6//22 24//23 21//24
f 9//25 10//26 12//27 11//28
f 11//29 12//30 16//31 15//32
f 15//33 16//34 14//35 13//36
f 13//37 14//38 10//39 9//40
f 11//41 15//42 13//43 9//44
f 16//45 12//46 10//47 14//48
f 2//49 4//50 18//51 17//52
f 4//53 8//54 19//55 18//56
f 8//57 6//58 20//59 19//60
f 6//61 2//62 17//63 20//64
f 23//65 22//66 21//67 24//68
f 8//69 4//70 22//71 23//72
f 6//73 8//74 23//75 24//76
f 4//77 2//78 21//79 22//80
