# Converted from FBX: Cube.353
# Vertices: 6

v -1.000000 -0.999999 0.999999
v 0.999998 -0.999999 0.999999
v -1.000000 0.999999 0.999999
v 0.999998 0.999999 0.999999
v 1.000000 -0.999999 -0.999999
v 1.000000 0.999999 -0.999999

vn 0.000000 0.000000 1.000000
vn 0.000000 0.000000 1.000000
vn 0.000000 0.000000 1.000000
vn 0.000000 0.000000 1.000000
vn 1.000000 0.000000 0.000001
vn 1.000000 0.000000 0.000001
vn 1.000000 0.000000 0.000001
vn 1.000000 0.000000 0.000001

f 3//1 1//2 2//3 4//4
f 2//5 5//6 6//7 4//8
