# Converted from FBX: Cube.033
# Vertices: 72

v -0.500000 -0.050000 -0.500000
v -0.500000 -0.050000 0.500000
v -0.500000 0.050000 -0.500000
v -0.500000 0.050000 0.500000
v 0.500000 -0.050000 -0.500000
v 0.500000 -0.050000 0.500000
v 0.500000 0.050000 -0.500000
v 0.500000 0.050000 0.500000
v 0.366667 0.050000 -0.500000
v -0.366667 0.050000 -0.500000
v -0.366667 0.050000 0.500000
v 0.366667 0.050000 0.500000
v -0.366667 -0.050000 -0.500000
v 0.366667 -0.050000 -0.500000
v 0.366667 -0.050000 0.500000
v -0.366667 -0.050000 0.500000
v -0.500000 -0.050000 -0.375000
v -0.500000 -0.050000 -0.250000
v -0.500000 -0.050000 -0.125000
v -0.500000 -0.050000 0.000000
v -0.500000 -0.050000 0.125000
v -0.500000 -0.050000 0.250000
v -0.500000 -0.050000 0.375000
v -0.500000 0.050000 0.375000
v -0.500000 0.050000 0.250000
v -0.500000 0.050000 0.125000
v -0.500000 0.050000 0.000000
v -0.500000 0.050000 -0.125000
v -0.500000 0.050000 -0.250000
v -0.500000 0.050000 -0.375000
v 0.500000 0.050000 0.375000
v 0.500000 0.050000 0.250000
v 0.500000 0.050000 0.125000
v 0.500000 0.050000 0.000000
v 0.500000 0.050000 -0.125000
v 0.500000 0.050000 -0.250000
v 0.500000 0.050000 -0.375000
v 0.500000 -0.050000 0.375000
v 0.500000 -0.050000 0.250000
v 0.500000 -0.050000 0.125000
v 0.500000 -0.050000 0.000000
v 0.500000 -0.050000 -0.125000
v 0.500000 -0.050000 -0.250000
v 0.500000 -0.050000 -0.375000
v 0.366667 -0.050000 0.375000
v 0.366667 -0.050000 0.250000
v 0.366667 -0.050000 0.125000
v 0.366667 -0.050000 0.000000
v 0.366667 -0.050000 -0.125000
v 0.366667 -0.050000 -0.250000
v 0.366667 -0.050000 -0.375000
v -0.366667 -0.050000 0.375000
v -0.366667 -0.050000 0.250000
v -0.366667 -0.050000 0.125000
v -0.366667 -0.050000 0.000000
v -0.366667 -0.050000 -0.125000
v -0.366667 -0.050000 -0.250000
v -0.366667 -0.050000 -0.375000
v -0.366667 0.050000 0.375000
v -0.366667 0.050000 0.250000
v -0.366667 0.050000 0.125000
v -0.366667 0.050000 0.000000
v -0.366667 0.050000 -0.125000
v -0.366667 0.050000 -0.250000
v -0.366667 0.050000 -0.375000
v 0.366667 0.050000 0.375000
v 0.366667 0.050000 0.250000
v 0.366667 0.050000 0.125000
v 0.366667 0.050000 0.000000
v 0.366667 0.050000 -0.125000
v 0.366667 0.050000 -0.250000
v 0.366667 0.050000 -0.375000

vn -1.000000 0.000000 0.000000
vn -1.000000 0.000000 0.000000
vn -1.000000 0.000000 0.000000
vn -1.000000 0.000000 0.000000
vn 0.000000 1.000000 0.000000
vn 0.000000 1.000000 0.000000
vn 0.000000 1.000000 0.000000
vn 0.000000 1.000000 0.000000
vn 1.000000 0.000000 0.000000
vn 1.000000 0.000000 0.000000
vn 1.000000 0.000000 0.000000
vn 1.000000 0.000000 0.000000
vn 0.000000 -1.000000 0.000000
vn 0.000000 -1.000000 0.000000
vn 0.000000 -1.000000 0.000000
vn 0.000000 -1.000000 0.000000
vn 0.000000 0.000000 -1.000000
vn 0.000000 0.000000 -1.000000
vn 0.000000 0.000000 -1.000000
vn 0.000000 0.000000 -1.000000
vn 0.000000 0.000000 1.000000
vn 0.000000 0.000000 1.000000
vn 0.000000 0.000000 1.000000
vn 0.000000 0.000000 1.000000
vn 0.000000 0.000000 1.000000
vn 0.000000 0.000000 1.000000
vn 0.000000 0.000000 1.000000
vn 0.000000 0.000000 1.000000
vn 0.000000 0.000000 1.000000
vn 0.000000 0.000000 1.000000
vn 0.000000 0.000000 1.000000
vn 0.000000 0.000000 1.000000
vn 0.000000 0.000000 -1.000000
vn 0.000000 0.000000 -1.000000
vn 0.000000 0.000000 -1.000000
vn 0.000000 0.000000 -1.000000
vn 1.000000 0.000000 0.000000
vn 1.000000 0.000000 0.000000
vn 1.000000 0.000000 0.000000
vn 1.000000 0.000000 0.000000
vn 0.000000 -1.000000 0.000000
vn 0.000000 -1.000000 0.000000
vn 0.000000 -1.000000 0.000000
vn 0.000000 -1.000000 0.000000
vn 0.000000 -1.000000 0.000000
vn 0.000000 -1.000000 0.000000
vn 0.000000 -1.000000 0.000000
vn 0.000000 -1.000000 0.000000
vn 0.000000 1.000000 0.000000
vn 0.000000 1.000000 0.000000
vn 0.000000 1.000000 0.000000
vn 0.000000 1.000000 0.000000
vn 0.000000 1.000000 0.000000
vn 0.000000 1.000000 0.000000
vn 0.000000 1.000000 0.000000
vn 0.000000 1.000000 0.000000
vn 0.000000 1.000000 0.000000
vn 0.000000 1.000000 0.000000
vn 0.000000 1.000000 0.000000
vn 0.000000 1.000000 0.000000
vn 0.000000 1.000000 0.000000
vn 0.000000 1.000000 0.000000
vn 0.000000 1.000000 0.000000
vn 0.000000 1.000000 0.000000
vn 0.000000 1.000000 0.000000
vn 0.000000 1.000000 0.000000
vn 0.000000 1.000000 0.000000
vn 0.000000 1.000000 0.000000
vn 0.000000 1.000000 0.000000
vn 0.000000 1.000000 0.000000
vn 0.000000 1.000000 0.000000
vn 0.000000 1.000000 0.000000
vn 0.000000 1.000000 0.000000
vn 0.000000 1.000000 0.000000
vn 0.000000 1.000000 0.000000
vn 0.000000 1.000000 0.000000
vn 0.000000 1.000000 0.000000
vn 0.000000 1.000000 0.000000
vn 0.000000 1.000000 0.000000
vn 0.000000 1.000000 0.000000
vn 0.000000 1.000000 0.000000
vn 0.000000 1.000000 0.000000
vn 0.000000 1.000000 0.000000
vn 0.000000 1.000000 0.000000
vn 0.000000 1.000000 0.000000
vn 0.000000 1.000000 0.000000
vn 0.000000 1.000000 0.000000
vn 0.000000 1.000000 0.000000
vn 0.000000 1.000000 0.000000
vn 0.000000 1.000000 0.000000
vn 0.000000 1.000000 0.000000
vn 0.000000 1.000000 0.000000
vn 0.000000 1.000000 0.000000
vn 0.000000 1.000000 0.000000
vn 0.000000 1.000000 0.000000
vn 0.000000 1.000000 0.000000
vn 0.000000 -1.000000 0.000000
vn 0.000000 -1.000000 0.000000
vn 0.000000 -1.000000 0.000000
vn 0.000000 -1.000000 0.000000
vn 0.000000 -1.000000 0.000000
vn 0.000000 -1.000000 0.000000
vn 0.000000 -1.000000 0.000000
vn 0.000000 -1.000000 0.000000
vn 0.000000 -1.000000 0.000000
vn 0.000000 -1.000000 0.000000
vn 0.000000 -1.000000 0.000000
vn 0.000000 -1.000000 0.000000
vn 0.000000 -1.000000 0.000000
vn 0.000000 -1.000000 0.000000
vn 0.000000 -1.000000 0.000000
vn 0.000000 -1.000000 0.000000
vn 0.000000 -1.000000 0.000000
vn 0.000000 -1.000000 0.000000
vn 0.000000 -1.000000 0.000000
vn 0.000000 -1.000000 0.000000
vn 0.000000 -1.000000 0.000000
vn 0.000000 -1.000000 0.000000
vn 0.000000 -1.000000 0.000000
vn 0.000000 -1.000000 0.000000
vn 0.000000 -1.000000 0.000000
vn 0.000000 -1.000000 0.000000
vn 0.000000 -1.000000 0.000000
vn 0.000000 -1.000000 0.000000
vn 0.000000 -1.000000 0.000000
vn 0.000000 -1.000000 0.000000
vn 0.000000 -1.000000 0.000000
vn 0.000000 -1.000000 0.000000
vn 0.000000 -1.000000 0.000000
vn 0.000000 -1.000000 0.000000
vn 0.000000 -1.000000 0.000000
vn 0.000000 -1.000000 0.000000
vn 0.000000 -1.000000 0.000000
vn 0.000000 -1.000000 0.000000
vn 0.000000 -1.000000 0.000000
vn 0.000000 -1.000000 0.000000
vn 0.000000 -1.000000 0.000000
vn 0.000000 -1.000000 0.000000
vn 0.000000 -1.000000 0.000000
vn 0.000000 -1.000000 0.000000
vn 0.000000 -1.000000 0.000000
vn 0.000000 -1.000000 0.000000
vn 0.000000 -1.000000 0.000000
vn 0.000000 -1.000000 0.000000
vn 0.000000 -1.000000 0.000000
vn 0.000000 -1.000000 0.000000
vn 0.000000 -1.000000 0.000000
vn 0.000000 -1.000000 0.000000
vn 0.000000 -1.000000 0.000000
vn 0.000000 -1.000000 0.000000
vn 0.000000 -1.000000 0.000000
vn 0.000000 -1.000000 0.000000
vn 0.000000 -1.000000 0.000000
vn 0.000000 -1.000000 0.000000
vn 0.000000 -1.000000 0.000000
vn 0.000000 -1.000000 0.000000
vn 0.000000 -1.000000 0.000000
vn 0.000000 -1.000000 0.000000
vn 0.000000 -1.000000 0.000000
vn 0.000000 -1.000000 0.000000
vn 0.000000 -1.000000 0.000000
vn 0.000000 -1.000000 0.000000
vn 0.000000 -1.000000 0.000000
vn 0.000000 -1.000000 0.000000
vn 1.000000 0.000000 0.000000
vn 1.000000 0.000000 0.000000
vn 1.000000 0.000000 0.000000
vn 1.000000 0.000000 0.000000
vn 1.000000 0.000000 0.000000
vn 1.000000 0.000000 0.000000
vn 1.000000 0.000000 0.000000
vn 1.000000 0.000000 0.000000
vn 1.000000 0.000000 0.000000
vn 1.000000 0.000000 0.000000
vn 1.000000 0.000000 0.000000
vn 1.000000 0.000000 0.000000
vn 1.000000 0.000000 0.000000
vn 1.000000 0.000000 0.000000
vn 1.000000 0.000000 0.000000
vn 1.000000 0.000000 0.000000
vn 1.000000 0.000000 0.000000
vn 1.000000 0.000000 0.000000
vn 1.000000 0.000000 0.000000
vn 1.000000 0.000000 0.000000
vn 1.000000 0.000000 0.000000
vn 1.000000 0.000000 0.000000
vn 1.000000 0.000000 0.000000
vn 1.000000 0.000000 0.000000
vn 1.000000 0.000000 0.000000
vn 1.000000 0.000000 0.000000
vn 1.000000 0.000000 0.000000
vn 1.000000 0.000000 0.000000
vn 0.000000 1.000000 0.000000
vn 0.000000 1.000000 0.000000
vn 0.000000 1.000000 0.000000
vn 0.000000 1.000000 0.000000
vn 0.000000 1.000000 0.000000
vn 0.000000 1.000000 0.000000
vn 0.000000 1.000000 0.000000
vn 0.000000 1.000000 0.000000
vn 0.000000 1.000000 0.000000
vn 0.000000 1.000000 0.000000
vn 0.000000 1.000000 0.000000
vn 0.000000 1.000000 0.000000
vn 0.000000 1.000000 0.000000
vn 0.000000 1.000000 0.000000
vn 0.000000 1.000000 0.000000
vn 0.000000 1.000000 0.000000
vn 0.000000 1.000000 0.000000
vn 0.000000 1.000000 0.000000
vn 0.000000 1.000000 0.000000
vn 0.000000 1.000000 0.000000
vn 0.000000 1.000000 0.000000
vn 0.000000 1.000000 0.000000
vn 0.000000 1.000000 0.000000
vn 0.000000 1.000000 0.000000
vn 0.000000 1.000000 0.000000
vn 0.000000 1.000000 0.000000
vn 0.000000 1.000000 0.000000
vn 0.000000 1.000000 0.000000
vn -1.000000 0.000000 0.000000
vn -1.000000 0.000000 0.000000
vn -1.000000 0.000000 0.000000
vn -1.000000 0.000000 0.000000
vn -1.000000 0.000000 0.000000
vn -1.000000 0.000000 0.000000
vn -1.000000 0.000000 0.000000
vn -1.000000 0.000000 0.000000
vn -1.000000 0.000000 0.000000
vn -1.000000 0.000000 0.000000
vn -1.000000 0.000000 0.000000
vn -1.000000 0.000000 0.000000
vn -1.000000 0.000000 0.000000
vn -1.000000 0.000000 0.000000
vn -1.000000 0.000000 0.000000
vn -1.000000 0.000000 0.000000
vn -1.000000 0.000000 0.000000
vn -1.000000 0.000000 0.000000
vn -1.000000 0.000000 0.000000
vn -1.000000 0.000000 0.000000
vn -1.000000 0.000000 0.000000
vn -1.000000 0.000000 0.000000
vn -1.000000 0.000000 0.000000
vn -1.000000 0.000000 0.000000
vn -1.000000 0.000000 0.000000
vn -1.000000 0.000000 0.000000
vn -1.000000 0.000000 0.000000
vn -1.000000 0.000000 0.000000
vn 0.000000 0.000000 -1.000000
vn 0.000000 0.000000 -1.000000
vn 0.000000 0.000000 -1.000000
vn 0.000000 0.000000 -1.000000
vn -1.000000 0.000000 0.000000
vn -1.000000 0.000000 0.000000
vn -1.000000 0.000000 0.000000
vn -1.000000 0.000000 0.000000
vn 0.000000 0.000000 1.000000
vn 0.000000 0.000000 1.000000
vn 0.000000 0.000000 1.000000
vn 0.000000 0.000000 1.000000
vn -1.000000 0.000000 0.000000
vn -1.000000 0.000000 0.000000
vn -1.000000 0.000000 0.000000
vn -1.000000 0.000000 0.000000
vn 0.000000 0.000000 -1.000000
vn 0.000000 0.000000 -1.000000
vn 0.000000 0.000000 -1.000000
vn 0.000000 0.000000 -1.000000
vn 1.000000 0.000000 0.000000
vn 1.000000 0.000000 0.000000
vn 1.000000 0.000000 0.000000
vn 1.000000 0.000000 0.000000
vn 0.000000 0.000000 1.000000
vn 0.000000 0.000000 1.000000
vn 0.000000 0.000000 1.000000
vn 0.000000 0.000000 1.000000
vn -1.000000 0.000000 0.000000
vn -1.000000 0.000000 0.000000
vn -1.000000 0.000000 0.000000
vn -1.000000 0.000000 0.000000
vn 0.000000 0.000000 -1.000000
vn 0.000000 0.000000 -1.000000
vn 0.000000 0.000000 -1.000000
vn 0.000000 0.000000 -1.000000
vn 1.000000 0.000000 0.000000
vn 1.000000 0.000000 0.000000
vn 1.000000 0.000000 0.000000
vn 1.000000 0.000000 0.000000
vn 0.000000 0.000000 1.000000
vn 0.000000 0.000000 1.000000
vn 0.000000 0.000000 1.000000
vn 0.000000 0.000000 1.000000
vn -1.000000 0.000000 0.000000
vn -1.000000 0.000000 0.000000
vn -1.000000 0.000000 0.000000
vn -1.000000 0.000000 0.000000
vn 0.000000 0.000000 -1.000000
vn 0.000000 0.000000 -1.000000
vn 0.000000 0.000000 -1.000000
vn 0.000000 0.000000 -1.000000
vn 1.000000 0.000000 0.000000
vn 1.000000 0.000000 0.000000
vn 1.000000 0.000000 0.000000
vn 1.000000 0.000000 0.000000

f 23//1 2//2 4//3 24//4
f 66//5 12//6 8//7 31//8
f 31//9 8//10 6//11 38//12
f 52//13 16//14 2//15 23//16
f 9//17 7//18 5//19 14//20
f 11//21 4//22 2//23 16//24
f 8//25 12//26 15//27 6//28
f 12//29 11//30 16//31 15//32
f 3//33 10//34 13//35 1//36
f 58//37 13//38 10//39 65//40
f 38//41 6//42 15//43 45//44
f 45//45 15//46 16//47 52//48
f 24//49 4//50 11//51 59//52
f 59//53 11//54 12//55 66//56
f 65//57 64//58 71//59 72//60
f 63//61 62//62 69//63 70//64
f 61//65 60//66 67//67 68//68
f 3//69 30//70 65//71 10//72
f 30//73 29//74 64//75 65//76
f 29//77 28//78 63//79 64//80
f 28//81 27//82 62//83 63//84
f 27//85 26//86 61//87 62//88
f 26//89 25//90 60//91 61//92
f 25//93 24//94 59//95 60//96
f 51//97 50//98 57//99 58//100
f 49//101 48//102 55//103 56//104
f 47//105 46//106 53//107 54//108
f 5//109 44//110 51//111 14//112
f 44//113 43//114 50//115 51//116
f 43//117 42//118 49//119 50//120
f 42//121 41//122 48//123 49//124
f 41//125 40//126 47//127 48//128
f 40//129 39//130 46//131 47//132
f 39//133 38//134 45//135 46//136
f 13//137 58//138 17//139 1//140
f 58//141 57//142 18//143 17//144
f 57//145 56//146 19//147 18//148
f 56//149 55//150 20//151 19//152
f 55//153 54//154 21//155 20//156
f 54//157 53//158 22//159 21//160
f 53//161 52//162 23//163 22//164
f 7//165 37//166 44//167 5//168
f 37//169 36//170 43//171 44//172
f 36//173 35//174 42//175 43//176
f 35//177 34//178 41//179 42//180
f 34//181 33//182 40//183 41//184
f 33//185 32//186 39//187 40//188
f 32//189 31//190 38//191 39//192
f 9//193 72//194 37//195 7//196
f 72//197 71//198 36//199 37//200
f 71//201 70//202 35//203 36//204
f 70//205 69//206 34//207 35//208
f 69//209 68//210 33//211 34//212
f 68//213 67//214 32//215 33//216
f 67//217 66//218 31//219 32//220
f 1//221 17//222 30//223 3//224
f 17//225 18//226 29//227 30//228
f 18//229 19//230 28//231 29//232
f 19//233 20//234 27//235 28//236
f 20//237 21//238 26//239 27//240
f 21//241 22//242 25//243 26//244
f 22//245 23//246 24//247 25//248
f 72//249 51//250 58//251 65//252
f 51//253 72//254 9//255 14//256
f 64//257 57//258 50//259 71//260
f 50//261 49//262 70//263 71//264
f 63//265 70//266 49//267 56//268
f 57//269 64//270 63//271 56//272
f 62//273 55//274 48//275 69//276
f 48//277 47//278 68//279 69//280
f 61//281 68//282 47//283 54//284
f 55//285 62//286 61//287 54//288
f 60//289 53//290 46//291 67//292
f 46//293 45//294 66//295 67//296
f 59//297 66//298 45//299 52//300
f 53//301 60//302 59//303 52//304
