# Converted from FBX: Cube.032
# Vertices: 24

v 0.125000 0.125000 -0.500000
v 0.125000 0.125000 0.500000
v 0.125000 -0.125000 -0.500000
v 0.125000 -0.125000 0.500000
v -0.125000 0.125000 -0.500000
v -0.125000 0.125000 0.500000
v -0.125000 -0.125000 -0.500000
v -0.125000 -0.125000 0.500000
v 0.125000 0.125000 -0.346199
v 0.125000 0.125000 0.346199
v 0.125000 -0.125000 0.346199
v 0.125000 -0.125000 -0.346199
v -0.125000 -0.125000 0.346199
v -0.125000 -0.125000 -0.346199
v -0.125000 0.125000 0.346199
v -0.125000 0.125000 -0.346199
v 0.072183 0.072183 -0.346199
v 0.072183 0.072183 0.346199
v 0.072183 -0.072183 0.346199
v 0.072183 -0.072183 -0.346199
v -0.072183 -0.072183 0.346199
v -0.072183 -0.072183 -0.346199
v -0.072183 0.072183 0.346199
v -0.072183 0.072183 -0.346199

vn 1.000000 0.000000 0.000000
vn 1.000000 0.000000 0.000000
vn 1.000000 0.000000 0.000000
vn 1.000000 0.000000 0.000000
vn 0.000000 -1.000000 0.000000
vn 0.000000 -1.000000 0.000000
vn 0.000000 -1.000000 0.000000
vn 0.000000 -1.000000 0.000000
vn -1.000000 0.000000 0.000000
vn -1.000000 0.000000 0.000000
vn -1.000000 0.000000 0.000000
vn -1.000000 0.000000 0.000000
vn 0.000000 1.000000 0.000000
vn 0.000000 1.000000 0.000000
vn 0.000000 1.000000 0.000000
vn 0.000000 1.000000 0.000000
vn 0.000000 0.000000 -1.000000
vn 0.000000 0.000000 -1.000000
vn 0.000000 0.000000 -1.000000
vn 0.000000 0.000000 -1.000000
vn 0.000000 0.000000 1.000000
vn 0.000000 0.000000 1.000000
vn 0.000000 0.000000 1.000000
vn 0.000000 0.000000 1.000000
vn 0.000000 1.000000 0.000000
vn 0.000000 1.000000 0.000000
vn 0.000000 1.000000 0.000000
vn 0.000000 1.000000 0.000000
vn 0.000000 0.000000 1.000000
vn 0.000000 0.000000 1.000000
vn 0.000000 0.000000 1.000000
vn 0.000000 0.000000 1.000000
vn -1.000000 0.000000 0.000000
vn -1.000000 0.000000 0.000000
vn -1.000000 0.000000 0.000000
vn -1.000000 0.000000 0.000000
vn 0.000000 -0.000000 1.000000
vn 0.000000 -0.000000 1.000000
vn 0.000000 -0.000000 1.000000
vn 0.000000 -0.000000 1.000000
vn 0.000000 -1.000000 0.000000
vn 0.000000 -1.000000 0.000000
vn 0.000000 -1.000000 0.000000
vn 0.000000 -1.000000 0.000000
vn 0.000000 0.000000 -1.000000
vn 0.000000 0.000000 -1.000000
vn 0.000000 0.000000 -1.000000
vn 0.000000 0.000000 -1.000000
vn 1.000000 0.000000 0.000000
vn 1.000000 0.000000 0.000000
vn 1.000000 0.000000 0.000000
vn 1.000000 0.000000 0.000000
vn 0.000001 0.000000 -1.000000
vn 0.000001 0.000000 -1.000000
vn 0.000001 0.000000 -1.000000
vn 0.000001 0.000000 -1.000000
vn 0.000000 1.000000 0.000000
vn 0.000000 1.000000 0.000000
vn 0.000000 1.000000 0.000000
vn 0.000000 1.000000 0.000000
vn -1.000000 0.000000 0.000000
vn -1.000000 0.000000 0.000000
vn -1.000000 0.000000 0.000000
vn -1.000000 0.000000 0.000000
vn 0.000000 -1.000000 0.000000
vn 0.000000 -1.000000 0.000000
vn 0.000000 -1.000000 0.000000
vn 0.000000 -1.000000 0.000000
vn 1.000000 -0.000000 0.000000
vn 1.000000 -0.000000 0.000000
vn 1.000000 -0.000000 0.000000
vn 1.000000 -0.000000 0.000000
vn 0.000000 0.000000 1.000000
vn 0.000000 0.000000 1.000000
vn 0.000000 0.000000 1.000000
vn 0.000000 0.000000 1.000000
vn -0.000000 0.000000 1.000000
vn -0.000000 0.000000 1.000000
vn -0.000000 0.000000 1.000000
vn -0.000000 0.000000 1.000000
vn -0.000001 0.000000 -1.000000
vn -0.000001 0.000000 -1.000000
vn -0.000001 0.000000 -1.000000
vn -0.000001 0.000000 -1.000000
vn 0.000000 0.000000 -1.000000
vn 0.000000 0.000000 -1.000000
vn 0.000000 0.000000 -1.000000
vn 0.000000 0.000000 -1.000000

f 10//1 2//2 4//3 11//4
f 11//5 4//6 8//7 13//8
f 13//9 8//10 6//11 15//12
f 15//13 6//14 2//15 10//16
f 3//17 7//18 5//19 1//20
f 8//21 4//22 2//23 6//24
f 5//25 16//26 9//27 1//28
f 14//29 12//30 20//31 22//32
f 7//33 14//34 16//35 5//36
f 12//37 9//38 17//39 20//40
f 3//41 12//42 14//43 7//44
f 15//45 10//46 18//47 23//48
f 1//49 9//50 12//51 3//52
f 13//53 15//54 23//55 21//56
f 24//57 23//58 18//59 17//60
f 22//61 21//62 23//63 24//64
f 20//65 19//66 21//67 22//68
f 17//69 18//70 19//71 20//72
f 16//73 14//74 22//75 24//76
f 9//77 16//78 24//79 17//80
f 10//81 11//82 19//83 18//84
f 11//85 13//86 21//87 19//88
