# Converted from FBX: Cube.043
# Vertices: 38

v -0.606061 -0.181818 -0.212121
v -0.606061 0.181818 -0.212121
v 0.606061 -0.181818 -0.212121
v 0.606061 0.181818 -0.212121
v 0.000000 -0.181818 -0.212121
v 0.000000 0.181818 -0.212121
v 0.000000 -0.181818 1.000000
v 0.000000 0.181818 1.000000
v 0.000000 0.181818 0.191919
v 0.000000 0.181818 0.595960
v 0.000000 -0.181818 0.191919
v 0.000000 -0.181818 0.595960
v -0.303030 -0.181818 -0.212121
v -0.303030 0.181818 1.000000
v -0.303030 0.181818 -0.212121
v -0.303030 -0.181818 1.000000
v -0.303030 -0.181818 0.191919
v -0.303030 -0.181818 0.595960
v -0.303030 0.181818 0.191919
v -0.303030 0.181818 0.595960
v 0.303030 0.181818 -0.212121
v 0.303030 -0.181818 1.000000
v 0.303030 -0.181818 -0.212121
v 0.303030 0.181818 1.000000
v 0.303030 0.181818 0.191919
v 0.303030 0.181818 0.595960
v 0.303030 -0.181818 0.191919
v 0.303030 -0.181818 0.595960
v -0.606061 -0.181818 -0.393939
v -0.606061 0.181818 -0.393939
v 0.606061 -0.181818 -0.393939
v 0.606061 0.181818 -0.393939
v 0.000000 -0.181818 -1.000000
v 0.000000 0.181818 -1.000000
v -0.303030 -0.181818 -0.696970
v -0.303030 0.181818 -0.696970
v 0.303030 0.181818 -0.696970
v 0.303030 -0.181818 -0.696970

vn 0.000000 1.000000 -0.000000
vn 0.000000 1.000000 -0.000000
vn 0.000000 1.000000 -0.000000
vn 0.000000 1.000000 -0.000000
vn 0.000000 1.000000 -0.000000
vn 0.000000 1.000000 -0.000000
vn 0.000000 1.000000 -0.000000
vn 0.000000 1.000000 -0.000000
vn 0.000000 -1.000000 -0.000000
vn 0.000000 -1.000000 -0.000000
vn 0.000000 -1.000000 -0.000000
vn 0.000000 -1.000000 -0.000000
vn 0.000000 0.000000 1.000000
vn 0.000000 0.000000 1.000000
vn 0.000000 0.000000 1.000000
vn 0.000000 0.000000 1.000000
vn 0.000000 -1.000000 -0.000000
vn 0.000000 -1.000000 -0.000000
vn 0.000000 -1.000000 -0.000000
vn 0.000000 -1.000000 -0.000000
vn 0.000000 -1.000000 -0.000000
vn 0.000000 -1.000000 -0.000000
vn 0.000000 -1.000000 -0.000000
vn 0.000000 -1.000000 -0.000000
vn 0.000000 -1.000000 -0.000000
vn 0.000000 -1.000000 -0.000000
vn 0.000000 -1.000000 -0.000000
vn 0.000000 -1.000000 -0.000000
vn 0.000000 1.000000 -0.000000
vn 0.000000 1.000000 -0.000000
vn 0.000000 1.000000 -0.000000
vn 0.000000 1.000000 -0.000000
vn 0.000000 1.000000 -0.000000
vn 0.000000 1.000000 -0.000000
vn 0.000000 1.000000 -0.000000
vn 0.000000 1.000000 -0.000000
vn 0.000000 1.000000 -0.000000
vn 0.000000 1.000000 -0.000000
vn 0.000000 1.000000 -0.000000
vn 0.000000 1.000000 -0.000000
vn 0.000000 1.000000 -0.000000
vn 0.000000 1.000000 -0.000000
vn 0.000000 1.000000 -0.000000
vn 0.000000 1.000000 -0.000000
vn 0.000000 1.000000 -0.000000
vn 0.000000 1.000000 -0.000000
vn 0.000000 1.000000 -0.000000
vn 0.000000 1.000000 -0.000000
vn 0.000000 1.000000 -0.000000
vn 0.000000 1.000000 -0.000000
vn 0.000000 1.000000 -0.000000
vn 0.000000 1.000000 -0.000000
vn 0.000000 0.000000 1.000000
vn 0.000000 0.000000 1.000000
vn 0.000000 0.000000 1.000000
vn 0.000000 0.000000 1.000000
vn 0.000000 -1.000000 -0.000000
vn 0.000000 -1.000000 -0.000000
vn 0.000000 -1.000000 -0.000000
vn 0.000000 -1.000000 -0.000000
vn 0.000000 -1.000000 -0.000000
vn 0.000000 -1.000000 -0.000000
vn 0.000000 -1.000000 -0.000000
vn 0.000000 -1.000000 -0.000000
vn 0.000000 -1.000000 -0.000000
vn 0.000000 -1.000000 -0.000000
vn 0.000000 -1.000000 -0.000000
vn 0.000000 -1.000000 -0.000000
vn 0.000000 -1.000000 -0.000000
vn 0.000000 -1.000000 -0.000000
vn 0.000000 -1.000000 -0.000000
vn 0.000000 -1.000000 -0.000000
vn 0.707107 0.000000 -0.707107
vn 0.707107 0.000000 -0.707107
vn 0.707107 0.000000 -0.707107
vn 0.707107 0.000000 -0.707107
vn -0.707107 0.000000 -0.707107
vn -0.707107 0.000000 -0.707107
vn -0.707107 0.000000 -0.707107
vn -0.707107 0.000000 -0.707107
vn -0.707107 0.000000 -0.707107
vn -0.707107 0.000000 -0.707107
vn -0.707107 0.000000 -0.707107
vn -0.707107 0.000000 -0.707107
vn 0.707107 0.000000 -0.707107
vn 0.707107 0.000000 -0.707107
vn 0.707107 0.000000 -0.707107
vn 0.707107 0.000000 -0.707107
vn 0.000000 1.000000 -0.000000
vn 0.000000 1.000000 -0.000000
vn 0.000000 1.000000 -0.000000
vn 0.000000 1.000000 -0.000000
vn 1.000000 0.000000 -0.000000
vn 1.000000 0.000000 -0.000000
vn 1.000000 0.000000 -0.000000
vn 1.000000 0.000000 -0.000000
vn -0.000000 1.000000 -0.000000
vn -0.000000 1.000000 -0.000000
vn -0.000000 1.000000 -0.000000
vn -0.000000 1.000000 -0.000000
vn -1.000000 0.000000 -0.000000
vn -1.000000 0.000000 -0.000000
vn -1.000000 0.000000 -0.000000
vn -1.000000 0.000000 -0.000000
vn 0.000000 -1.000000 -0.000000
vn 0.000000 -1.000000 -0.000000
vn 0.000000 -1.000000 -0.000000
vn 0.000000 -1.000000 -0.000000
vn 0.000000 -1.000000 -0.000000
vn 0.000000 -1.000000 -0.000000
vn 0.000000 -1.000000 -0.000000
vn 0.000000 -1.000000 -0.000000
vn 0.000000 0.000000 1.000000
vn 0.000000 0.000000 1.000000
vn 0.000000 0.000000 1.000000
vn 0.000000 0.000000 1.000000
vn -1.000000 0.000000 -0.000000
vn -1.000000 0.000000 -0.000000
vn -1.000000 0.000000 -0.000000
vn -1.000000 0.000000 -0.000000
vn -1.000000 0.000000 -0.000000
vn -1.000000 0.000000 -0.000000
vn -1.000000 0.000000 -0.000000
vn -1.000000 0.000000 -0.000000
vn -1.000000 0.000000 -0.000000
vn -1.000000 0.000000 -0.000000
vn -1.000000 0.000000 -0.000000
vn -1.000000 0.000000 -0.000000
vn 0.000000 0.000000 1.000000
vn 0.000000 0.000000 1.000000
vn 0.000000 0.000000 1.000000
vn 0.000000 0.000000 1.000000
vn 1.000000 0.000000 -0.000000
vn 1.000000 0.000000 -0.000000
vn 1.000000 0.000000 -0.000000
vn 1.000000 0.000000 -0.000000
vn 1.000000 0.000000 -0.000000
vn 1.000000 0.000000 -0.000000
vn 1.000000 0.000000 -0.000000
vn 1.000000 0.000000 -0.000000
vn 1.000000 0.000000 -0.000000
vn 1.000000 0.000000 -0.000000
vn 1.000000 0.000000 -0.000000
vn 1.000000 0.000000 -0.000000

f 2//1 15//2 36//3 30//4
f 26//5 10//6 8//7 24//8
f 18//9 12//10 7//11 16//12
f 22//13 24//14 8//15 7//16
f 23//17 5//18 33//19 38//20
f 13//21 5//22 11//23 17//24
f 17//25 11//26 12//27 18//28
f 21//29 6//30 9//31 25//32
f 25//33 9//34 10//35 26//36
f 9//37 19//38 20//39 10//40
f 6//41 15//42 19//43 9//44
f 21//45 4//46 32//47 37//48
f 10//49 20//50 14//51 8//52
f 7//53 8//54 14//55 16//56
f 11//57 27//58 28//59 12//60
f 5//61 23//62 27//63 11//64
f 12//65 28//66 22//67 7//68
f 3//69 23//70 38//71 31//72
f 38//73 37//74 32//75 31//76
f 35//77 36//78 34//79 33//80
f 29//81 30//82 36//83 35//84
f 33//85 34//86 37//87 38//88
f 6//89 21//90 37//91 34//92
f 4//93 3//94 31//95 32//96
f 15//97 6//98 34//99 36//100
f 1//101 2//102 30//103 29//104
f 5//105 13//106 35//107 33//108
f 13//109 1//110 29//111 35//112
f 2//113 1//114 13//115 15//116
f 19//117 15//118 13//119 17//120
f 20//121 19//122 17//123 18//124
f 16//125 14//126 20//127 18//128
f 21//129 23//130 3//131 4//132
f 27//133 23//134 21//135 25//136
f 28//137 27//138 25//139 26//140
f 24//141 22//142 28//143 26//144
