# Converted from FBX: Cylinder.007
# Vertices: 36

v 0.000000 0.000000 -0.636712
v 0.000000 0.352796 -0.636712
v 0.551409 0.000000 -0.318356
v 0.551409 0.352796 -0.318356
v 0.551409 0.000000 0.318356
v 0.551409 0.352796 0.318356
v -0.000000 0.000000 0.636712
v -0.000000 0.352796 0.636712
v -0.551409 0.000000 0.318356
v -0.551409 0.352796 0.318356
v -0.551409 0.000000 -0.318356
v -0.551409 0.352796 -0.318356
v 0.000000 0.000000 -1.000000
v 0.866026 0.000000 -0.500000
v 0.866026 0.352796 -0.500000
v 0.000000 0.352796 -1.000000
v 0.866025 0.000000 0.500000
v 0.866025 0.352796 0.500000
v -0.000000 0.000000 1.000000
v -0.000000 0.352796 1.000000
v -0.866026 0.000000 0.500000
v -0.866026 0.352796 0.500000
v -0.866026 0.000000 -0.500000
v -0.866026 0.352796 -0.500000
v 0.000000 0.077921 -0.636712
v 0.551409 0.077921 -0.318356
v 0.551409 0.274875 -0.318356
v 0.000000 0.274875 -0.636712
v 0.551409 0.077921 0.318356
v 0.551409 0.274875 0.318356
v -0.000000 0.077921 0.636712
v -0.000000 0.274875 0.636712
v -0.551409 0.077921 0.318356
v -0.551409 0.274875 0.318356
v -0.551409 0.077921 -0.318356
v -0.551409 0.274875 -0.318356

vn 0.500000 0.000000 -0.866025
vn 0.500000 0.000000 -0.866025
vn 0.500000 0.000000 -0.866025
vn 0.500000 0.000000 -0.866025
vn 1.000000 0.000000 0.000000
vn 1.000000 0.000000 0.000000
vn 1.000000 0.000000 0.000000
vn 1.000000 0.000000 0.000000
vn 0.500000 0.000000 0.866026
vn 0.500000 0.000000 0.866026
vn 0.500000 0.000000 0.866026
vn 0.500000 0.000000 0.866026
vn -0.500000 0.000000 0.866025
vn -0.500000 0.000000 0.866025
vn -0.500000 0.000000 0.866025
vn -0.500000 0.000000 0.866025
vn -1.000000 0.000000 -0.000000
vn -1.000000 0.000000 -0.000000
vn -1.000000 0.000000 -0.000000
vn -1.000000 0.000000 -0.000000
vn -1.000000 0.000000 -0.000000
vn -1.000000 0.000000 -0.000000
vn -1.000000 0.000000 -0.000000
vn -1.000000 0.000000 -0.000000
vn -0.500000 0.000000 -0.866025
vn -0.500000 0.000000 -0.866025
vn -0.500000 0.000000 -0.866025
vn -0.500000 0.000000 -0.866025
vn 0.500000 0.000000 -0.866025
vn 0.500000 0.000000 -0.866025
vn 0.500000 0.000000 -0.866025
vn 0.500000 0.000000 -0.866025
vn 0.000000 -1.000000 -0.000000
vn 0.000000 -1.000000 -0.000000
vn 0.000000 -1.000000 -0.000000
vn 0.000000 -1.000000 -0.000000
vn 0.000000 1.000000 -0.000000
vn 0.000000 1.000000 -0.000000
vn 0.000000 1.000000 -0.000000
vn 0.000000 1.000000 -0.000000
vn 0.000000 -1.000000 -0.000000
vn 0.000000 -1.000000 -0.000000
vn 0.000000 -1.000000 -0.000000
vn 0.000000 -1.000000 -0.000000
vn 0.000000 1.000000 -0.000000
vn 0.000000 1.000000 -0.000000
vn 0.000000 1.000000 -0.000000
vn 0.000000 1.000000 -0.000000
vn 0.000000 -1.000000 -0.000000
vn 0.000000 -1.000000 -0.000000
vn 0.000000 -1.000000 -0.000000
vn 0.000000 -1.000000 -0.000000
vn 0.000000 1.000000 -0.000000
vn 0.000000 1.000000 -0.000000
vn 0.000000 1.000000 -0.000000
vn 0.000000 1.000000 -0.000000
vn 0.000000 -1.000000 -0.000000
vn 0.000000 -1.000000 -0.000000
vn 0.000000 -1.000000 -0.000000
vn 0.000000 -1.000000 -0.000000
vn -0.000000 1.000000 -0.000000
vn -0.000000 1.000000 -0.000000
vn -0.000000 1.000000 -0.000000
vn -0.000000 1.000000 -0.000000
vn 0.000000 -1.000000 -0.000000
vn 0.000000 -1.000000 -0.000000
vn 0.000000 -1.000000 -0.000000
vn 0.000000 -1.000000 -0.000000
vn 0.000000 1.000000 -0.000000
vn 0.000000 1.000000 -0.000000
vn 0.000000 1.000000 -0.000000
vn 0.000000 1.000000 -0.000000
vn 0.000000 -1.000000 -0.000000
vn 0.000000 -1.000000 -0.000000
vn 0.000000 -1.000000 -0.000000
vn 0.000000 -1.000000 -0.000000
vn 0.000000 1.000000 -0.000000
vn 0.000000 1.000000 -0.000000
vn 0.000000 1.000000 -0.000000
vn 0.000000 1.000000 -0.000000
vn 0.000000 1.000000 -0.000000
vn 0.000000 1.000000 -0.000000
vn 0.000000 1.000000 -0.000000
vn 0.000000 1.000000 -0.000000
vn 0.000000 1.000000 -0.000000
vn 0.000000 1.000000 -0.000000
vn -0.000000 -1.000000 -0.000000
vn -0.000000 -1.000000 -0.000000
vn -0.000000 -1.000000 -0.000000
vn -0.000000 -1.000000 -0.000000
vn -0.000000 -1.000000 -0.000000
vn -0.000000 -1.000000 -0.000000
vn 0.500000 0.000000 0.866025
vn 0.500000 0.000000 0.866025
vn 0.500000 0.000000 0.866025
vn 0.500000 0.000000 0.866025
vn -0.500000 0.000000 0.866025
vn -0.500000 0.000000 0.866025
vn -0.500000 0.000000 0.866025
vn -0.500000 0.000000 0.866025
vn 0.500000 0.000000 -0.866025
vn 0.500000 0.000000 -0.866025
vn 0.500000 0.000000 -0.866025
vn 0.500000 0.000000 -0.866025
vn -0.500000 0.000000 -0.866025
vn -0.500000 0.000000 -0.866025
vn -0.500000 0.000000 -0.866025
vn -0.500000 0.000000 -0.866025
vn 0.500000 0.000000 0.866025
vn 0.500000 0.000000 0.866025
vn 0.500000 0.000000 0.866025
vn 0.500000 0.000000 0.866025
vn -0.500000 0.000000 0.866025
vn -0.500000 0.000000 0.866025
vn -0.500000 0.000000 0.866025
vn -0.500000 0.000000 0.866025
vn 1.000000 0.000000 -0.000000
vn 1.000000 0.000000 -0.000000
vn 1.000000 0.000000 -0.000000
vn 1.000000 0.000000 -0.000000
vn -0.500000 0.000000 -0.866026
vn -0.500000 0.000000 -0.866026
vn -0.500000 0.000000 -0.866026
vn -0.500000 0.000000 -0.866026
vn -1.000000 0.000000 -0.000000
vn -1.000000 0.000000 -0.000000
vn -1.000000 0.000000 -0.000000
vn -1.000000 0.000000 -0.000000
vn 1.000000 0.000000 -0.000000
vn 1.000000 0.000000 -0.000000
vn 1.000000 0.000000 -0.000000
vn 1.000000 0.000000 -0.000000

f 13//1 16//2 15//3 14//4
f 14//5 15//6 18//7 17//8
f 17//9 18//10 20//11 19//12
f 19//13 20//14 22//15 21//16
f 6//17 4//18 27//19 30//20
f 21//21 22//22 24//23 23//24
f 23//25 24//26 16//27 13//28
f 7//29 9//30 33//31 31//32
f 3//33 1//34 13//35 14//36
f 2//37 4//38 15//39 16//40
f 5//41 3//42 14//43 17//44
f 4//45 6//46 18//47 15//48
f 7//49 5//50 17//51 19//52
f 6//53 8//54 20//55 18//56
f 9//57 7//58 19//59 21//60
f 8//61 10//62 22//63 20//64
f 11//65 9//66 21//67 23//68
f 10//69 12//70 24//71 22//72
f 1//73 11//74 23//75 13//76
f 12//77 2//78 16//79 24//80
f 27//81 28//82 36//83 34//84 32//85 30//86
f 25//87 26//88 29//89 31//90 33//91 35//92
f 11//93 1//94 25//95 35//96
f 1//97 3//98 26//99 25//100
f 10//101 8//102 32//103 34//104
f 5//105 7//106 31//107 29//108
f 2//109 12//110 36//111 28//112
f 4//113 2//114 28//115 27//116
f 9//117 11//118 35//119 33//120
f 8//121 6//122 30//123 32//124
f 3//125 5//126 29//127 26//128
f 12//129 10//130 34//131 36//132
