# Converted from FBX: Cylinder.004
# Vertices: 12

v 0.000000 0.000000 -0.500000
v 0.000000 2.000000 -0.500000
v 0.433013 0.000000 -0.250000
v 0.433013 2.000000 -0.250000
v 0.433013 0.000000 0.250000
v 0.433013 2.000000 0.250000
v -0.000000 0.000000 0.500000
v -0.000000 2.000000 0.500000
v -0.433013 0.000000 0.250000
v -0.433013 2.000000 0.250000
v -0.433013 0.000000 -0.250000
v -0.433013 2.000000 -0.250000

vn 0.500000 0.000000 -0.866025
vn 0.500000 0.000000 -0.866025
vn 0.500000 0.000000 -0.866025
vn 0.500000 0.000000 -0.866025
vn 1.000000 0.000000 0.000000
vn 1.000000 0.000000 0.000000
vn 1.000000 0.000000 0.000000
vn 1.000000 0.000000 0.000000
vn 0.500000 0.000000 0.866025
vn 0.500000 0.000000 0.866025
vn 0.500000 0.000000 0.866025
vn 0.500000 0.000000 0.866025
vn -0.500000 0.000000 0.866025
vn -0.500000 0.000000 0.866025
vn -0.500000 0.000000 0.866025
vn -0.500000 0.000000 0.866025
vn 0.000000 1.000000 -0.000000
vn 0.000000 1.000000 -0.000000
vn 0.000000 1.000000 -0.000000
vn 0.000000 1.000000 -0.000000
vn 0.000000 1.000000 -0.000000
vn 0.000000 1.000000 -0.000000
vn -1.000000 0.000000 -0.000000
vn -1.000000 0.000000 -0.000000
vn -1.000000 0.000000 -0.000000
vn -1.000000 0.000000 -0.000000
vn -0.500000 0.000000 -0.866025
vn -0.500000 0.000000 -0.866025
vn -0.500000 0.000000 -0.866025
vn -0.500000 0.000000 -0.866025
vn 0.000000 -1.000000 -0.000000
vn 0.000000 -1.000000 -0.000000
vn 0.000000 -1.000000 -0.000000
vn 0.000000 -1.000000 -0.000000
vn 0.000000 -1.000000 -0.000000
vn 0.000000 -1.000000 -0.000000

f 1//1 2//2 4//3 3//4
f 3//5 4//6 6//7 5//8
f 5//9 6//10 8//11 7//12
f 7//13 8//14 10//15 9//16
f 4//17 2//18 12//19 10//20 8//21 6//22
f 9//23 10//24 12//25 11//26
f 11//27 12//28 2//29 1//30
f 1//31 3//32 5//33 7//34 9//35 11//36
