# Converted from FBX: Cylinder.009
# Vertices: 24

v -1.000000 -0.499625 0.124906
v -1.000000 -0.499625 -0.124906
v -1.000000 0.499625 0.124906
v -1.000000 0.499625 -0.124906
v -0.797151 -0.499625 0.124906
v -0.797151 -0.499625 -0.124906
v -0.797151 0.499625 0.124906
v -0.797151 0.499625 -0.124906
v -0.898575 -0.349738 -0.074944
v -0.898575 -0.349738 0.074944
v -0.898575 0.349738 -0.074944
v -0.898575 0.349738 0.074944
v 1.000000 -0.349738 -0.074944
v 1.000000 -0.349738 0.074944
v 1.000000 0.349738 -0.074944
v 1.000000 0.349738 0.074944
v -0.898575 0.146889 -0.074944
v -0.898575 -0.146889 -0.074944
v -0.898575 -0.146889 0.074944
v -0.898575 0.146889 0.074944
v 1.000000 -0.146889 -0.074944
v 1.000000 0.146889 -0.074944
v 1.000000 0.146889 0.074944
v 1.000000 -0.146889 0.074944

vn 0.000000 0.000000 -1.000000
vn 0.000000 0.000000 -1.000000
vn 0.000000 0.000000 -1.000000
vn 0.000000 0.000000 -1.000000
vn 0.000000 -0.000000 1.000000
vn 0.000000 -0.000000 1.000000
vn 0.000000 -0.000000 1.000000
vn 0.000000 -0.000000 1.000000
vn 1.000000 0.000000 -0.000000
vn 1.000000 0.000000 -0.000000
vn 1.000000 0.000000 -0.000000
vn 1.000000 0.000000 -0.000000
vn 0.000000 -1.000000 -0.000000
vn 0.000000 -1.000000 -0.000000
vn 0.000000 -1.000000 -0.000000
vn 0.000000 -1.000000 -0.000000
vn 0.000000 1.000000 -0.000000
vn 0.000000 1.000000 -0.000000
vn 0.000000 1.000000 -0.000000
vn 0.000000 1.000000 -0.000000
vn -1.000000 -0.000000 -0.000000
vn -1.000000 -0.000000 -0.000000
vn -1.000000 -0.000000 -0.000000
vn -1.000000 -0.000000 -0.000000
vn -1.000000 0.000000 -0.000000
vn -1.000000 0.000000 -0.000000
vn -1.000000 0.000000 -0.000000
vn -1.000000 0.000000 -0.000000
vn 0.000000 1.000000 -0.000000
vn 0.000000 1.000000 -0.000000
vn 0.000000 1.000000 -0.000000
vn 0.000000 1.000000 -0.000000
vn 1.000000 0.000000 -0.000000
vn 1.000000 0.000000 -0.000000
vn 1.000000 0.000000 -0.000000
vn 1.000000 0.000000 -0.000000
vn 0.000000 -1.000000 -0.000000
vn 0.000000 -1.000000 -0.000000
vn 0.000000 -1.000000 -0.000000
vn 0.000000 -1.000000 -0.000000
vn 0.000000 0.000000 -1.000000
vn 0.000000 0.000000 -1.000000
vn 0.000000 0.000000 -1.000000
vn 0.000000 0.000000 -1.000000
vn -0.000000 -0.000000 1.000000
vn -0.000000 -0.000000 1.000000
vn -0.000000 -0.000000 1.000000
vn -0.000000 -0.000000 1.000000
vn 0.000000 -0.000000 1.000000
vn 0.000000 -0.000000 1.000000
vn 0.000000 -0.000000 1.000000
vn 0.000000 -0.000000 1.000000
vn 0.000000 0.000000 -1.000000
vn 0.000000 0.000000 -1.000000
vn 0.000000 0.000000 -1.000000
vn 0.000000 0.000000 -1.000000
vn 1.000000 0.000000 -0.000000
vn 1.000000 0.000000 -0.000000
vn 1.000000 0.000000 -0.000000
vn 1.000000 0.000000 -0.000000
vn 0.000000 1.000000 0.000000
vn 0.000000 1.000000 0.000000
vn 0.000000 1.000000 0.000000
vn 0.000000 1.000000 0.000000
vn -1.000000 0.000000 -0.000000
vn -1.000000 0.000000 -0.000000
vn -1.000000 0.000000 -0.000000
vn -1.000000 0.000000 -0.000000
vn 0.000000 -1.000000 -0.000000
vn 0.000000 -1.000000 -0.000000
vn 0.000000 -1.000000 -0.000000
vn 0.000000 -1.000000 -0.000000

f 8//1 6//2 2//3 4//4
f 5//5 7//6 3//7 1//8
f 8//9 7//10 5//11 6//12
f 6//13 5//14 1//15 2//16
f 4//17 3//18 7//19 8//20
f 3//21 4//22 2//23 1//24
f 17//25 20//26 12//27 11//28
f 11//29 12//30 16//31 15//32
f 21//33 24//34 14//35 13//36
f 13//37 14//38 10//39 9//40
f 18//41 21//42 13//43 9//44
f 24//45 19//46 10//47 14//48
f 16//49 12//50 20//51 23//52
f 11//53 15//54 22//55 17//56
f 15//57 16//58 23//59 22//60
f 19//61 24//62 21//63 18//64
f 9//65 10//66 19//67 18//68
f 20//69 17//70 22//71 23//72
