# Converted from FBX: Cube.475
# Vertices: 5

v -0.220721 0.000000 0.220721
v -0.220721 0.000000 -0.220721
v 0.220721 0.000000 0.220721
v 0.220721 0.000000 -0.220721
v 0.000000 2.000000 -0.000000

vn -0.993965 0.109695 -0.000000
vn -0.993965 0.109695 -0.000000
vn -0.993965 0.109695 -0.000000
vn 0.000000 0.109695 -0.993965
vn 0.000000 0.109695 -0.993965
vn 0.000000 0.109695 -0.993965
vn 0.993965 0.109695 -0.000000
vn 0.993965 0.109695 -0.000000
vn 0.993965 0.109695 -0.000000
vn 0.000000 0.109695 0.993965
vn 0.000000 0.109695 0.993965
vn 0.000000 0.109695 0.993965
vn 0.000000 -1.000000 -0.000000
vn 0.000000 -1.000000 -0.000000
vn 0.000000 -1.000000 -0.000000
vn 0.000000 -1.000000 -0.000000

f 1//1 5//2 2//3
f 2//4 5//5 4//6
f 4//7 5//8 3//9
f 3//10 5//11 1//12
f 2//13 4//14 3//15 1//16
