# Converted from FBX: Cube.042
# Vertices: 16

v -0.250000 0.125000 -0.250000
v 0.250000 0.125000 -0.250000
v -0.250000 -0.125000 -0.250000
v 0.250000 -0.125000 -0.250000
v -0.250000 0.125000 0.250000
v 0.250000 0.125000 0.250000
v -0.250000 -0.125000 0.250000
v 0.250000 -0.125000 0.250000
v -0.500000 -0.125000 0.500000
v -0.500000 -0.125000 -0.500000
v 0.500000 -0.125000 -0.500000
v 0.500000 -0.125000 0.500000
v -0.500000 0.125000 -0.500000
v -0.500000 0.125000 0.500000
v 0.500000 0.125000 0.500000
v 0.500000 0.125000 -0.500000

vn -1.000000 0.000000 0.000000
vn -1.000000 0.000000 0.000000
vn -1.000000 0.000000 0.000000
vn -1.000000 0.000000 0.000000
vn 1.000000 0.000000 0.000000
vn 1.000000 0.000000 0.000000
vn 1.000000 0.000000 0.000000
vn 1.000000 0.000000 0.000000
vn -1.000000 0.000000 -0.000000
vn -1.000000 0.000000 -0.000000
vn -1.000000 0.000000 -0.000000
vn -1.000000 0.000000 -0.000000
vn 0.000000 0.000000 1.000000
vn 0.000000 0.000000 1.000000
vn 0.000000 0.000000 1.000000
vn 0.000000 0.000000 1.000000
vn 0.000000 0.000000 -1.000000
vn 0.000000 0.000000 -1.000000
vn 0.000000 0.000000 -1.000000
vn 0.000000 0.000000 -1.000000
vn 0.000000 0.000000 -1.000000
vn 0.000000 0.000000 -1.000000
vn 0.000000 0.000000 -1.000000
vn 0.000000 0.000000 -1.000000
vn 0.000000 -1.000000 0.000000
vn 0.000000 -1.000000 0.000000
vn 0.000000 -1.000000 0.000000
vn 0.000000 -1.000000 0.000000
vn 0.000000 -1.000000 -0.000000
vn 0.000000 -1.000000 -0.000000
vn 0.000000 -1.000000 -0.000000
vn 0.000000 -1.000000 -0.000000
vn 0.000000 1.000000 0.000000
vn 0.000000 1.000000 0.000000
vn 0.000000 1.000000 0.000000
vn 0.000000 1.000000 0.000000
vn 0.000000 1.000000 0.000000
vn 0.000000 1.000000 0.000000
vn 0.000000 1.000000 0.000000
vn 0.000000 1.000000 0.000000
vn 0.000000 1.000000 0.000000
vn 0.000000 1.000000 0.000000
vn 0.000000 1.000000 0.000000
vn 0.000000 1.000000 0.000000
vn 0.000000 1.000000 -0.000000
vn 0.000000 1.000000 -0.000000
vn 0.000000 1.000000 -0.000000
vn 0.000000 1.000000 -0.000000
vn 0.000000 -1.000000 0.000000
vn 0.000000 -1.000000 0.000000
vn 0.000000 -1.000000 0.000000
vn 0.000000 -1.000000 0.000000
vn 0.000000 -1.000000 0.000000
vn 0.000000 -1.000000 0.000000
vn 0.000000 -1.000000 0.000000
vn 0.000000 -1.000000 0.000000
vn -0.000000 0.000000 1.000000
vn -0.000000 0.000000 1.000000
vn -0.000000 0.000000 1.000000
vn -0.000000 0.000000 1.000000
vn 1.000000 0.000000 0.000000
vn 1.000000 0.000000 0.000000
vn 1.000000 0.000000 0.000000
vn 1.000000 0.000000 0.000000

f 10//1 9//2 14//3 13//4
f 12//5 11//6 16//7 15//8
f 6//9 2//10 4//11 8//12
f 9//13 12//14 15//15 14//16
f 5//17 6//18 8//19 7//20
f 13//21 16//22 11//23 10//24
f 3//25 7//26 9//27 10//28
f 8//29 4//30 11//31 12//32
f 5//33 1//34 13//35 14//36
f 2//37 6//38 15//39 16//40
f 1//41 2//42 16//43 13//44
f 6//45 5//46 14//47 15//48
f 7//49 8//50 12//51 9//52
f 4//53 3//54 10//55 11//56
f 2//57 1//58 3//59 4//60
f 1//61 5//62 7//63 3//64
